<?xml version="1.0" standalone="no"?>
<!DOCTYPE svg PUBLIC "-//W3C//DTD SVG 1.1//EN" "http://www.w3.org/Graphics/SVG/1.1/DTD/svg11.dtd" >
<svg xmlns="http://www.w3.org/2000/svg" xmlns:xlink="http://www.w3.org/1999/xlink" version="1.1">
<metadata>
Created by FontForge 20150318 at Fri Jul 10 21:15:40 2015
 By uniteet7
Copyright (c) 2012 by Fontfabric LLC. All rights reserved.
</metadata>
<defs>
<font id="IntroBlackInline" horiz-adv-x="690" >
  <font-face 
    font-family="IntroBlackInline"
    font-weight="900"
    font-stretch="normal"
    units-per-em="1000"
    panose-1="2 0 0 0 0 0 0 0 0 0"
    ascent="750"
    descent="-250"
    x-height="482"
    cap-height="700"
    bbox="-32 -265.531 1133 989"
    underline-thickness="50"
    underline-position="-50"
    unicode-range="U+0020-2212"
  />
<missing-glyph horiz-adv-x="219" 
 />
    <glyph glyph-name=".notdef" horiz-adv-x="219" 
 />
    <glyph glyph-name=".null" horiz-adv-x="0" 
 />
    <glyph glyph-name="nonmarkingreturn" horiz-adv-x="333" 
 />
    <glyph glyph-name="space" unicode=" " horiz-adv-x="271" 
 />
    <glyph glyph-name="space" unicode="&#xa0;" horiz-adv-x="271" 
 />
    <glyph glyph-name="exclam" unicode="!" horiz-adv-x="243" 
d="M120 -8q-14 0 -23 8.5t-9 22.5q0 31 32 31q15 0 24.5 -8t9.5 -23q0 -14 -9.5 -22.5t-24.5 -8.5zM98 128l-2 572h50l-1 -572h-47z" />
    <glyph glyph-name="quotedbl" unicode="&#x22;" horiz-adv-x="321" 
d="M82 700h40l-5 -213h-35v213zM200 700h40l-6 -213h-34v213z" />
    <glyph glyph-name="numbersign" unicode="#" 
d="M53 210v37h130l27 184h-126v37h132l34 231h43l-33 -231h215l35 231h44l-34 -231h117v-37h-123l-27 -184h119v-37h-124l-30 -210h-46l31 210h-215l-31 -210h-46l32 210h-124zM254 432l-28 -186h218l26 186h-216z" />
    <glyph glyph-name="dollar" unicode="$" horiz-adv-x="641" 
d="M39 214h173q0 -52 85 -65v121q-119 9 -182.5 58.5t-65.5 156.5q-2 102 70.5 160.5t177.5 65.5v70h41v-71q103 -7 175 -65.5t70 -159.5h-170q0 28 -21 45t-54 21v-136q37 -4 58.5 -7.5t53.5 -10.5t51 -16t41 -24.5t34 -35t20.5 -48.5t8.5 -65q0 -100 -78.5 -159
t-188.5 -63v-68h-41v68q-109 7 -184.5 66t-73.5 162zM475 549h13q-22 40 -66.5 63.5t-94.5 23.5t-95.5 -14.5t-75 -51t-28.5 -85.5q1 -43 15.5 -72t43.5 -43.5t57.5 -21t72.5 -9.5q96 -8 126 -20q67 -27 68 -110q0 -55 -45.5 -91.5t-105 -44.5t-121 11.5t-89.5 65.5h-12
q21 -41 67.5 -65t99.5 -25t102.5 13.5t82 51t32.5 84.5q0 36 -12.5 61.5t-28.5 39.5t-48 23t-53 11.5t-61 5.5q-44 4 -71 9t-54.5 18.5t-40.5 40t-13 67.5q0 45 27 79t69 47.5t88 14t87.5 -20t63.5 -56.5zM431 209q0 49 -93 58v-119q39 2 66 18.5t27 42.5zM219 487
q-3 -31 17.5 -45.5t60.5 -21.5v130q-32 -6 -54 -22t-24 -41z" />
    <glyph glyph-name="percent" unicode="%" horiz-adv-x="811" 
d="M206 -1l343 699h49l-342 -699h-50zM769 148q0 -44 -17.5 -78.5t-45.5 -52t-62 -26t-67.5 0t-61.5 26.5t-45.5 52t-17.5 78t17.5 78.5t45.5 52.5t62 26.5t67.5 0t61.5 -26.5t45.5 -52.5t17.5 -78.5zM493 148q0 -58 36.5 -90.5t81 -32.5t81 32.5t36.5 90.5t-36.5 91t-81 33
t-81 -33t-36.5 -91zM359 549q0 -44 -17.5 -78.5t-45.5 -52.5t-61.5 -26.5t-67.5 0t-62 26t-45.5 52.5t-17.5 79t17.5 78.5t45.5 52.5t61.5 26.5t67.5 0t62 -26.5t45.5 -52.5t17.5 -78.5zM84 549q0 -58 36.5 -91t80.5 -33t80.5 33t36.5 91t-36.5 90.5t-80.5 32.5t-80.5 -32.5
t-36.5 -90.5z" />
    <glyph glyph-name="ampersand" unicode="&#x26;" horiz-adv-x="661" 
d="M534 526h-159q0 40 -59 40q-22 0 -37.5 -11t-19 -27t0 -31.5t19.5 -26.5t39 -11h30v-147h-32q-43 0 -67.5 -27.5t-24.5 -60t24.5 -60t67.5 -27.5q41 0 66.5 24.5t25.5 65.5v235h220v-156h-63v-79q0 -118 -65.5 -180t-183.5 -62q-69 0 -124.5 22t-88 57.5t-48.5 80.5
t-12 90.5t28 88t65 72.5q-37 42 -44.5 97t13 104.5t76.5 83.5t135 34q98 0 160 -48.5t58 -140.5zM439 574h7q-30 70 -131 70q-61 0 -99 -35t-43 -79t20 -87t77 -57v-1q-47 -10 -79.5 -38t-45.5 -64t-9.5 -76t23.5 -72.5t61 -54t95 -21.5q77 0 127 45.5t50 122.5v151h86v9
h-95v-160q0 -73 -47.5 -116t-120.5 -43q-55 0 -95 22t-58 55t-19 72.5t15.5 74t53 59t86.5 28.5v11q-38 4 -65.5 24t-39.5 47t-10.5 57.5t15.5 56.5t44.5 43t72.5 17q96 0 124 -61z" />
    <glyph glyph-name="quotesingle" unicode="'" horiz-adv-x="210" 
d="M82 700h48l-7 -213h-41v213z" />
    <glyph glyph-name="parenleft" unicode="(" horiz-adv-x="297" 
d="M233 759l24 -35q-75 -65 -114 -189t-37.5 -254t41.5 -253t112 -187l-26 -36q-84 71 -131 204t-48 273t45 273t134 204z" />
    <glyph glyph-name="parenright" unicode=")" horiz-adv-x="298" 
d="M40 724l24 35q89 -71 135 -204t44 -272.5t-48.5 -272.5t-130.5 -205l-26 36q72 64 112 187t41.5 253t-37.5 254t-114 189z" />
    <glyph glyph-name="asterisk" unicode="*" horiz-adv-x="423" 
d="M354 592l-116 -41l84 -104l-29 -22l-82 108l-81 -109l-29 23l82 102l-115 42l11 35l115 -44l-2 124h39l-5 -125l116 46z" />
    <glyph glyph-name="plus" unicode="+" horiz-adv-x="478" 
d="M69 345v41h150v151h41v-151h149v-41h-149v-149h-41v149h-150z" />
    <glyph glyph-name="comma" unicode="," horiz-adv-x="221" 
d="M146 14q-2 -4 -3 -11t-3 -11l-27 -86h-36l24 82q-26 5 -26 32q0 15 10 24t26 9q12 0 22.5 -7t12.5 -19v-13z" />
    <glyph glyph-name="hyphen" unicode="-" horiz-adv-x="463" 
d="M75 312v43h313v-43h-313z" />
    <glyph glyph-name="period" unicode="." horiz-adv-x="223" 
d="M148 28q0 -21 -18 -29.5t-36.5 0t-18.5 29.5q0 20 18.5 29t36.5 0.5t18 -29.5z" />
    <glyph glyph-name="slash" unicode="/" horiz-adv-x="460" 
d="M35 1l338 699h51l-339 -699h-50z" />
    <glyph glyph-name="zero" unicode="0" horiz-adv-x="648" 
d="M323 713q113 0 188 -65t75 -176v-245q0 -111 -75 -176t-188 -65q-110 0 -185.5 65t-75.5 176v245q0 111 75.5 176t185.5 65zM323 61q78 0 131 46t53 124v238q0 78 -52.5 123.5t-131.5 45.5q-77 0 -129.5 -45.5t-52.5 -123.5v-238q0 -78 52.5 -124t129.5 -46zM323 145
q41 0 67.5 22.5t26.5 63.5v238q0 40 -26 62t-68 22q-40 0 -65.5 -22t-25.5 -62v-238q0 -41 25.5 -63.5t65.5 -22.5zM323 629q75 0 123.5 -42.5t48.5 -117.5v-238q0 -74 -49 -117.5t-123 -43.5q-72 0 -121.5 44t-49.5 117v238q0 75 49 117.5t122 42.5z" />
    <glyph glyph-name="one" unicode="1" horiz-adv-x="478" 
d="M161 549h-95v151h269v-548h111v-152h-395v152h110v397zM252 76v556h-120v-8h111v-548h-125v-8h261v8h-127z" />
    <glyph glyph-name="two" unicode="2" horiz-adv-x="575" 
d="M34 27l263 385q14 19 22.5 42t10.5 45t-13 37t-46 15q-69 0 -69 -68h-152q-2 108 61.5 167t162.5 61q73 2 127.5 -31t79.5 -84t20.5 -116t-42.5 -124l-141 -196h208v-160h-492v27zM179 85l206 298q40 57 41.5 115t-39 97.5t-115.5 40.5q-108 2 -141 -89h11q17 42 51.5 62
t78.5 18q71 -1 108.5 -38.5t35.5 -92t-40 -108.5l-214 -313h288v10h-271z" />
    <glyph glyph-name="three" unicode="3" horiz-adv-x="576" 
d="M41 214h157q1 -69 79 -69q36 0 56 23.5t21 60.5q0 36 -17 58t-43 28t-57 8.5t-60 -0.5v24l93 194h-202v159h445v-26l-129 -236q143 -37 143 -208q0 -97 -65.5 -170.5t-180.5 -73.5q-70 0 -125 30q-52 29 -83.5 80.5t-31.5 117.5zM135 627v-10h253l-116 -226
q75 0 118 -40.5t45 -121.5q-2 -67 -47.5 -113t-111.5 -46q-48 0 -85.5 22t-52.5 60h-11q17 -42 57.5 -67.5t91.5 -25.5q70 0 118 50t50 120q0 75 -43.5 122t-115.5 47l119 229h-269z" />
    <glyph glyph-name="four" unicode="4" horiz-adv-x="604" 
d="M493 133v-133h-166v133h-305v78l279 489h192v-421h60v-146h-60zM404 67h10v133h75v8h-75v422h-69l-237 -419v-11h296v-133zM345 491l-112 -212h101v105l13 107h-2zM404 208h-286l232 414h54v-414z" />
    <glyph glyph-name="five" unicode="5" horiz-adv-x="585" 
d="M217 548v-89q67 5 120 -2t101 -30t74.5 -72.5t26.5 -124.5q0 -98 -65.5 -171t-180.5 -73q-75 0 -125 29q-51 29 -83 81t-33 118h159q1 -68 78 -68q36 0 56 23.5t21 60.5q-2 34 -24.5 54.5t-61.5 26t-72 6t-79 -3t-60 -3.5v390h436v-152h-288zM441 629h-304v-243
q47 5 101 2.5t99.5 -11.5t76.5 -46t32 -101q0 -66 -46.5 -113t-112.5 -47q-48 -1 -85.5 22t-51.5 61h-10q15 -42 55 -67t92 -24q71 0 119.5 49t48.5 119q0 38 -11 67t-27 47t-43.5 30t-50.5 17t-59.5 6.5t-58.5 0.5t-59 -3v225h295v9z" />
    <glyph glyph-name="six" unicode="6" horiz-adv-x="617" 
d="M492 230q0 76 -51.5 120t-129.5 44q-73 0 -122 -36l-2 1q24 41 79.5 135.5t85.5 146.5h-10l-189 -320q-25 -46 -25 -91q0 -76 52 -121.5t131 -45.5q77 0 129 45.5t52 121.5zM281 706h199l-148 -252q111 8 178.5 -53t67.5 -171q0 -121 -73 -181t-194 -60q-122 0 -195.5 60
t-73.5 181q0 81 37 137zM311 141q87 0 87 89q0 88 -87 88q-90 0 -90 -88q0 -89 90 -89zM311 385q74 0 122.5 -41.5t48.5 -113.5q0 -73 -48.5 -115t-122.5 -42q-76 0 -124.5 42t-48.5 115q0 72 48.5 113.5t124.5 41.5z" />
    <glyph glyph-name="seven" unicode="7" horiz-adv-x="549" 
d="M545 700v-27l-283 -673h-184l225 540h-269v160h511zM190 65h11l235 560h-343v-9h328z" />
    <glyph glyph-name="eight" unicode="8" horiz-adv-x="624" 
d="M490 398q40 -30 63.5 -72.5t27.5 -87.5t-11.5 -90t-47.5 -80.5t-86.5 -57.5t-122.5 -22t-123 22t-87 57.5t-47.5 81t-11.5 90.5t27.5 88t64.5 72q-37 42 -44.5 96.5t12.5 102.5t75 81t134 33q78 0 133 -33.5t76 -82t13.5 -103t-45.5 -95.5zM265 389v-2q-46 -10 -78.5 -38
t-45 -64t-8 -75.5t24.5 -72t61 -54t94 -21.5q54 0 94.5 21.5t60.5 54t24 72.5t-9.5 76t-46 64t-79.5 38q52 13 78 54.5t20.5 85.5t-43.5 78.5t-99 34.5q-49 0 -84.5 -22t-47.5 -55.5t-9 -68.5t28 -64.5t65 -41.5zM313 71q-41 0 -74.5 13.5t-54 35.5t-31.5 50t-11 57t11 57
t31.5 50t54 35.5t74.5 13.5q54 0 94 -23t58 -58t18 -75t-18 -75t-58 -58t-94 -23zM313 391q-36 0 -64.5 13t-43 34.5t-21.5 47t0 51t21.5 47t43 34.5t64.5 13t64.5 -13t43 -34.5t21.5 -47t0 -51t-21.5 -47t-43 -34.5t-64.5 -13zM313 139q43 0 67.5 27t24.5 60t-24.5 60
t-67.5 27t-67 -27t-24 -60t24 -60t67 -27zM313 462q36 0 51 25.5t0 51t-51 25.5q-37 0 -52.5 -25.5t0 -51t52.5 -25.5z" />
    <glyph glyph-name="nine" unicode="9" horiz-adv-x="616" 
d="M124 470q0 -77 51.5 -121.5t129.5 -44.5q68 0 123 38l1 -1l-166 -284h12l187 322q25 43 25 91q0 76 -51.5 120.5t-130.5 44.5q-78 0 -129.5 -44.5t-51.5 -120.5zM333 -7h-199l149 253q-111 -8 -177.5 52.5t-66.5 171.5q0 119 72.5 179.5t193.5 60.5t195 -61t74 -179
q0 -84 -37 -138zM305 557q-88 0 -88 -87q0 -88 88 -88t88 88q0 87 -88 87zM305 314q-75 0 -124 41.5t-49 114.5q0 72 49 114t124 42t123.5 -42t48.5 -114q0 -73 -48.5 -114.5t-123.5 -41.5z" />
    <glyph glyph-name="colon" unicode=":" horiz-adv-x="221" 
d="M110 -6q-14 0 -24.5 9.5t-10.5 23.5q0 15 10 24t25 9t25.5 -9t10.5 -24q0 -14 -10.5 -23.5t-25.5 -9.5zM110 338q-14 0 -24.5 9.5t-10.5 23.5q0 15 10 24t25 9t25.5 -9t10.5 -24q0 -14 -10.5 -23.5t-25.5 -9.5z" />
    <glyph glyph-name="semicolon" unicode=";" horiz-adv-x="227" 
d="M111 340q-14 0 -23 8.5t-9 22.5t9 22.5t23 8.5q15 0 24.5 -8.5t9.5 -22.5t-9.5 -22.5t-24.5 -8.5zM146 15q-2 -4 -2.5 -10t-2.5 -10l-23 -68h-32l19 64q-24 5 -24 30q0 14 9 22t24 8q27 0 32 -24v-12z" />
    <glyph glyph-name="less" unicode="&#x3c;" horiz-adv-x="516" 
d="M54 330v37l379 169v-45l-321 -143l321 -151v-44z" />
    <glyph glyph-name="equal" unicode="=" horiz-adv-x="531" 
d="M80 219v41h371v-41h-371zM80 362v41h371v-41h-371z" />
    <glyph glyph-name="greater" unicode="&#x3e;" horiz-adv-x="516" 
d="M462 367v-37l-379 -177v46l321 150l-321 140v47z" />
    <glyph glyph-name="question" unicode="?" horiz-adv-x="497" 
d="M266 129h-49q-1 72 16.5 124t44 81.5t53.5 53.5t47 55.5t22 72.5q3 71 -41.5 105.5t-111.5 34.5q-66 0 -112 -29t-46 -92h-44q0 84 57.5 126t145.5 42t149.5 -50t52.5 -143q-3 -44 -24.5 -79.5t-49 -61.5t-54 -55t-43 -76t-13.5 -109zM241 -12q-14 0 -24 9t-10 23t9.5 22
t24.5 8t24 -8t9 -22t-9.5 -23t-23.5 -9z" />
    <glyph glyph-name="at" unicode="@" horiz-adv-x="935" 
d="M555 65v7q-22 -38 -58.5 -59t-78.5 -21q-105 -2 -156 70t-41 180q12 123 96 188.5t209 63.5q47 0 105 -20.5t91 -49.5l-25 -272q-4 -53 19 -53q28 0 51 42.5t29 105.5q15 152 -61 235.5t-230 83.5q-145 0 -245 -89.5t-114 -234.5q-9 -92 18 -164.5t80.5 -110t128.5 -44
t162 32.5l-8 -95q-86 -27 -162 -28t-138.5 30t-105.5 82t-63.5 128t-11.5 169q18 186 149.5 305t318.5 119q195 0 297.5 -113.5t84.5 -305.5q-11 -129 -84 -197.5t-161 -68.5q-46 0 -72.5 22t-23.5 62zM696 38l1 9q-46 -6 -63 25.5t-12 79.5l25 234q-55 32 -114 39.5
t-108.5 -9t-83.5 -63t-40 -114.5q-6 -64 18.5 -112.5t72 -62t114.5 22.5l-5 8q-63 -34 -106.5 -21t-66 57.5t-18.5 106.5q6 64 38 108.5t78.5 61t102 10.5t107.5 -37l-23 -227q-7 -53 12.5 -87.5t70.5 -28.5zM540 225l11 120q-32 14 -58 11q-42 -1 -71 -32t-34 -82
q-4 -44 13.5 -73.5t58.5 -27.5q33 0 54.5 25t25.5 59z" />
    <glyph glyph-name="A" unicode="A" horiz-adv-x="686" 
d="M154 178l188 407h1l190 -407h-379zM522 0l-41 88h-276l-41 -88h-175v26l315 683h77l316 -683v-26h-175zM596 68l-251 539h-6l-249 -539h13l47 99h387l46 -99h13zM416 249l-74 161l-72 -161h146z" />
    <glyph glyph-name="B" unicode="B" horiz-adv-x="660" 
d="M169 616h204q51 0 88.5 -39t37.5 -92q0 -54 -36.5 -92t-89.5 -38h-204v261zM592 485q0 -33 -14.5 -67t-40.5 -54q84 -43 84 -143q0 -96 -57.5 -158.5t-160.5 -62.5h-328v700h299q91 0 154.5 -62.5t63.5 -152.5zM373 625h-214v-551h242q56 0 96.5 45t40.5 102
q0 50 -34.5 89.5t-83.5 41.5v4q37 8 63 48t26 81q0 57 -39.5 98.5t-96.5 41.5zM169 346h232q52 0 89.5 -36t37.5 -89q0 -54 -38 -95.5t-89 -41.5h-232v262zM390 274h-142v-115h143q34 0 47.5 28.5t-0.5 57.5t-48 29zM360 540h-112v-111h113q20 0 34 11.5t17 27.5t0 32.5
t-17 28t-35 11.5z" />
    <glyph glyph-name="C" unicode="C" horiz-adv-x="760" 
d="M38 350q0 113 53.5 196.5t133.5 122.5t172 39q76 0 143.5 -26.5t120 -88.5t65.5 -151h-176q-36 103 -153 103q-78 0 -126 -54t-48 -141q0 -80 48.5 -137t125.5 -57q59 0 100.5 29t55.5 84h176q-10 -71 -42 -125.5t-78.5 -86.5t-100 -48t-111.5 -16q-68 0 -131 23
t-114.5 66t-82.5 112.5t-31 155.5zM623 206h-12q-65 -126 -214 -126q-104 0 -182.5 73t-78.5 197q0 125 78.5 198.5t182.5 73.5q145 0 210 -116h12q-70 125 -222 125q-109 0 -190 -76t-81 -205t81 -204.5t190 -75.5q73 0 133.5 35.5t92.5 100.5z" />
    <glyph glyph-name="D" unicode="D" horiz-adv-x="719" 
d="M75 700h264q109 0 189 -52t116 -129.5t36 -168.5t-36 -168.5t-116 -129.5t-189 -52h-264v700zM162 625v-550h175q63 0 114 23.5t82 62.5t48 88t17 101t-17 101t-48 88t-82 62.5t-114 23.5h-175zM337 86h-166v529h166q80 0 139 -39t85.5 -98t26.5 -127.5t-26.5 -127.5
t-85.5 -98t-139 -39zM254 537v-374h85q46 0 82 20.5t54.5 53.5t27.5 73t0 80t-27.5 73t-54.5 53.5t-82 20.5h-85z" />
    <glyph glyph-name="E" unicode="E" horiz-adv-x="571" 
d="M159 626v-552h294v10h-283v273h254v10h-254v249h274v10h-285zM512 700v-160h-259v-99h238v-159h-238v-123h268v-159h-446v700h437z" />
    <glyph glyph-name="F" unicode="F" horiz-adv-x="545" 
d="M482 387v-160h-225v-227h-182v700h436v-160h-254v-153h225zM444 616v9h-284v-557h11v233h243v11h-243v304h273z" />
    <glyph glyph-name="G" unicode="G" horiz-adv-x="766" 
d="M38 350q0 86 31 156t82.5 113.5t114.5 66.5t131 23q115 0 206 -63t116 -185h-176q-22 45 -56.5 64.5t-89.5 19.5q-81 0 -127.5 -55.5t-46.5 -139.5q0 -87 47.5 -139.5t126.5 -52.5q57 0 92 19t58 67h-149v155h331q7 -128 -20 -205q-36 -104 -121 -153t-191 -49
q-68 0 -131 23t-114.5 66t-82.5 113t-31 156zM466 330v-11h174q-2 -107 -69.5 -173t-173.5 -66q-114 0 -187.5 76t-73.5 194q0 117 73.5 194t187.5 77q63 0 118.5 -27.5t86.5 -79.5h12q-33 56 -92.5 86t-124.5 30q-70 0 -131 -31t-101 -96.5t-40 -152.5t40 -152.5t101 -96.5
t131 -31q108 0 181 70t73 179v11h-185z" />
    <glyph glyph-name="H" unicode="H" horiz-adv-x="732" 
d="M657 700v-700h-183v281h-216v-281h-183v700h183v-254h216v254h183zM160 68h11v289h390v-289h10v565h-10v-264h-390v264h-11v-565z" />
    <glyph glyph-name="I" unicode="I" horiz-adv-x="455" 
d="M223 83h-106v-10h220v10h-104v533h96v10h-203v-10h97v-533zM316 157h89v-157h-355v157h89v387h-82v156h341v-156h-82v-387z" />
    <glyph glyph-name="J" unicode="J" horiz-adv-x="624" 
d="M555 700v-467q0 -111 -78.5 -176t-191.5 -65q-112 0 -187 65t-75 176v91h169v-88q0 -40 26 -62t67 -22q40 0 63.5 21.5t23.5 62.5v305h-102v159h285zM111 256h-11v-20q0 -77 52 -123t130 -46q81 0 134.5 45t53.5 124v391h-133v-10h122v-381q0 -76 -49.5 -117.5
t-126.5 -41.5q-74 0 -123 42.5t-49 116.5v20z" />
    <glyph glyph-name="K" unicode="K" horiz-adv-x="722" 
d="M705 0h-207q-98 175 -153 269q-42 -2 -88 -2v-267h-182v700h182v-271q1 0 23 -0.5t31.5 0t24.5 3t24 7.5q23 12 34 40.5t28 98.5q18 73 79 109t175 10v-122q-36 2 -56.5 -8t-29.5 -41q-32 -128 -86 -185q157 -248 201 -315v-26zM608 636v10q-16 1 -29 -2.5t-22 -7
t-18.5 -16t-13.5 -17.5t-11.5 -25t-9 -25t-9.5 -29q-28 -88 -64.5 -128.5t-119.5 -40.5h-139v277h-11v-564h11v278h139q50 0 76 12l182 -290h12l-184 293q31 14 54 43t32 52.5t21 63.5q9 30 15.5 47t18.5 35.5t29 26.5t41 7z" />
    <glyph glyph-name="L" unicode="L" horiz-adv-x="526" 
d="M255 700v-539h254v-161h-434v700h180zM441 76v9h-270v547h-11v-556h281z" />
    <glyph glyph-name="M" unicode="M" horiz-adv-x="833" 
d="M415 398l279 304h64v-702h-183v312l-149 -156h-20l-148 156v-312h-183v702h66zM662 69h10v464h-14l-243 -256l-240 256h-13v-464h10v451l243 -258l247 258v-451z" />
    <glyph glyph-name="N" unicode="N" horiz-adv-x="752" 
d="M613 -1l-353 345v-344h-185v703h65l354 -346v343h183v-701h-64zM160 559v-490h12v473q118 -113 208 -203q34 -33 101 -98.5t102 -99.5h8v491h-11v-474q-208 202 -210 204q-91 93 -199 197h-11z" />
    <glyph glyph-name="O" unicode="O" horiz-adv-x="794" 
d="M126 349q0 -68 23.5 -123t61.5 -89t87 -52t99.5 -18t99.5 18t87 52t61.5 89t23.5 123q0 90 -40 156t-100.5 95.5t-131 29.5t-131 -29.5t-100.5 -95.5t-40 -156zM756 349q0 -88 -31 -159t-81.5 -114.5t-115 -67t-131.5 -23.5t-131.5 23.5t-115 67t-81.5 114.5t-31 159
t31 158.5t81.5 114t115 67t131.5 23.5t131.5 -23.5t115 -67t81.5 -114t31 -158.5zM222 349q0 -61 26 -105.5t65 -64.5t84.5 -20t84.5 20t65 64.5t26 105.5q0 60 -26 104.5t-65 64t-84.5 19.5t-84.5 -19.5t-65 -64t-26 -104.5zM659 349q0 -86 -38.5 -149t-97 -92t-126 -29.5
t-126 27.5t-97 92t-38.5 151q0 66 22.5 119t59 85.5t83.5 50t96.5 17t96.5 -18.5t83.5 -50.5t59 -85t22.5 -117.5z" />
    <glyph glyph-name="P" unicode="P" horiz-adv-x="656" 
d="M169 254h215q46 1 82 22t54.5 53.5t27 72t0 78.5t-27 71.5t-54.5 52.5t-82 20h-226v-557h11v187zM254 0h-179v700h308q69 0 123 -28.5t82 -74.5t41 -101.5t0 -111.5t-41 -102t-82 -74.5t-123 -28.5h-129v-179zM169 615h215q59 0 99.5 -36t50.5 -87t0.5 -102.5t-50 -87.5
t-100.5 -36h-215v349zM254 340h128q34 0 54.5 31t21.5 69t-19 69t-57 31h-41h-48h-39v-200z" />
    <glyph glyph-name="Q" unicode="Q" horiz-adv-x="795" 
d="M772 0h-182l-17 32q-63 -33 -136.5 -41.5t-143.5 11.5t-127.5 62.5t-92.5 116.5t-35 168q0 88 31 158.5t81.5 114t115 67t131.5 23.5t131.5 -23.5t115 -67t81.5 -114t31 -158.5q0 -117 -56 -207l72 -119v-23zM646 66h14l-61 86q70 77 70 197q0 90 -40 156t-100.5 95.5
t-131 29.5t-131 -29.5t-100.5 -95.5t-40 -156q0 -69 24 -125t63 -89.5t89.5 -51.5t102 -16.5t101 21t86.5 56.5zM222 349q0 -52 19.5 -93.5t50 -62.5t68 -31t75 0t68 31.5t50 62.5t19.5 93t-19.5 92.5t-50 61.5t-68 31t-75 0t-68 -31t-50 -61.5t-19.5 -92.5zM660 349
q0 -86 -39 -149.5t-97 -92.5t-126 -29t-126 28t-97 92t-39 151q0 66 22.5 119t59.5 85.5t84 50t96 17t96 -18.5t84 -50.5t59.5 -85t22.5 -117.5z" />
    <glyph glyph-name="R" unicode="R" horiz-adv-x="694" 
d="M168 615h215q43 0 76.5 -18t51 -46.5t26 -62.5t0.5 -68.5t-25.5 -63t-51.5 -46.5t-77 -18h-215v323zM168 281h215q3 0 10 0.5t10 0.5l130 -216h12l-101 165l-30 53q54 9 90 47t42.5 86.5t-5.5 95.5t-54.5 79t-103.5 32h-225v-557h10v214zM530 248l137 -222v-26h-200
l-120 206h-93v-206h-179v700h307q66 0 118.5 -25t82 -65t42.5 -91t6.5 -100.5t-32.5 -95.5t-69 -75zM254 367h128q34 0 54 27t21 59.5t-19 59.5t-56 27q0 1 -64 0h-64v-173z" />
    <glyph glyph-name="S" unicode="S" horiz-adv-x="641" 
d="M39 214h173q0 -25 22.5 -42.5t55 -21.5t64.5 -0.5t54.5 20t22.5 39.5q0 18 -9 29.5t-29.5 18t-39 9t-50.5 4.5q-122 9 -187 58t-67 157q-1 86 54 145t134 72.5t158 0t134 -72.5t54 -145h-170q0 43 -47.5 60t-96 -0.5t-50.5 -57.5q-3 -36 25 -50t86 -21q39 -5 59.5 -7.5
t55 -10t53 -16t42.5 -24t36 -35.5t20.5 -49t8.5 -66q0 -60 -31.5 -108t-81.5 -73t-111 -37t-121.5 -0.5t-110.5 37t-80.5 74.5t-29.5 113zM475 549h13q-22 40 -66.5 63.5t-94.5 23.5t-95.5 -14.5t-75 -51t-28.5 -85.5q1 -43 15.5 -72t43.5 -43.5t57.5 -21t72.5 -9.5
q96 -8 126 -20q67 -27 68 -110q0 -55 -45.5 -91.5t-105 -44.5t-121 11.5t-89.5 65.5h-12q21 -41 67.5 -65t99.5 -25t102.5 13.5t82 51t32.5 84.5q0 36 -12.5 61.5t-28.5 39.5t-48 23t-53 11.5t-61 5.5q-44 4 -71 9t-54.5 18.5t-40.5 40t-13 67.5q0 45 27 79t69 47.5t88 14
t87.5 -20t63.5 -56.5z" />
    <glyph glyph-name="T" unicode="T" horiz-adv-x="558" 
d="M191 540h-172v160h520v-160h-171v-540h-177v540zM275 67h10q0 181 -2 549h188v9h-385v-9h189v-549z" />
    <glyph glyph-name="U" unicode="U" 
d="M345 151q42 0 74 22.5t32 62.5v464h170v-467q0 -111 -81 -177t-195 -66q-113 0 -194.5 66t-81.5 177v467h169v-464q0 -40 32.5 -62.5t74.5 -22.5zM345 65q80 0 139 46.5t59 124.5v397h-11v-397q0 -74 -55.5 -117t-131.5 -43t-131.5 43t-55.5 117v397h-11v-397
q0 -78 59 -124.5t139 -46.5z" />
    <glyph glyph-name="V" unicode="V" horiz-adv-x="668" 
d="M559 633l-223 -518h-1l-226 518h-13l237 -540h5l233 540h-12zM169 700l164 -403h5l160 403h172v-27l-297 -681h-76l-300 681v27h172z" />
    <glyph glyph-name="W" unicode="W" horiz-adv-x="951" 
d="M439 689h72l126 -384h3l46 204l66 191h193v-28l-250 -678h-94l-126 319h-2l-117 -319h-101l-249 678v28h192l66 -191l52 -204h3zM307 98l-179 516h-14l191 -537h5l165 443l170 -443h9l182 537h-13l-172 -516h-3l-168 436h-10z" />
    <glyph glyph-name="X" unicode="X" horiz-adv-x="667" 
d="M334 383l-165 250h-11l171 -262l-197 -304h14l188 292l189 -292h12l-196 304l170 262h-11zM337 220h-6l-128 -220h-193v27l226 344l-202 302v27h186l111 -182h5l112 182h185v-27l-202 -302l227 -344v-27h-193z" />
    <glyph glyph-name="Y" unicode="Y" horiz-adv-x="637" 
d="M117 633l196 -316v-250h11v250l196 316h-13l-188 -304l-189 304h-13zM407 294v-294h-177v294l-235 379v27h193l127 -233h7l127 233h194v-27z" />
    <glyph glyph-name="Z" unicode="Z" horiz-adv-x="619" 
d="M579 700v-27l-284 -513h287v-160h-559v27l283 513h-257v160h530zM109 615h330l-287 -540h355v9h-340l287 541h-345v-10z" />
    <glyph glyph-name="bracketleft" unicode="[" horiz-adv-x="294" 
d="M246 748v-40h-106v-833h106v-43h-152v916h152z" />
    <glyph glyph-name="backslash" unicode="\" horiz-adv-x="460" 
d="M87 700l338 -699h-50l-339 699h51z" />
    <glyph glyph-name="bracketright" unicode="]" horiz-adv-x="294" 
d="M48 708v40h152v-916h-152v43h106v833h-106z" />
    <glyph glyph-name="asciicircum" unicode="^" horiz-adv-x="512" 
d="M236 698h36l171 -275h-46l-143 229l-139 -229h-46z" />
    <glyph glyph-name="underscore" unicode="_" horiz-adv-x="624" 
d="M75 -56v43h474v-43h-474z" />
    <glyph glyph-name="grave" unicode="`" horiz-adv-x="336" 
d="M232 590v-3h-44l-84 109v5l42 20z" />
    <glyph glyph-name="a" unicode="a" horiz-adv-x="557" 
d="M357 67q-17 -41 -60.5 -59.5t-94.5 -18.5q-68 0 -118 42t-52 111q-4 87 47 134.5t137 47.5q69 0 109 -30v11q0 57 -106 57q-79 0 -131 -24l-22 118q81 36 183 36q241 0 241 -190v-155q0 -18 0.5 -25t4 -16.5t12.5 -12.5t25 -3v-90q-29 -8 -55.5 -10.5t-53.5 2t-44.5 23.5
t-21.5 52zM405 189v-52q0 -50 15 -76t54 -24v7q-35 -2 -47 22.5t-12 70.5v146q0 154 -166 154q-55 0 -114 -18l3 -8q60 17 111 17q78 0 117 -34.5t39 -110.5v-84q-99 69 -169 69q-57 0 -93 -29t-36 -86q0 -51 32.5 -77t85.5 -26q66 0 113 50l-4 6q-46 -48 -109 -48
q-48 0 -78 23.5t-32 71.5q0 52 33.5 79t87.5 27q37 0 85 -21.5t84 -48.5zM323 178v8q-32 22 -77 22q-26 -2 -40.5 -16.5t-9.5 -38.5q5 -30 45 -30q30 0 56 14.5t26 40.5z" />
    <glyph glyph-name="b" unicode="b" horiz-adv-x="582" 
d="M58 17v711h168v-257q130 52 226.5 -25.5t96.5 -213.5q0 -100 -47.5 -161t-123 -78t-157 -10.5t-163.5 34.5zM148 372v298h-11v-593q83 -35 140 -35q91 0 141.5 51t50.5 142q0 84 -48.5 135t-129.5 51q-74 0 -143 -49zM291 410q79 0 123 -48t44 -127q0 -87 -47 -134
t-134 -47q-66 0 -129 30v275q61 51 143 51zM224 327v-199q155 -41 155 104q0 68 -47.5 95.5t-107.5 -0.5z" />
    <glyph glyph-name="c" unicode="c" horiz-adv-x="565" 
d="M537 292h-161q-15 42 -56.5 52t-78 -19t-36.5 -85q0 -44 22.5 -72.5t51.5 -34.5t57.5 10t39.5 52h161q-8 -70 -48.5 -119.5t-96.5 -70.5t-119 -17t-116.5 31.5t-88.5 85.5t-35 135t34.5 135t87 86t115.5 33t118.5 -15t97 -69t51.5 -118zM436 346h10q-21 37 -61.5 57.5
t-89.5 20.5q-80 0 -131.5 -51.5t-51.5 -132.5q0 -80 52 -131t133 -53q49 0 89 21t63 60h-10q-44 -71 -142 -71q-75 0 -125 49.5t-50 124.5t49.5 125t122.5 50q98 0 142 -69z" />
    <glyph glyph-name="d" unicode="d" horiz-adv-x="603" 
d="M390 61v6q-41 -80 -136 -82q-103 -2 -162 70.5t-59 182.5q0 136 99.5 211t221.5 22v257h171v-581q0 -40 7 -48q9 -9 34 -9v-92q-30 -7 -56.5 -9.5t-55.5 1t-46.5 21.5t-17.5 50zM444 131v539h-9v-300q-68 48 -150 52q-74 0 -123 -52.5t-49 -129.5q0 -81 36.5 -132.5
t115.5 -51.5q40 0 82 31l-7 6q-29 -26 -75 -26q-74 0 -108.5 48.5t-34.5 124.5q0 73 46 122t117 49q82 0 150 -52v-228q0 -42 15 -65.5t59 -23.5v9q-39 -2 -52 20t-13 60zM360 221v106q-64 29 -110 3.5t-46 -92.5q0 -44 20 -74t61 -30q34 0 54.5 26.5t20.5 60.5z" />
    <glyph glyph-name="e" unicode="e" horiz-adv-x="551" 
d="M288 492q137 -2 192 -83t23 -210h-298q5 -44 36 -60t83 -19q88 0 164 33l18 -122q-96 -45 -193 -45q-126 0 -203.5 67t-77.5 187q0 62 22.5 112t60 79.5t82 45t91.5 15.5zM438 66l-2 9q-63 -17 -117 -17q-92 0 -147 46.5t-53 139.5h322q14 76 -28 128.5t-122 52.5
q-81 0 -130 -48t-53 -129q-2 -99 55.5 -149.5t155.5 -50.5q52 0 119 18zM433 253h-314q4 73 50.5 117.5t121.5 44.5q73 0 113.5 -45t28.5 -117zM205 300h155q3 32 -18.5 47t-53.5 15q-29 0 -53.5 -16.5t-29.5 -45.5z" />
    <glyph glyph-name="f" unicode="f" horiz-adv-x="432" 
d="M108 0v359h-81v123h84v49q1 61 20 103.5t50 64t74.5 29.5t89 4t98.5 -18l-17 -125q-146 43 -146 -61v-46h139v-123h-139v-359h-172zM84 425v-9h105v-360h11v360h164v9h-164v103q0 166 178 132v7q-88 19 -138.5 -15t-50.5 -124v-103h-105z" />
    <glyph glyph-name="g" unicode="g" horiz-adv-x="582" 
d="M361 -3v8q-139 -57 -233 12.5t-94 220.5q2 133 80 194t200 59q104 0 210 -44v-450q0 -96 -42 -159.5t-108 -86.5t-147 -14t-158 50l20 129q43 -22 87 -33t87.5 -9.5t70.5 32.5t27 91zM437 101v-131q0 -78 -50 -121.5t-131 -43.5q-58 0 -119 29l-3 -9q62 -30 122 -30
q86 0 138.5 46.5t52.5 128.5v423q-68 33 -145 33q-87 0 -137 -49t-50 -136q0 -85 41.5 -137.5t121.5 -52.5q86 0 159 50zM278 60q-76 0 -114.5 49.5t-38.5 131.5q0 84 46.5 130t130.5 46q68 0 135 -29v-277q-73 -51 -159 -51zM358 145v199q-37 8 -60 8q-93 0 -93 -111
q-2 -74 44.5 -100t108.5 4z" />
    <glyph glyph-name="h" unicode="h" horiz-adv-x="621" 
d="M60 727h169v-262q47 28 136 28q101 0 144 -57t43 -160v-125q0 -32 7.5 -43.5t36.5 -11.5v-94q-36 -9 -70.5 -10.5t-69.5 5.5t-56.5 33t-21.5 69v177q2 55 -35 74t-75.5 -4.5t-38.5 -72.5v-273h-169v727zM150 293v380h-10v-616h11v178q0 72 50.5 130t122.5 58t105 -37
t33 -110v-125q0 -58 14.5 -84t66.5 -24v9q-26 -1 -41.5 5t-21.5 22.5t-7 29.5t-1 42v125q0 157 -148 157q-61 0 -109.5 -41t-64.5 -99z" />
    <glyph glyph-name="i" unicode="i" horiz-adv-x="291" 
d="M49 612q0 45 30 70.5t66.5 25.5t66.5 -25.5t30 -70.5q0 -47 -30 -74t-66.5 -27t-66.5 27t-30 74zM231 474v-474h-171v474h171zM149 419h-8v-361h8v361zM135 609q0 -10 10 -10t10 10t-10 10t-10 -10z" />
    <glyph glyph-name="j" unicode="j" horiz-adv-x="285" 
d="M60 482h165v-542q0 -131 -67 -174.5t-190 -21.5l5 130q51 -7 69 7t18 62v539zM45 612q0 45 30.5 70.5t67.5 25.5t67.5 -25.5t30.5 -70.5q0 -47 -30.5 -74t-67.5 -27t-67.5 27t-30.5 74zM147 419h-9v-443q0 -31 -0.5 -44t-3 -38.5t-9 -37t-18 -25.5t-31 -19.5t-45.5 -4.5
v-11q29 0 49.5 6t33 21t19.5 27.5t10 39t3.5 40.5t0.5 46v443zM132 610q0 -10 10 -10t10 10t-10 10t-10 -10z" />
    <glyph glyph-name="k" unicode="k" horiz-adv-x="575" 
d="M230 313h21q29 0 50.5 9.5t33 24t18.5 38t9 45.5t2 52h159q9 -177 -103 -242l129 -223v-17h-174l-102 186q-15 -5 -28 -5h-15v-181h-170v698h170v-385zM151 641h-8v-580h8v182h61q68 0 105 13l111 -195h11l-111 198q108 34 119 160h-8q-17 -168 -227 -168h-61v390z" />
    <glyph glyph-name="l" unicode="l" horiz-adv-x="325" 
d="M55 728h169v-536q0 -48 21.5 -64.5t62.5 -10.5l6 -125q-259 -47 -259 197v539zM146 670h-11v-444q0 -29 1 -45.5t4 -41t10.5 -38t20.5 -27t34 -19.5t49 -5v8q-26 0 -45.5 6t-31 19.5t-18 25.5t-9.5 36t-3.5 38t-0.5 43v444z" />
    <glyph glyph-name="m" unicode="m" horiz-adv-x="919" 
d="M243 273v-273h-170v333q0 18 -0.5 25t-4 16.5t-11.5 12.5t-23 3v92q31 11 64 15t68.5 -5t54.5 -35q58 41 143.5 42t137.5 -48q64 48 155 48q86 0 141 -58t53 -165v-125q0 -32 7.5 -43.5t36.5 -11.5v-94q-36 -9 -70.5 -10.5t-69 5.5t-56 33t-21.5 69v177q2 52 -30 72.5
t-64.5 -1t-32.5 -71.5v-276h-169v276q1 54 -33.5 74t-70 -3t-35.5 -74zM461 276v-219h8v197q0 72 44.5 120.5t115.5 48.5q65 1 99 -36t34 -99v-167q0 -39 15 -58.5t57 -17.5v8q-38 0 -51 16t-13 52v167q0 67 -36 106t-105 39q-59 -2 -102 -34.5t-58 -87.5q-16 125 -146 120
q-57 0 -100 -33t-61 -87v65q0 42 -15.5 56.5t-57.5 12.5v-8q36 2 50.5 -11t14.5 -50v-319h8v199q2 69 47.5 117t113.5 50q73 0 105.5 -36.5t32.5 -110.5z" />
    <glyph glyph-name="n" unicode="n" horiz-adv-x="634" 
d="M244 273v-273h-171v333q0 19 -0.5 25.5t-4 16t-12 12.5t-24.5 3v92q155 36 192 -22q39 36 118 36q103 0 163.5 -59t58.5 -161v-125q0 -32 8 -43.5t38 -11.5v-94q-37 -9 -71.5 -10.5t-69 5.5t-55.5 33t-21 69v177q1 54 -36 74.5t-75 -3t-38 -74.5zM89 441v-7
q37 2 50.5 -10t13.5 -48v-319h8v199q0 72 51.5 119.5t123.5 47.5q68 0 103.5 -39.5t35.5 -107.5v-125q0 -30 2 -46t9 -33t23.5 -23.5t44.5 -5.5v7q-25 -1 -40 5.5t-21.5 22.5t-8 31t-1.5 42v125q0 72 -37.5 114.5t-109.5 40.5q-62 0 -108.5 -31.5t-66.5 -88.5v65
q0 41 -16 54t-56 11z" />
    <glyph glyph-name="o" unicode="o" horiz-adv-x="577" 
d="M545 240q0 -81 -38 -140.5t-95 -86.5t-123.5 -26.5t-123.5 27t-95 86t-38 140.5t38 141t95 87t123.5 27t123.5 -27t95 -87t38 -141zM455 240q0 -76 -46 -125t-120 -49t-121 49t-47 125t47 125.5t121 49.5q75 0 120.5 -49t45.5 -126zM465 240q0 81 -49 133t-127 52
q-80 0 -129 -52t-49 -133q0 -80 50 -132t128 -52t127 52t49 132zM202 240q0 -50 27.5 -78t60 -28t60 28t27.5 78t-27.5 78.5t-60 28.5t-60 -28.5t-27.5 -78.5z" />
    <glyph glyph-name="p" unicode="p" horiz-adv-x="599" 
d="M213 419v-5q17 38 56 59.5t83 21.5q101 -2 157.5 -74.5t56.5 -177.5q0 -65 -27 -121t-71.5 -89t-102 -42.5t-119.5 18.5v-257h-171v581q0 39 -7 47q-9 10 -34 10v92q27 6 54 8.5t57.5 -0.5t49 -21t18.5 -50zM153 353v-543h11v296q64 -43 147 -48q80 0 129 55t47 138
q0 77 -38.5 125.5t-113.5 48.5q-46 0 -79 -33l6 -5q33 27 73 27q70 0 106 -45t36 -118q0 -78 -45.5 -130t-120.5 -52q-84 0 -147 50v234q0 45 -14.5 67t-58.5 20v-9q38 2 50 -18t12 -60zM240 259v-106q63 -30 109 -4.5t46 94.5q0 40 -22 72t-59 32q-34 0 -54 -26.5
t-20 -61.5z" />
    <glyph glyph-name="q" unicode="q" horiz-adv-x="581" 
d="M523 463v-711h-169v256q-131 -50 -226 27.5t-95 215.5q0 81 32 136t82.5 80t116.5 31t130.5 -3.5t128.5 -31.5zM434 108v-299h11v594q-72 33 -142 33q-91 0 -141.5 -50t-50.5 -141q0 -80 48 -133t130 -53q75 0 145 49zM289 69q-78 0 -122.5 49.5t-44.5 126.5
q0 86 47 133.5t134 47.5q68 0 131 -28v-277q-70 -52 -145 -52zM357 154v198q-155 41 -155 -101q0 -70 47 -98t108 1z" />
    <glyph glyph-name="r" unicode="r" horiz-adv-x="472" 
d="M466 465l-34 -135q-42 23 -84 23.5t-73.5 -30.5t-31.5 -82v-241h-166v333q0 22 -2 32t-12.5 17.5t-31.5 7.5v92q41 19 99 14.5t89 -39.5q111 85 247 8zM154 346v-289h11v202q0 66 56 116t122 50q32 0 50 -8l2 11q-26 8 -52 8q-56 0 -108 -36.5t-70 -88.5v35q0 32 -1.5 47
t-8.5 30t-23 20t-44 4v-11q45 5 57 -18.5t9 -71.5z" />
    <glyph glyph-name="s" unicode="s" horiz-adv-x="517" 
d="M34 154h167q0 -25 28 -35t56 -1t28 30q0 14 -8.5 21.5t-17.5 9.5t-27 4q-37 4 -61 8t-57.5 15t-53.5 25.5t-34.5 41t-14.5 60.5q0 63 45.5 105t110 51t128.5 -1.5t107 -53.5t40 -104h-147q0 23 -28 32t-56 0t-28 -29q0 -10 4.5 -16.5t15.5 -10t17 -4.5t20 -3
q38 -3 63.5 -6.5t57.5 -13.5t51 -25t32 -42t12 -64q-2 -81 -66.5 -123t-152.5 -42q-46 0 -84.5 8t-73 26t-54 53t-19.5 84zM135 99h-11q34 -59 134 -59q54 0 99.5 30t45.5 83q1 22 -7 38t-18.5 25t-32.5 15t-36.5 8.5t-43.5 5.5q-24 3 -38.5 5.5t-35 9t-31.5 15t-20 23.5
t-10 35q-2 50 39.5 72.5t95.5 22.5q87 0 121 -49h10q-16 30 -53.5 43.5t-77.5 13.5q-58 0 -102 -25t-42 -79q1 -26 12 -44t32.5 -27.5t41.5 -14t50 -9.5q5 -1 8 -1q62 -5 95 -21t33 -61q0 -48 -42.5 -76.5t-92.5 -28.5q-87 0 -123 50z" />
    <glyph glyph-name="t" unicode="t" horiz-adv-x="460" 
d="M270 630v-148h145v-123h-145v-164q0 -33 15 -52t39.5 -23t49 -1t49.5 12l17 -125q-67 -18 -125.5 -18.5t-108 17t-78 64.5t-28.5 120v170l-83 14v109h83l20 148h150zM74 425v-11h107v-219q0 -90 52.5 -123.5t139.5 -18.5v10q-82 -17 -131.5 15.5t-49.5 116.5v219h167v11
h-167v148h-11v-148h-107z" />
    <glyph glyph-name="u" unicode="u" horiz-adv-x="609" 
d="M366 210v272h168v-332q0 -19 0.5 -26t4 -16.5t12.5 -12.5t25 -3v-89q-34 -13 -66 -18.5t-68 3.5t-53 40q-52 -43 -138 -43q-95 0 -147.5 63t-50.5 160v274h171v-274q-2 -40 19 -61.5t52 -21.5q30 0 50.5 22.5t20.5 62.5zM518 44v9q-34 -5 -47.5 9.5t-13.5 51.5v302h-11
v-176q0 -75 -50 -125.5t-126 -50.5q-62 0 -95 39t-33 105v209h-10v-209q0 -71 35.5 -111.5t102.5 -40.5q66 0 112.5 33t63.5 92v-67q0 -41 16.5 -58t55.5 -12z" />
    <glyph glyph-name="v" unicode="v" horiz-adv-x="547" 
d="M304 -12h-68l-242 475v19h182l92 -212h2l94 212h183v-19zM441 425h-10l-161 -326l-162 326h-10l167 -340h8z" />
    <glyph glyph-name="w" unicode="w" horiz-adv-x="753" 
d="M259 -12h-58l-203 475v19h181l43 -117l28 -86h3l87 192h65l84 -192h3l28 86l44 117h185v-19l-208 -475h-57l-110 205zM112 425h-11l130 -324h8l134 238l130 -238h9l129 324h-10l-125 -312l-128 239h-10l-132 -239z" />
    <glyph glyph-name="x" unicode="x" horiz-adv-x="538" 
d="M277 124h-6l-80 -124h-181v17l166 239l-142 207v19h165l70 -106h2l66 106h173v-19l-144 -218l158 -228v-17h-170zM391 425h-11l-109 -163l-109 163h-11l115 -171l-133 -197h13l125 185l125 -185h11l-130 197z" />
    <glyph glyph-name="y" unicode="y" horiz-adv-x="562" 
d="M552 463l-201 -517q-36 -90 -76.5 -135t-100.5 -55.5t-140 28.5l16 109q57 -23 90 -7.5t52 74.5l14 40l-207 463v19h182l104 -284h6l89 284h172v-19zM453 425h-13l-151 -406l-172 406h-11l178 -420q-3 -7 -10.5 -27.5t-12.5 -31.5q-29 -73 -46 -93q-36 -43 -112 -28
l-2 -9q20 -5 37.5 -6t32 4t25.5 10t21.5 18.5t16.5 20.5t15 26t12 26t11 28q34 88 95 252.5t86 229.5z" />
    <glyph glyph-name="z" unicode="z" horiz-adv-x="486" 
d="M448 482v-19l-170 -312h170v-151h-420v17l172 324h-156v141h404zM101 417v-10h226l-192 -333v-5h256v10h-241l192 332v6h-241z" />
    <glyph glyph-name="braceleft" unicode="{" horiz-adv-x="294" 
d="M246 757v-38q-52 0 -74 -20t-22 -72v-200q0 -102 -56 -128q56 -25 56 -129v-204q0 -57 20.5 -73.5t75.5 -16.5v-41q-76 0 -109 27t-33 103v202q0 104 -58 113v37q58 9 58 114v197q0 75 33.5 102t108.5 27z" />
    <glyph glyph-name="bar" unicode="|" horiz-adv-x="236" 
d="M96 698h44v-774h-44v774z" />
    <glyph glyph-name="braceright" unicode="}" horiz-adv-x="291" 
d="M48 719v38q75 0 108.5 -27t33.5 -102v-197q0 -21 1.5 -35.5t6 -33.5t16.5 -30.5t31 -14.5v-37q-55 -9 -55 -113v-202q0 -76 -33 -103t-109 -27v41q52 -1 74 18.5t22 71.5v204q0 104 56 129q-56 26 -56 128v200q0 52 -22 72t-74 20z" />
    <glyph glyph-name="asciitilde" unicode="~" horiz-adv-x="617" 
d="M107 302l-32 17q23 50 65 71.5t89 14.5t92 -37q139 -95 190 24q7 -4 17 -8t17 -8q-24 -57 -64 -78.5t-83.5 -12.5t-92.5 42q-27 18 -54 27.5t-54 9.5t-51 -15.5t-39 -46.5z" />
    <glyph glyph-name="exclamdown" unicode="&#xa1;" horiz-adv-x="225" 
d="M114 488q14 0 23 -8.5t9 -22.5q0 -31 -32 -31q-15 0 -24.5 8t-9.5 23q0 14 9.5 22.5t24.5 8.5zM137 347l3 -572h-54l2 572h49z" />
    <glyph glyph-name="cent" unicode="&#xa2;" horiz-adv-x="605" 
d="M557 292h-161q-10 23 -27 37l-92 -187q31 -20 68.5 -5t50.5 58h161q-8 -64 -44 -112.5t-86 -69.5t-108 -26t-110 18l-33 -66h-38l40 80q-125 68 -125 221q0 61 22.5 111t58.5 80t82.5 48t94.5 16t94 -16l35 69h38l-41 -82q103 -54 120 -174zM225 240q0 -44 25 -76l88 179
q-42 9 -77.5 -19t-35.5 -84zM456 346h10q-21 37 -61.5 57.5t-89.5 20.5q-80 0 -131.5 -51.5t-51.5 -132.5q0 -80 52 -131t133 -53q49 0 89 21t63 60h-10q-44 -71 -142 -71q-75 0 -125 49.5t-50 124.5t49.5 125t122.5 50q98 0 142 -69z" />
    <glyph glyph-name="sterling" unicode="&#xa3;" horiz-adv-x="676" 
d="M39 331v45h74q-15 123 28 200q36 68 109 100t166 32q104 0 190 -42l-53 -138q-48 26 -129 26q-49 -2 -80 -17t-42.5 -39t-15 -55.5t1.5 -67.5h166v-44h-161l6 -53q3 -42 -7 -78q-16 -44 -28 -61q24 14 56 14t69 -7t52 -7q28 0 41 18t7 65h142q17 -103 -18.5 -165.5
t-134.5 -62.5q-21 0 -61 7t-73.5 12.5t-68 3.5t-52.5 -16h-175v15q69 61 81 143t-8 155q-1 11 -2 17h-80zM519 614l3 9q-46 12 -94.5 15t-101 -10t-82.5 -45q-18 -20 -29.5 -43.5t-16.5 -39t-5 -48.5t1 -44.5t5 -53.5q11 -115 4 -169q-8 -60 -34 -115l-3 -9l10 3q29 9 69 14
q79 10 132 -6q33 -10 65 -11t60.5 7t46 33t16.5 64h-9q1 -36 -15.5 -58.5t-44 -29.5t-57 -6t-59.5 10q-69 20 -198 -5q21 49 28.5 102t6 89.5t-8.5 87.5q-5 58 -6 85t9.5 67t38.5 69q28 31 79 43.5t98 9.5t92 -15z" />
    <glyph glyph-name="currency" unicode="&#xa4;" horiz-adv-x="541" 
d="M441 143l-61 61q-49 -34 -110.5 -34.5t-108.5 34.5l-61 -61l-29 29l60 60q-37 48 -37 108t35 105l-58 59l29 29l57 -58q50 36 112.5 35t111.5 -37l60 60l29 -29l-59 -59q33 -49 33 -105q0 -62 -35 -107l61 -61zM405 340q0 50 -28 84t-67.5 42t-79 0t-67.5 -42t-28 -84
t28 -84t67.5 -42t79 0t67.5 42t28 84z" />
    <glyph glyph-name="yen" unicode="&#xa5;" horiz-adv-x="665" 
d="M154 632l173 -315v-249h11v249l173 315h-13l-166 -303l-165 303h-13zM109 328h117l-194 344v28h194l104 -232h6l104 232h193v-28l-194 -344h117v-26h-130l-5 -8v-74h135v-28h-135v-192h-177v192h-135v28h135v74l-4 8h-131v26z" />
    <glyph glyph-name="brokenbar" unicode="&#xa6;" horiz-adv-x="240" 
d="M98 698h44v-300h-44v300zM98 294h44v-304h-44v304z" />
    <glyph glyph-name="section" unicode="&#xa7;" horiz-adv-x="650" 
d="M333 228l72 -9q37 24 37 63q0 59 -139 69q-25 0 -45 4q-39 -23 -39 -57q0 -62 114 -70zM480 572h10q-13 44 -65 63t-110 19q-74 0 -127 -32t-53 -99q0 -49 40.5 -75.5t92.5 -32.5t115 -18t93 -32q30 -19 38 -51.5t-3.5 -64t-34.5 -56.5l9 -4q35 37 40.5 85.5t-28.5 86.5
q-24 23 -70 35.5t-92.5 18.5t-90.5 15.5t-71.5 32t-27.5 60.5q0 64 49.5 93t120.5 29q53 0 102.5 -16.5t62.5 -56.5zM152 -5h-10q16 -38 65 -60q38 -17 90.5 -20.5t102.5 6.5t84.5 42t34.5 81q0 48 -40 74.5t-91.5 32.5t-113.5 17.5t-92 31.5t-37.5 53.5t4 66t35.5 56.5
l-10 4q-22 -25 -33.5 -55t-7.5 -63t28 -56q24 -24 69.5 -37t91.5 -18t89.5 -13.5t71 -31.5t27.5 -62q0 -53 -48 -87q-52 -34 -135 -34q-141 0 -175 72zM124 400q-67 46 -67 123q0 94 75.5 144.5t186.5 50.5q107 0 183 -51t74 -144h-164q0 28 -25.5 43t-63.5 15
q-37 0 -65 -12.5t-28 -41.5q0 -27 24.5 -38.5t78.5 -15.5q48 -4 83.5 -9.5t72.5 -18.5t60 -32.5t37.5 -51.5t14.5 -74q0 -70 -55 -119q55 -42 55 -126q0 -60 -40.5 -104t-101.5 -65t-132 -21q-116 0 -196 50.5t-80 145.5h166q0 -29 32 -45t75 -16q41 0 72 14.5t31 40.5
q0 20 -11 33t-34 19t-37 7.5t-42 3.5q-106 7 -176 47.5t-70 125.5q0 74 67 122z" />
    <glyph glyph-name="dieresis" unicode="&#xa8;" horiz-adv-x="512" 
d="M168 643q-15 0 -24.5 9t-9.5 22q0 15 9.5 24t24.5 9t24.5 -9t9.5 -24q0 -13 -10 -22t-24 -9zM387 643q-15 0 -24.5 9t-9.5 22q0 15 9.5 24t24.5 9t24.5 -9t9.5 -24q0 -13 -10 -22t-24 -9z" />
    <glyph glyph-name="copyright" unicode="&#xa9;" horiz-adv-x="801" 
d="M737 347q0 -82 -29 -148t-76 -106.5t-107.5 -62.5t-124 -22t-124 22t-107.5 62.5t-76 106.5t-29 148t29 148t76 106.5t107.5 62.5t124 22t124 -22t107.5 -62.5t76 -106.5t29 -148zM556 410l-33 -3q-17 58 -78.5 73t-116 -23t-54.5 -111q0 -59 38 -95.5t96 -38.5
q40 -1 73 20t47 61l33 -3q-12 -40 -40.5 -67t-64 -37t-74.5 -5t-70.5 24.5t-52 56t-20.5 84.5q0 56 28.5 97.5t71 56.5t87 13.5t81 -29.5t49.5 -74zM103 347q0 -73 25.5 -132.5t67.5 -96t95.5 -56.5t109 -20t109 20t95.5 56.5t67.5 96t25.5 132.5t-25.5 132.5t-67.5 96
t-95.5 56t-109 19.5t-109 -19.5t-95.5 -56t-67.5 -96t-25.5 -132.5z" />
    <glyph glyph-name="ordfeminine" unicode="&#xaa;" horiz-adv-x="481" 
d="M337 403q-38 -65 -142 -65q-52 0 -89.5 30t-37.5 83q0 58 41 89t99 31q70 -2 125 -30v37q0 88 -118 88q-62 0 -106 -27l-10 35q54 31 120 31q70 0 112 -31t42 -96v-168q0 -25 9 -33.5t32 -5.5l3 -30q-38 -7 -60 7t-20 55zM88 219v40h315v-40h-315zM332 449v56
q-54 30 -119 30q-44 0 -74 -20.5t-30 -62.5q0 -37 26 -57t65 -20q45 0 83 18.5t49 55.5z" />
    <glyph glyph-name="guillemotleft" unicode="&#xab;" horiz-adv-x="456" 
d="M230 547l-107 -201l107 -199l-39 -13l-127 212l127 213zM384 547l-107 -201l107 -199l-39 -13l-127 212l127 213z" />
    <glyph glyph-name="logicalnot" unicode="&#xac;" horiz-adv-x="554" 
d="M84 324v43h390v-224h-41v181h-349z" />
    <glyph glyph-name="registered" unicode="&#xae;" horiz-adv-x="799" 
d="M735 350q0 -82 -29 -148t-76 -106.5t-107.5 -62.5t-123 -22t-123 22t-107.5 62.5t-76 106.5t-29 148t29 148t76 106.5t107.5 62.5t123 22t123 -22t107.5 -62.5t76 -106.5t29 -148zM453 308l96 -119v-4h-37l-94 119h-87v-119h-34v328h129q49 0 80.5 -28.5t31.5 -76.5
q0 -40 -23.5 -67t-61.5 -33zM331 482v-148h93q35 0 57.5 20t22.5 54q0 33 -23 53.5t-57 20.5h-93zM102 350q0 -73 25.5 -132.5t67.5 -96t95.5 -56.5t109 -20t109 20t95.5 56.5t67.5 96t25.5 132.5t-25.5 132.5t-67.5 96t-95.5 56t-109 19.5t-109 -19.5t-95.5 -56t-67.5 -96
t-25.5 -132.5z" />
    <glyph glyph-name="macron" unicode="&#xaf;" horiz-adv-x="499" 
d="M97 656v41h286v-41h-286z" />
    <glyph glyph-name="degree" unicode="&#xb0;" horiz-adv-x="433" 
d="M372 559q0 -41 -17 -72.5t-44.5 -48t-60.5 -24t-66.5 0.5t-61 24.5t-44.5 48t-17 71.5t17 71.5t44.5 48t60.5 24t66.5 0t61 -24t44.5 -48t17 -71.5zM99 559q0 -43 24 -72t58.5 -36t69 0t58.5 36t24 72q0 53 -36.5 83t-80.5 30t-80.5 -30t-36.5 -83z" />
    <glyph glyph-name="plusminus" unicode="&#xb1;" horiz-adv-x="528" 
d="M93 345v40h152v152h40v-152h152v-40h-152v-161h-40v161h-152zM82 54v43h363v-43h-363z" />
    <glyph glyph-name="twosuperior" unicode="&#xb2;" horiz-adv-x="416" 
d="M339 416v-36h-266v9l182 202q30 31 36 66.5t-16.5 60.5t-68.5 25q-81 0 -89 -74h-34q6 107 123 107q59 0 91.5 -33.5t29.5 -81.5t-40 -89l-144 -156h196z" />
    <glyph glyph-name="threesuperior" unicode="&#xb3;" horiz-adv-x="392" 
d="M54 484h36q6 -36 32.5 -56t66.5 -20q48 0 77.5 24.5t29.5 69.5q0 50 -47 73.5t-98 8.5v10l113 143h-193v33h256v-7l-117 -147q52 4 88 -30.5t36 -83.5q0 -57 -39 -92.5t-105 -35.5q-57 0 -94 29t-42 81z" />
    <glyph glyph-name="acute" unicode="&#xb4;" horiz-adv-x="303" 
d="M77 568v3l86 131l42 -20v-5l-84 -109h-44z" />
    <glyph glyph-name="mu" unicode="&#xb5;" horiz-adv-x="572" 
d="M506 0h-47v87q-28 -52 -65 -74t-97 -22q-61 0 -98 18.5t-62 61.5v-321h-47v733h47v-280q0 -79 40.5 -123t118.5 -44q74 0 118.5 46.5t44.5 121.5v279h47v-483z" />
    <glyph glyph-name="mu" unicode="&#x3bc;" horiz-adv-x="572" 
d="M506 0h-47v87q-28 -52 -65 -74t-97 -22q-61 0 -98 18.5t-62 61.5v-321h-47v733h47v-280q0 -79 40.5 -123t118.5 -44q74 0 118.5 46.5t44.5 121.5v279h47v-483z" />
    <glyph glyph-name="paragraph" unicode="&#xb6;" horiz-adv-x="714" 
d="M613 -190h-48v845h-240v-845h-49v368q-73 2 -127.5 41.5t-81 97t-27.5 125t23 124.5t81.5 95t137.5 38h331v-889z" />
    <glyph glyph-name="periodcentered" unicode="&#xb7;" horiz-adv-x="221" 
d="M110 325q-15 0 -25 9t-10 23q0 15 10 24.5t25 9.5t25.5 -9.5t10.5 -24.5q0 -14 -10.5 -23t-25.5 -9z" />
    <glyph glyph-name="cedilla" unicode="&#xb8;" horiz-adv-x="392" 
d="M168 -73l21 83h38l-16 -60q47 0 73.5 -30t12.5 -75q-11 -37 -47.5 -54.5t-77.5 -12t-69 28.5l2 39q30 -30 84 -30.5t70 38.5q13 39 -19.5 58.5t-71.5 14.5z" />
    <glyph glyph-name="onesuperior" unicode="&#xb9;" horiz-adv-x="334" 
d="M63 380v33h84v325h-74v33h113v-358h85v-33h-208z" />
    <glyph glyph-name="ordmasculine" unicode="&#xba;" horiz-adv-x="506" 
d="M446 532q0 -60 -29 -104.5t-72.5 -64t-94 -19.5t-94 19.5t-72.5 64t-29 104.5t29 104.5t72.5 64.5t94 20t94 -20t72.5 -64.5t29 -104.5zM102 532q0 -41 16.5 -72.5t42.5 -48t58 -24t64 0t58 24t42.5 48t16.5 72.5t-16.5 72.5t-42.5 48t-58 24t-64 0t-58 -24t-42.5 -48
t-16.5 -72.5zM70 215v43h368v-43h-368z" />
    <glyph glyph-name="guillemotright" unicode="&#xbb;" horiz-adv-x="456" 
d="M333 346l-107 201l39 12l127 -213l-127 -212l-39 13zM179 346l-107 201l39 12l127 -213l-127 -212l-39 13z" />
    <glyph glyph-name="onequarter" unicode="&#xbc;" horiz-adv-x="861" 
d="M737 123v101q0 19 1 57.5t1 57.5h-1l-160 -216h159zM772 89v-88h-37v88h-215v19l213 284h39v-268h44v-35h-44zM246 1l338 699h46l-339 -699h-45zM57 317v33h84v325h-75v33h114v-358h85v-33h-208z" />
    <glyph glyph-name="onehalf" unicode="&#xbd;" horiz-adv-x="888" 
d="M244 1l338 699h46l-339 -699h-45zM57 317v33h84v325h-75v33h114v-358h85v-33h-208zM837 36v-36h-266v9l182 202q30 31 36 66.5t-16.5 60.5t-68.5 25q-81 0 -89 -74h-34q6 107 123 107q59 0 91.5 -33.5t29.5 -81.5t-40 -89l-144 -156h196z" />
    <glyph glyph-name="threequarters" unicode="&#xbe;" horiz-adv-x="884" 
d="M760 122v102q0 19 1 57.5t1 57.5h-1l-165 -217h164zM795 89v-88h-37v88h-220v19l218 284h39v-269h44v-34h-44zM269 1l338 699h46l-339 -699h-45zM52 422h36q6 -36 32.5 -56t66.5 -20q48 0 77.5 24.5t29.5 69.5q0 50 -47 73.5t-98 8.5v10l113 143h-193v33h256v-7
l-117 -147q52 4 88 -30.5t36 -83.5q0 -57 -39 -92.5t-105 -35.5q-57 0 -94 29t-42 81z" />
    <glyph glyph-name="questiondown" unicode="&#xbf;" horiz-adv-x="484" 
d="M225 351h49q1 -72 -16.5 -124t-44 -81.5t-53.5 -53.5t-47 -55.5t-22 -72.5q-3 -71 41.5 -105.5t111.5 -34.5q66 0 112 29t46 92h44q0 -84 -57.5 -126t-145.5 -42t-149.5 50t-52.5 143q3 45 24 80.5t48.5 61t53.5 54.5t43 75.5t15 109.5zM250 492q14 0 24 -9t10 -23
t-9.5 -22t-24.5 -8t-24 8t-9 22t9.5 23t23.5 9z" />
    <glyph glyph-name="Agrave" unicode="&#xc0;" horiz-adv-x="686" 
d="M154 178l188 407h1l190 -407h-379zM522 0l-41 88h-276l-41 -88h-175v26l315 683h77l316 -683v-26h-175zM596 68l-251 539h-6l-249 -539h13l47 99h387l46 -99h13zM416 249l-74 161l-72 -161h146zM365 771v-3h-44l-84 109v5l42 20z" />
    <glyph glyph-name="Aacute" unicode="&#xc1;" horiz-adv-x="686" 
d="M154 178l188 407h1l190 -407h-379zM522 0l-41 88h-276l-41 -88h-175v26l315 683h77l316 -683v-26h-175zM596 68l-251 539h-6l-249 -539h13l47 99h387l46 -99h13zM416 249l-74 161l-72 -161h146zM318 762v3l86 131l42 -20v-5l-84 -109h-44z" />
    <glyph glyph-name="Acircumflex" unicode="&#xc2;" horiz-adv-x="686" 
d="M154 178l188 407h1l190 -407h-379zM522 0l-41 88h-276l-41 -88h-175v26l315 683h77l316 -683v-26h-175zM596 68l-251 539h-6l-249 -539h13l47 99h387l46 -99h13zM416 249l-74 161l-72 -161h146zM502 752h-52l-108 98l-110 -98h-52v5l137 124h49l136 -125v-4z" />
    <glyph glyph-name="Atilde" unicode="&#xc3;" horiz-adv-x="686" 
d="M154 178l188 407h1l190 -407h-379zM522 0l-41 88h-276l-41 -88h-175v26l315 683h77l316 -683v-26h-175zM596 68l-251 539h-6l-249 -539h13l47 99h387l46 -99h13zM416 249l-74 161l-72 -161h146zM232 772q-4 3 -15.5 9t-15.5 8q27 46 68.5 57t93.5 -19q31 -22 56.5 -18.5
t46.5 38.5q6 -3 16 -9t12 -7q-24 -46 -62.5 -57t-87.5 18q-71 44 -112 -20z" />
    <glyph glyph-name="Adieresis" unicode="&#xc4;" horiz-adv-x="686" 
d="M154 178l188 407h1l190 -407h-379zM522 0l-41 88h-276l-41 -88h-175v26l315 683h77l316 -683v-26h-175zM596 68l-251 539h-6l-249 -539h13l47 99h387l46 -99h13zM416 249l-74 161l-72 -161h146zM233 759q-15 0 -24.5 9t-9.5 22q0 15 9.5 24t24.5 9t24.5 -9t9.5 -24
q0 -13 -10 -22t-24 -9zM452 759q-15 0 -24.5 9t-9.5 22q0 15 9.5 24t24.5 9t24.5 -9t9.5 -24q0 -13 -10 -22t-24 -9z" />
    <glyph glyph-name="Aring" unicode="&#xc5;" horiz-adv-x="686" 
d="M154 178l188 407h1l190 -407h-379zM596 68l-251 539h-6l-249 -539h13l47 99h387l46 -99h13zM416 249l-74 161l-72 -161h146zM274 778q0 -40 34 -56.5t68.5 0t34.5 56.5q0 39 -34.5 55t-68.5 0t-34 -55zM448 778q0 -62 -58 -88l307 -664v-26h-175l-41 88h-276l-41 -88
h-175v26l306 664q-57 27 -57 88q0 37 21.5 62.5t52.5 31t62 0t52.5 -31t21.5 -62.5z" />
    <glyph glyph-name="AE" unicode="&#xc6;" horiz-adv-x="839" 
d="M385 153h-153q-9 -20 -31.5 -72.5t-35.5 -80.5h-176v27l313 673h478v-159h-228v-101h208v-159h-208v-122h237v-159h-404v153zM387 522l-86 -207h84l3 207h-1zM363 615h101v-372h-276q68 148 175 372zM183 234h281v-159h257v10h-248v272h219v10h-219v248h239v11h-355
l-263 -558h9z" />
    <glyph glyph-name="Ccedilla" unicode="&#xc7;" horiz-adv-x="760" 
d="M354 -73l17 67q-65 4 -123.5 28.5t-106 67.5t-75.5 110.5t-28 149.5q0 113 53.5 196.5t133.5 122.5t172 39q76 0 143.5 -26.5t120 -88.5t65.5 -151h-176q-36 103 -153 103q-78 0 -126 -54t-48 -141q0 -80 48.5 -137t125.5 -57q59 0 100.5 29t55.5 84h176
q-19 -135 -110 -204.5t-211 -71.5l-11 -43q47 0 73.5 -30t12.5 -75q-11 -37 -47.5 -54.5t-77.5 -12t-69 28.5l2 39q30 -30 84 -30.5t70 38.5q13 39 -19.5 58.5t-71.5 14.5zM623 206h-12q-65 -126 -214 -126q-104 0 -182.5 73t-78.5 197q0 125 78.5 198.5t182.5 73.5
q145 0 210 -116h12q-70 125 -222 125q-109 0 -190 -76t-81 -205t81 -204.5t190 -75.5q73 0 133.5 35.5t92.5 100.5z" />
    <glyph glyph-name="Egrave" unicode="&#xc8;" horiz-adv-x="571" 
d="M159 626v-552h294v10h-283v273h254v10h-254v249h274v10h-285zM512 700v-160h-259v-99h238v-159h-238v-123h268v-159h-446v700h437zM334 769v-3h-44l-84 109v5l42 20z" />
    <glyph glyph-name="Eacute" unicode="&#xc9;" horiz-adv-x="571" 
d="M159 626v-552h294v10h-283v273h254v10h-254v249h274v10h-285zM512 700v-160h-259v-99h238v-159h-238v-123h268v-159h-446v700h437zM253 760v3l86 131l42 -20v-5l-84 -109h-44z" />
    <glyph glyph-name="Ecircumflex" unicode="&#xca;" horiz-adv-x="571" 
d="M159 626v-552h294v10h-283v273h254v10h-254v249h274v10h-285zM512 700v-160h-259v-99h238v-159h-238v-123h268v-159h-446v700h437zM453 760h-50l-103 96l-105 -96h-50v5l131 122h47l130 -123v-4z" />
    <glyph glyph-name="Edieresis" unicode="&#xcb;" horiz-adv-x="571" 
d="M159 626v-552h294v10h-283v273h254v10h-254v249h274v10h-285zM512 700v-160h-259v-99h238v-159h-238v-123h268v-159h-446v700h437zM184 770q-15 0 -24.5 9t-9.5 22q0 15 9.5 24t24.5 9t24.5 -9t9.5 -24q0 -13 -10 -22t-24 -9zM403 770q-15 0 -24.5 9t-9.5 22q0 15 9.5 24
t24.5 9t24.5 -9t9.5 -24q0 -13 -10 -22t-24 -9z" />
    <glyph glyph-name="Igrave" unicode="&#xcc;" horiz-adv-x="455" 
d="M223 83h-106v-10h220v10h-104v533h96v10h-203v-10h97v-533zM316 157h89v-157h-355v157h89v387h-82v156h341v-156h-82v-387zM247 762v-3h-44l-84 109v5l42 20z" />
    <glyph glyph-name="Iacute" unicode="&#xcd;" horiz-adv-x="455" 
d="M223 83h-106v-10h220v10h-104v533h96v10h-203v-10h97v-533zM316 157h89v-157h-355v157h89v387h-82v156h341v-156h-82v-387zM194 761v3l86 131l42 -20v-5l-84 -109h-44z" />
    <glyph glyph-name="Icircumflex" unicode="&#xce;" horiz-adv-x="455" 
d="M223 83h-106v-10h220v10h-104v533h96v10h-203v-10h97v-533zM316 157h89v-157h-355v157h89v387h-82v156h341v-156h-82v-387zM381 756h-49l-104 95l-105 -95h-50v5l131 121h47l130 -122v-4z" />
    <glyph glyph-name="Idieresis" unicode="&#xcf;" horiz-adv-x="455" 
d="M223 83h-106v-10h220v10h-104v533h96v10h-203v-10h97v-533zM316 157h89v-157h-355v157h89v387h-82v156h341v-156h-82v-387zM120 766q-15 0 -24.5 9t-9.5 22q0 15 9.5 24t24.5 9t24.5 -9t9.5 -24q0 -13 -10 -22t-24 -9zM339 766q-15 0 -24.5 9t-9.5 22q0 15 9.5 24t24.5 9
t24.5 -9t9.5 -24q0 -13 -10 -22t-24 -9z" />
    <glyph glyph-name="Eth" unicode="&#xd0;" horiz-adv-x="723" 
d="M79 700h264q109 0 189 -52t116 -129.5t36 -168.5t-36 -168.5t-116 -129.5t-189 -52h-264v326h-67v39h67v335zM166 625v-550h175q63 0 114 23.5t82 62.5t48 88t17 101t-17 101t-48 88t-82 62.5t-114 23.5h-175zM341 86h-166v529h166q80 0 139 -39t85.5 -98t26.5 -127.5
t-26.5 -127.5t-85.5 -98t-139 -39zM258 326v-163h85q46 0 82 20.5t54.5 53.5t27.5 73t0 80t-27.5 73t-54.5 53.5t-82 20.5h-85v-172h94v-39h-94z" />
    <glyph glyph-name="Ntilde" unicode="&#xd1;" horiz-adv-x="752" 
d="M613 -1l-353 345v-344h-185v703h65l354 -346v343h183v-701h-64zM160 559v-490h12v473q118 -113 208 -203q34 -33 101 -98.5t102 -99.5h8v491h-11v-474q-208 202 -210 204q-91 93 -199 197h-11zM235 778q-4 2 -15.5 8.5t-15.5 8.5q27 46 68.5 57t93.5 -19
q31 -22 56.5 -18.5t46.5 38.5q6 -3 16 -9t12 -7q-24 -46 -62.5 -57t-87.5 18q-71 44 -112 -20z" />
    <glyph glyph-name="Ograve" unicode="&#xd2;" horiz-adv-x="794" 
d="M126 349q0 -68 23.5 -123t61.5 -89t87 -52t99.5 -18t99.5 18t87 52t61.5 89t23.5 123q0 90 -40 156t-100.5 95.5t-131 29.5t-131 -29.5t-100.5 -95.5t-40 -156zM756 349q0 -88 -31 -159t-81.5 -114.5t-115 -67t-131.5 -23.5t-131.5 23.5t-115 67t-81.5 114.5t-31 159
t31 158.5t81.5 114t115 67t131.5 23.5t131.5 -23.5t115 -67t81.5 -114t31 -158.5zM222 349q0 -61 26 -105.5t65 -64.5t84.5 -20t84.5 20t65 64.5t26 105.5q0 60 -26 104.5t-65 64t-84.5 19.5t-84.5 -19.5t-65 -64t-26 -104.5zM659 349q0 -86 -38.5 -149t-97 -92t-126 -29.5
t-126 27.5t-97 92t-38.5 151q0 66 22.5 119t59 85.5t83.5 50t96.5 17t96.5 -18.5t83.5 -50.5t59 -85t22.5 -117.5zM418 769v-3h-44l-84 109v5l42 20z" />
    <glyph glyph-name="Oacute" unicode="&#xd3;" horiz-adv-x="794" 
d="M126 349q0 -68 23.5 -123t61.5 -89t87 -52t99.5 -18t99.5 18t87 52t61.5 89t23.5 123q0 90 -40 156t-100.5 95.5t-131 29.5t-131 -29.5t-100.5 -95.5t-40 -156zM756 349q0 -88 -31 -159t-81.5 -114.5t-115 -67t-131.5 -23.5t-131.5 23.5t-115 67t-81.5 114.5t-31 159
t31 158.5t81.5 114t115 67t131.5 23.5t131.5 -23.5t115 -67t81.5 -114t31 -158.5zM222 349q0 -61 26 -105.5t65 -64.5t84.5 -20t84.5 20t65 64.5t26 105.5q0 60 -26 104.5t-65 64t-84.5 19.5t-84.5 -19.5t-65 -64t-26 -104.5zM659 349q0 -86 -38.5 -149t-97 -92t-126 -29.5
t-126 27.5t-97 92t-38.5 151q0 66 22.5 119t59 85.5t83.5 50t96.5 17t96.5 -18.5t83.5 -50.5t59 -85t22.5 -117.5zM366 763v3l86 131l42 -20v-5l-84 -109h-44z" />
    <glyph glyph-name="Ocircumflex" unicode="&#xd4;" horiz-adv-x="794" 
d="M126 349q0 -68 23.5 -123t61.5 -89t87 -52t99.5 -18t99.5 18t87 52t61.5 89t23.5 123q0 90 -40 156t-100.5 95.5t-131 29.5t-131 -29.5t-100.5 -95.5t-40 -156zM756 349q0 -88 -31 -159t-81.5 -114.5t-115 -67t-131.5 -23.5t-131.5 23.5t-115 67t-81.5 114.5t-31 159
t31 158.5t81.5 114t115 67t131.5 23.5t131.5 -23.5t115 -67t81.5 -114t31 -158.5zM222 349q0 -61 26 -105.5t65 -64.5t84.5 -20t84.5 20t65 64.5t26 105.5q0 60 -26 104.5t-65 64t-84.5 19.5t-84.5 -19.5t-65 -64t-26 -104.5zM659 349q0 -86 -38.5 -149t-97 -92t-126 -29.5
t-126 27.5t-97 92t-38.5 151q0 66 22.5 119t59 85.5t83.5 50t96.5 17t96.5 -18.5t83.5 -50.5t59 -85t22.5 -117.5zM555 765h-52l-108 98l-110 -98h-52v5l137 124h49l136 -125v-4z" />
    <glyph glyph-name="Otilde" unicode="&#xd5;" horiz-adv-x="794" 
d="M126 349q0 -68 23.5 -123t61.5 -89t87 -52t99.5 -18t99.5 18t87 52t61.5 89t23.5 123q0 90 -40 156t-100.5 95.5t-131 29.5t-131 -29.5t-100.5 -95.5t-40 -156zM756 349q0 -88 -31 -159t-81.5 -114.5t-115 -67t-131.5 -23.5t-131.5 23.5t-115 67t-81.5 114.5t-31 159
t31 158.5t81.5 114t115 67t131.5 23.5t131.5 -23.5t115 -67t81.5 -114t31 -158.5zM222 349q0 -61 26 -105.5t65 -64.5t84.5 -20t84.5 20t65 64.5t26 105.5q0 60 -26 104.5t-65 64t-84.5 19.5t-84.5 -19.5t-65 -64t-26 -104.5zM659 349q0 -86 -38.5 -149t-97 -92t-126 -29.5
t-126 27.5t-97 92t-38.5 151q0 66 22.5 119t59 85.5t83.5 50t96.5 17t96.5 -18.5t83.5 -50.5t59 -85t22.5 -117.5zM274 781q-4 3 -15.5 8.5t-15.5 8.5q27 46 68.5 57t93.5 -19q31 -22 56.5 -18.5t46.5 38.5q6 -3 16 -9t12 -7q-24 -46 -62.5 -57t-87.5 18q-71 44 -112 -20z
" />
    <glyph glyph-name="Odieresis" unicode="&#xd6;" horiz-adv-x="794" 
d="M126 349q0 -68 23.5 -123t61.5 -89t87 -52t99.5 -18t99.5 18t87 52t61.5 89t23.5 123q0 90 -40 156t-100.5 95.5t-131 29.5t-131 -29.5t-100.5 -95.5t-40 -156zM756 349q0 -88 -31 -159t-81.5 -114.5t-115 -67t-131.5 -23.5t-131.5 23.5t-115 67t-81.5 114.5t-31 159
t31 158.5t81.5 114t115 67t131.5 23.5t131.5 -23.5t115 -67t81.5 -114t31 -158.5zM222 349q0 -61 26 -105.5t65 -64.5t84.5 -20t84.5 20t65 64.5t26 105.5q0 60 -26 104.5t-65 64t-84.5 19.5t-84.5 -19.5t-65 -64t-26 -104.5zM659 349q0 -86 -38.5 -149t-97 -92t-126 -29.5
t-126 27.5t-97 92t-38.5 151q0 66 22.5 119t59 85.5t83.5 50t96.5 17t96.5 -18.5t83.5 -50.5t59 -85t22.5 -117.5zM282 780q-15 0 -24.5 9t-9.5 22q0 15 9.5 24t24.5 9t24.5 -9t9.5 -24q0 -13 -10 -22t-24 -9zM501 780q-15 0 -24.5 9t-9.5 22q0 15 9.5 24t24.5 9t24.5 -9
t9.5 -24q0 -13 -10 -22t-24 -9z" />
    <glyph glyph-name="multiply" unicode="&#xd7;" horiz-adv-x="441" 
d="M78 462l28 28l115 -114l114 115l30 -30l-115 -115l112 -112l-28 -29l-113 113l-113 -113l-29 29l113 113z" />
    <glyph glyph-name="Oslash" unicode="&#xd8;" horiz-adv-x="793" 
d="M756 349q0 -90 -32.5 -162.5t-86 -116t-119.5 -66t-136.5 -19t-134.5 29.5l-48 -89h-50l59 108q-78 44 -124 124t-46 191q0 91 33.5 164.5t89 116.5t123.5 64.5t140 16.5t135 -35l43 79h51l-55 -100q158 -101 158 -306zM126 349q0 -68 23.5 -123t61.5 -89t87 -52
t99.5 -18t99.5 18t87 52t61.5 89t23.5 123q0 90 -40 156t-100.5 95.5t-131 29.5t-131 -29.5t-100.5 -95.5t-40 -156zM659 349q0 -86 -38.5 -149t-97 -92t-126 -29.5t-126 27.5t-97 92t-38.5 151q0 66 22.5 119t59 85.5t83.5 50t96.5 17t96.5 -18.5t83.5 -50.5t59 -85
t22.5 -117.5zM222 349q0 -106 72 -158l180 330q-31 14 -66 16t-68 -9.5t-59.5 -33.5t-42.5 -60t-16 -85zM573 349q0 95 -62 147l-178 -326q39 -17 81 -11t77.5 26t58.5 63.5t23 100.5z" />
    <glyph glyph-name="Ugrave" unicode="&#xd9;" 
d="M345 151q42 0 74 22.5t32 62.5v464h170v-467q0 -111 -81 -177t-195 -66q-113 0 -194.5 66t-81.5 177v467h169v-464q0 -40 32.5 -62.5t74.5 -22.5zM345 65q80 0 139 46.5t59 124.5v397h-11v-397q0 -74 -55.5 -117t-131.5 -43t-131.5 43t-55.5 117v397h-11v-397
q0 -78 59 -124.5t139 -46.5zM371 769v-3h-44l-84 109v5l42 20z" />
    <glyph glyph-name="Uacute" unicode="&#xda;" 
d="M345 151q42 0 74 22.5t32 62.5v464h170v-467q0 -111 -81 -177t-195 -66q-113 0 -194.5 66t-81.5 177v467h169v-464q0 -40 32.5 -62.5t74.5 -22.5zM345 65q80 0 139 46.5t59 124.5v397h-11v-397q0 -74 -55.5 -117t-131.5 -43t-131.5 43t-55.5 117v397h-11v-397
q0 -78 59 -124.5t139 -46.5zM313 767v3l86 131l42 -20v-5l-84 -109h-44z" />
    <glyph glyph-name="Ucircumflex" unicode="&#xdb;" 
d="M345 151q42 0 74 22.5t32 62.5v464h170v-467q0 -111 -81 -177t-195 -66q-113 0 -194.5 66t-81.5 177v467h169v-464q0 -40 32.5 -62.5t74.5 -22.5zM345 65q80 0 139 46.5t59 124.5v397h-11v-397q0 -74 -55.5 -117t-131.5 -43t-131.5 43t-55.5 117v397h-11v-397
q0 -78 59 -124.5t139 -46.5zM510 764h-52l-108 98l-110 -98h-52v5l137 124h49l136 -125v-4z" />
    <glyph glyph-name="Udieresis" unicode="&#xdc;" 
d="M345 151q42 0 74 22.5t32 62.5v464h170v-467q0 -111 -81 -177t-195 -66q-113 0 -194.5 66t-81.5 177v467h169v-464q0 -40 32.5 -62.5t74.5 -22.5zM345 65q80 0 139 46.5t59 124.5v397h-11v-397q0 -74 -55.5 -117t-131.5 -43t-131.5 43t-55.5 117v397h-11v-397
q0 -78 59 -124.5t139 -46.5zM235 770q-15 0 -24.5 9t-9.5 22q0 15 9.5 24t24.5 9t24.5 -9t9.5 -24q0 -13 -10 -22t-24 -9zM454 770q-15 0 -24.5 9t-9.5 22q0 15 9.5 24t24.5 9t24.5 -9t9.5 -24q0 -13 -10 -22t-24 -9z" />
    <glyph glyph-name="Yacute" unicode="&#xdd;" horiz-adv-x="637" 
d="M117 633l196 -316v-250h11v250l196 316h-13l-188 -304l-189 304h-13zM407 294v-294h-177v294l-235 379v27h193l127 -233h7l127 233h194v-27zM279 764v3l86 131l42 -20v-5l-84 -109h-44z" />
    <glyph glyph-name="Thorn" unicode="&#xde;" horiz-adv-x="679" 
d="M75 702h179v-89h129q121 0 187 -77.5t64 -184.5q2 -107 -64 -186t-187 -79h-129v-86h-179v702zM158 67h11v94h215q80 0 124.5 57t42.5 133q2 75 -42.5 131t-124.5 56h-215v97h-11v-568zM169 526h215q75 0 116.5 -52t39.5 -123q2 -71 -39.5 -124.5t-116.5 -53.5h-215v353z
M254 247h128q37 0 56.5 31t19.5 73t-19.5 71.5t-56.5 29.5h-128v-205z" />
    <glyph glyph-name="germandbls" unicode="&#xdf;" horiz-adv-x="621" 
d="M59 0l2 494q0 62 22 105.5t56 66t82 32.5t92.5 9t96.5 -9.5t85 -16.5t66 -18v-27l-97 -223q58 -15 91 -67t33 -117q0 -136 -84.5 -198.5t-210.5 -20.5l1 138q53 -16 80.5 11t27.5 69q0 29 -7 47t-25 25.5t-34 9t-49 1.5v27l80 220q-53 24 -95.5 4t-42.5 -71v-491h-170z
M139 56h10v387q0 127 54 164q33 24 78 28.5t79 -1.5t84 -19q9 -3 14 -4l-87 -241l5 -1q62 -11 94 -58.5t28.5 -99t-38 -92.5t-90.5 -41v-10q48 0 83 28t46 69.5t6 85t-37.5 79.5t-84.5 47l87 240q-49 13 -71 18t-64.5 10.5t-75.5 -2.5t-62 -29q-58 -40 -58 -171v-387z" />
    <glyph glyph-name="agrave" unicode="&#xe0;" horiz-adv-x="557" 
d="M357 67q-17 -41 -60.5 -59.5t-94.5 -18.5q-68 0 -118 42t-52 111q-4 87 47 134.5t137 47.5q69 0 109 -30v11q0 57 -106 57q-79 0 -131 -24l-22 118q81 36 183 36q241 0 241 -190v-155q0 -18 0.5 -25t4 -16.5t12.5 -12.5t25 -3v-90q-29 -8 -55.5 -10.5t-53.5 2t-44.5 23.5
t-21.5 52zM405 189v-52q0 -50 15 -76t54 -24v7q-35 -2 -47 22.5t-12 70.5v146q0 154 -166 154q-55 0 -114 -18l3 -8q60 17 111 17q78 0 117 -34.5t39 -110.5v-84q-99 69 -169 69q-57 0 -93 -29t-36 -86q0 -51 32.5 -77t85.5 -26q66 0 113 50l-4 6q-46 -48 -109 -48
q-48 0 -78 23.5t-32 71.5q0 52 33.5 79t87.5 27q37 0 85 -21.5t84 -48.5zM323 178v8q-32 22 -77 22q-26 -2 -40.5 -16.5t-9.5 -38.5q5 -30 45 -30q30 0 56 14.5t26 40.5zM300 588v-3h-41l-77 100v5l39 18z" />
    <glyph glyph-name="aacute" unicode="&#xe1;" horiz-adv-x="557" 
d="M357 67q-17 -41 -60.5 -59.5t-94.5 -18.5q-68 0 -118 42t-52 111q-4 87 47 134.5t137 47.5q69 0 109 -30v11q0 57 -106 57q-79 0 -131 -24l-22 118q81 36 183 36q241 0 241 -190v-155q0 -18 0.5 -25t4 -16.5t12.5 -12.5t25 -3v-90q-29 -8 -55.5 -10.5t-53.5 2t-44.5 23.5
t-21.5 52zM405 189v-52q0 -50 15 -76t54 -24v7q-35 -2 -47 22.5t-12 70.5v146q0 154 -166 154q-55 0 -114 -18l3 -8q60 17 111 17q78 0 117 -34.5t39 -110.5v-84q-99 69 -169 69q-57 0 -93 -29t-36 -86q0 -51 32.5 -77t85.5 -26q66 0 113 50l-4 6q-46 -48 -109 -48
q-48 0 -78 23.5t-32 71.5q0 52 33.5 79t87.5 27q37 0 85 -21.5t84 -48.5zM323 178v8q-32 22 -77 22q-26 -2 -40.5 -16.5t-9.5 -38.5q5 -30 45 -30q30 0 56 14.5t26 40.5zM235 584v3l81 123l40 -19v-4l-79 -103h-42z" />
    <glyph glyph-name="acircumflex" unicode="&#xe2;" horiz-adv-x="557" 
d="M357 67q-17 -41 -60.5 -59.5t-94.5 -18.5q-68 0 -118 42t-52 111q-4 87 47 134.5t137 47.5q69 0 109 -30v11q0 57 -106 57q-79 0 -131 -24l-22 118q81 36 183 36q241 0 241 -190v-155q0 -18 0.5 -25t4 -16.5t12.5 -12.5t25 -3v-90q-29 -8 -55.5 -10.5t-53.5 2t-44.5 23.5
t-21.5 52zM405 189v-52q0 -50 15 -76t54 -24v7q-35 -2 -47 22.5t-12 70.5v146q0 154 -166 154q-55 0 -114 -18l3 -8q60 17 111 17q78 0 117 -34.5t39 -110.5v-84q-99 69 -169 69q-57 0 -93 -29t-36 -86q0 -51 32.5 -77t85.5 -26q66 0 113 50l-4 6q-46 -48 -109 -48
q-48 0 -78 23.5t-32 71.5q0 52 33.5 79t87.5 27q37 0 85 -21.5t84 -48.5zM323 178v8q-32 22 -77 22q-26 -2 -40.5 -16.5t-9.5 -38.5q5 -30 45 -30q30 0 56 14.5t26 40.5zM411 584h-46l-96 94l-97 -94h-46v4l121 119h44l120 -120v-3z" />
    <glyph glyph-name="atilde" unicode="&#xe3;" horiz-adv-x="557" 
d="M357 67q-17 -41 -60.5 -59.5t-94.5 -18.5q-68 0 -118 42t-52 111q-4 87 47 134.5t137 47.5q69 0 109 -30v11q0 57 -106 57q-79 0 -131 -24l-22 118q81 36 183 36q241 0 241 -190v-155q0 -18 0.5 -25t4 -16.5t12.5 -12.5t25 -3v-90q-29 -8 -55.5 -10.5t-53.5 2t-44.5 23.5
t-21.5 52zM405 189v-52q0 -50 15 -76t54 -24v7q-35 -2 -47 22.5t-12 70.5v146q0 154 -166 154q-55 0 -114 -18l3 -8q60 17 111 17q78 0 117 -34.5t39 -110.5v-84q-99 69 -169 69q-57 0 -93 -29t-36 -86q0 -51 32.5 -77t85.5 -26q66 0 113 50l-4 6q-46 -48 -109 -48
q-48 0 -78 23.5t-32 71.5q0 52 33.5 79t87.5 27q37 0 85 -21.5t84 -48.5zM323 178v8q-32 22 -77 22q-26 -2 -40.5 -16.5t-9.5 -38.5q5 -30 45 -30q30 0 56 14.5t26 40.5zM156 604q-3 2 -14 7.5t-15 8.5q25 43 63.5 53t87.5 -18q29 -20 52.5 -16.5t43.5 35.5l26 -15
q-22 -43 -58 -53.5t-82 17.5q-67 39 -104 -19z" />
    <glyph glyph-name="adieresis" unicode="&#xe4;" horiz-adv-x="557" 
d="M357 67q-17 -41 -60.5 -59.5t-94.5 -18.5q-68 0 -118 42t-52 111q-4 87 47 134.5t137 47.5q69 0 109 -30v11q0 57 -106 57q-79 0 -131 -24l-22 118q81 36 183 36q241 0 241 -190v-155q0 -18 0.5 -25t4 -16.5t12.5 -12.5t25 -3v-90q-29 -8 -55.5 -10.5t-53.5 2t-44.5 23.5
t-21.5 52zM405 189v-52q0 -50 15 -76t54 -24v7q-35 -2 -47 22.5t-12 70.5v146q0 154 -166 154q-55 0 -114 -18l3 -8q60 17 111 17q78 0 117 -34.5t39 -110.5v-84q-99 69 -169 69q-57 0 -93 -29t-36 -86q0 -51 32.5 -77t85.5 -26q66 0 113 50l-4 6q-46 -48 -109 -48
q-48 0 -78 23.5t-32 71.5q0 52 33.5 79t87.5 27q37 0 85 -21.5t84 -48.5zM323 178v8q-32 22 -77 22q-26 -2 -40.5 -16.5t-9.5 -38.5q5 -30 45 -30q30 0 56 14.5t26 40.5zM163 605q-15 0 -24.5 9t-9.5 22q0 15 9.5 24t24.5 9t24.5 -9t9.5 -24q0 -13 -10 -22t-24 -9zM382 605
q-15 0 -24.5 9t-9.5 22q0 15 9.5 24t24.5 9t24.5 -9t9.5 -24q0 -13 -10 -22t-24 -9z" />
    <glyph glyph-name="aring" unicode="&#xe5;" horiz-adv-x="557" 
d="M357 67q-17 -41 -60.5 -59.5t-94.5 -18.5q-68 0 -118 42t-52 111q-4 87 47 134.5t137 47.5q69 0 109 -30v11q0 57 -106 57q-79 0 -131 -24l-22 118q81 36 183 36q241 0 241 -190v-155q0 -18 0.5 -25t4 -16.5t12.5 -12.5t25 -3v-90q-29 -8 -55.5 -10.5t-53.5 2t-44.5 23.5
t-21.5 52zM405 189v-52q0 -50 15 -76t54 -24v7q-35 -2 -47 22.5t-12 70.5v146q0 154 -166 154q-55 0 -114 -18l3 -8q60 17 111 17q78 0 117 -34.5t39 -110.5v-84q-99 69 -169 69q-57 0 -93 -29t-36 -86q0 -51 32.5 -77t85.5 -26q66 0 113 50l-4 6q-46 -48 -109 -48
q-48 0 -78 23.5t-32 71.5q0 52 33.5 79t87.5 27q37 0 85 -21.5t84 -48.5zM323 178v8q-32 22 -77 22q-26 -2 -40.5 -16.5t-9.5 -38.5q5 -30 45 -30q30 0 56 14.5t26 40.5zM373 641q0 -40 -31.5 -63.5t-70 -23.5t-70 23t-31.5 64t31.5 64t70 23t70 -23t31.5 -64zM204 641
q0 -35 33 -50t66.5 0t33.5 50q0 26 -21 41t-45.5 15t-45.5 -15t-21 -41z" />
    <glyph glyph-name="ae" unicode="&#xe6;" horiz-adv-x="814" 
d="M381 85q-68 -77 -176 -77q-69 0 -120 42t-53 109q-4 90 47 136.5t139 46.5q66 0 110 -27v10q0 56 -107 56q-81 0 -132 -26l-21 120q81 36 183 36q58 0 97 -11.5t72 -47.5q61 61 145 61q131 0 181 -81.5t19 -212.5h-278q6 -45 31 -61.5t71 -16.5q41 0 87 9.5t72 22.5
l21 -123q-100 -45 -190 -45q-132 0 -198 80zM565 382q-27 0 -49 -15.5t-28 -46.5h138q4 28 -15.5 45t-45.5 17zM331 202q-39 24 -82 23q-28 -2 -43 -15t-11 -37q5 -30 46 -32q50 0 95 35q-3 10 -5 26zM250 455q-57 0 -114 -16l2 -9q69 16 112 16q78 0 112.5 -34t36.5 -104
q0 -92 10 -125q-45 -48 -88.5 -77t-93.5 -29q-49 0 -79.5 24t-30.5 72q0 52 33 78t87 26q45 0 88 -23v9q-43 23 -88 23q-58 0 -93.5 -29t-35.5 -84q0 -51 33 -78t86 -27q88 0 184 108q36 -107 174 -107q61 0 116 17l-3 9q-55 -17 -113 -17q-138 0 -167 109q-15 49 -7 108
q9 65 47 103.5t109 37.5q129 -4 129 -140q0 -15 -1 -23h-211v-9h218q3 18 3 32q0 144 -137 149q-61 2 -103 -28.5t-58 -90.5q-6 69 -45.5 99t-111.5 30z" />
    <glyph glyph-name="ccedilla" unicode="&#xe7;" horiz-adv-x="566" 
d="M252 -69l14 57q-98 9 -165.5 73.5t-67.5 178.5q0 77 34.5 135t87 86t115.5 33t118.5 -15t97 -69t51.5 -118h-161q-15 42 -56.5 52t-78 -19t-36.5 -85q0 -44 22.5 -72.5t51.5 -34.5t57.5 10t39.5 52h161q-11 -95 -78.5 -150t-157.5 -57l-10 -36q44 0 67 -27t11 -69
q-15 -50 -76.5 -59t-99.5 25l2 35q27 -27 76 -28t64 35q11 35 -18.5 53t-64.5 14zM436 346h10q-21 37 -61.5 57.5t-89.5 20.5q-80 0 -131.5 -51.5t-51.5 -132.5q0 -80 52 -131t133 -53q49 0 89 21t63 60h-10q-44 -71 -142 -71q-75 0 -125 49.5t-50 124.5t49.5 125t122.5 50
q98 0 142 -69z" />
    <glyph glyph-name="egrave" unicode="&#xe8;" horiz-adv-x="551" 
d="M288 492q137 -2 192 -83t23 -210h-298q5 -44 36 -60t83 -19q88 0 164 33l18 -122q-96 -45 -193 -45q-126 0 -203.5 67t-77.5 187q0 62 22.5 112t60 79.5t82 45t91.5 15.5zM438 66l-2 9q-63 -17 -117 -17q-92 0 -147 46.5t-53 139.5h322q14 76 -28 128.5t-122 52.5
q-81 0 -130 -48t-53 -129q-2 -99 55.5 -149.5t155.5 -50.5q52 0 119 18zM433 253h-314q4 73 50.5 117.5t121.5 44.5q73 0 113.5 -45t28.5 -117zM205 300h155q3 32 -18.5 47t-53.5 15q-29 0 -53.5 -16.5t-29.5 -45.5zM317 592v-3h-41l-79 103v4l40 19z" />
    <glyph glyph-name="eacute" unicode="&#xe9;" horiz-adv-x="551" 
d="M288 492q137 -2 192 -83t23 -210h-298q5 -44 36 -60t83 -19q88 0 164 33l18 -122q-96 -45 -193 -45q-126 0 -203.5 67t-77.5 187q0 62 22.5 112t60 79.5t82 45t91.5 15.5zM438 66l-2 9q-63 -17 -117 -17q-92 0 -147 46.5t-53 139.5h322q14 76 -28 128.5t-122 52.5
q-81 0 -130 -48t-53 -129q-2 -99 55.5 -149.5t155.5 -50.5q52 0 119 18zM433 253h-314q4 73 50.5 117.5t121.5 44.5q73 0 113.5 -45t28.5 -117zM205 300h155q3 32 -18.5 47t-53.5 15q-29 0 -53.5 -16.5t-29.5 -45.5zM254 582v2l79 122l39 -18v-5l-78 -101h-40z" />
    <glyph glyph-name="ecircumflex" unicode="&#xea;" horiz-adv-x="551" 
d="M288 492q137 -2 192 -83t23 -210h-298q5 -44 36 -60t83 -19q88 0 164 33l18 -122q-96 -45 -193 -45q-126 0 -203.5 67t-77.5 187q0 62 22.5 112t60 79.5t82 45t91.5 15.5zM438 66l-2 9q-63 -17 -117 -17q-92 0 -147 46.5t-53 139.5h322q14 76 -28 128.5t-122 52.5
q-81 0 -130 -48t-53 -129q-2 -99 55.5 -149.5t155.5 -50.5q52 0 119 18zM433 253h-314q4 73 50.5 117.5t121.5 44.5q73 0 113.5 -45t28.5 -117zM205 300h155q3 32 -18.5 47t-53.5 15q-29 0 -53.5 -16.5t-29.5 -45.5zM438 584h-48l-100 90l-102 -90h-48v4l127 115h45
l126 -116v-3z" />
    <glyph glyph-name="edieresis" unicode="&#xeb;" horiz-adv-x="551" 
d="M288 492q137 -2 192 -83t23 -210h-298q5 -44 36 -60t83 -19q88 0 164 33l18 -122q-96 -45 -193 -45q-126 0 -203.5 67t-77.5 187q0 62 22.5 112t60 79.5t82 45t91.5 15.5zM438 66l-2 9q-63 -17 -117 -17q-92 0 -147 46.5t-53 139.5h322q14 76 -28 128.5t-122 52.5
q-81 0 -130 -48t-53 -129q-2 -99 55.5 -149.5t155.5 -50.5q52 0 119 18zM433 253h-314q4 73 50.5 117.5t121.5 44.5q73 0 113.5 -45t28.5 -117zM205 300h155q3 32 -18.5 47t-53.5 15q-29 0 -53.5 -16.5t-29.5 -45.5zM183 623q-14 0 -23 8.5t-9 20.5q0 30 32 30q13 0 22 -8
t9 -22q0 -12 -9 -20.5t-22 -8.5zM385 623q-14 0 -22.5 8.5t-8.5 20.5q0 30 31 30q13 0 22.5 -8t9.5 -22q0 -12 -9.5 -20.5t-22.5 -8.5z" />
    <glyph glyph-name="igrave" unicode="&#xec;" horiz-adv-x="291" 
d="M231 479v-479h-171v479h171zM149 424h-8v-366h8v366zM178 588v-3h-42l-81 105v5l40 19z" />
    <glyph glyph-name="iacute" unicode="&#xed;" horiz-adv-x="291" 
d="M231 479v-479h-171v479h171zM149 424h-8v-366h8v366zM113 576v3l82 126l40 -20v-4l-80 -105h-42z" />
    <glyph glyph-name="icircumflex" unicode="&#xee;" horiz-adv-x="291" 
d="M231 479v-479h-171v479h171zM149 424h-8v-366h8v366zM281 576h-44l-91 101l-93 -101h-44v5l116 129h41l115 -130v-4z" />
    <glyph glyph-name="idieresis" unicode="&#xef;" horiz-adv-x="291" 
d="M57 629q-15 0 -24.5 9t-9.5 22q0 15 9.5 24t24.5 9t24.5 -9t9.5 -24q0 -13 -10 -22t-24 -9zM238 629q-15 0 -24.5 9t-9.5 22q0 15 9.5 24t24.5 9t24.5 -9t9.5 -24q0 -13 -10 -22t-24 -9zM231 479v-479h-171v479h171zM149 424h-8v-366h8v366z" />
    <glyph glyph-name="eth" unicode="&#xf0;" horiz-adv-x="581" 
d="M33 242q0 108 74.5 169.5t177.5 63.5q17 0 22 -2q-13 23 -46 75l-48 -31l-17 25l46 32q-81 98 -100 115v11h134q59 -51 61 -53l48 33l19 -29l-40 -27q77 -84 130 -187t53 -195q0 -62 -22 -111.5t-58 -80.5t-82.5 -47.5t-94.5 -16.5t-94.5 16.5t-82.5 47.5t-58 80.5
t-22 111.5zM291 403q59 0 99.5 -27t58.5 -72q30 -70 0 -139q-19 -44 -59 -71.5t-99 -27.5q-58 0 -98 27.5t-59 71.5q-30 69 0 139q19 45 59 72t98 27zM297 601q64 -74 107 -160q31 -58 51 -130q-48 102 -164 102q-61 0 -103.5 -29t-62.5 -76q-30 -74 0 -145q20 -48 62.5 -77
t103.5 -29q123 0 167 106q16 35 14 79q-4 92 -58 203q-62 119 -150 203l-6 -7q16 -14 39 -40zM377 242q0 45 -27 70.5t-60 25.5t-60 -25.5t-27 -70.5q0 -50 27 -78t60 -28t60 28t27 78z" />
    <glyph glyph-name="ntilde" unicode="&#xf1;" horiz-adv-x="634" 
d="M244 273v-273h-171v333q0 19 -0.5 25.5t-4 16t-12 12.5t-24.5 3v92q155 36 192 -22q39 36 118 36q103 0 163.5 -59t58.5 -161v-125q0 -32 8 -43.5t38 -11.5v-94q-37 -9 -71.5 -10.5t-69 5.5t-55.5 33t-21 69v177q1 54 -36 74.5t-75 -3t-38 -74.5zM89 441v-7
q37 2 50.5 -10t13.5 -48v-319h8v199q0 72 51.5 119.5t123.5 47.5q68 0 103.5 -39.5t35.5 -107.5v-125q0 -30 2 -46t9 -33t23.5 -23.5t44.5 -5.5v7q-25 -1 -40 5.5t-21.5 22.5t-8 31t-1.5 42v125q0 72 -37.5 114.5t-109.5 40.5q-62 0 -108.5 -31.5t-66.5 -88.5v65
q0 41 -16 54t-56 11zM190 615q-4 3 -15 8.5l-15 7.5q25 44 65 54t89 -18q29 -20 53 -16.5t44 35.5q3 -2 12.5 -7.5t13.5 -7.5q-22 -44 -58.5 -54.5t-82.5 17.5q-68 42 -106 -19z" />
    <glyph glyph-name="ograve" unicode="&#xf2;" horiz-adv-x="577" 
d="M545 240q0 -81 -38 -140.5t-95 -86.5t-123.5 -26.5t-123.5 27t-95 86t-38 140.5t38 141t95 87t123.5 27t123.5 -27t95 -87t38 -141zM455 240q0 -76 -46 -125t-120 -49t-121 49t-47 125t47 125.5t121 49.5q75 0 120.5 -49t45.5 -126zM465 240q0 81 -49 133t-127 52
q-80 0 -129 -52t-49 -133q0 -80 50 -132t128 -52t127 52t49 132zM202 240q0 -50 27.5 -78t60 -28t60 28t27.5 78t-27.5 78.5t-60 28.5t-60 -28.5t-27.5 -78.5zM312 592v-3h-41l-78 101v5l39 18z" />
    <glyph glyph-name="oacute" unicode="&#xf3;" horiz-adv-x="577" 
d="M545 240q0 -81 -38 -140.5t-95 -86.5t-123.5 -26.5t-123.5 27t-95 86t-38 140.5t38 141t95 87t123.5 27t123.5 -27t95 -87t38 -141zM455 240q0 -76 -46 -125t-120 -49t-121 49t-47 125t47 125.5t121 49.5q75 0 120.5 -49t45.5 -126zM465 240q0 81 -49 133t-127 52
q-80 0 -129 -52t-49 -133q0 -80 50 -132t128 -52t127 52t49 132zM202 240q0 -50 27.5 -78t60 -28t60 28t27.5 78t-27.5 78.5t-60 28.5t-60 -28.5t-27.5 -78.5zM254 586v2l79 122l39 -18v-5l-78 -101h-40z" />
    <glyph glyph-name="ocircumflex" unicode="&#xf4;" horiz-adv-x="577" 
d="M545 240q0 -81 -38 -140.5t-95 -86.5t-123.5 -26.5t-123.5 27t-95 86t-38 140.5t38 141t95 87t123.5 27t123.5 -27t95 -87t38 -141zM455 240q0 -76 -46 -125t-120 -49t-121 49t-47 125t47 125.5t121 49.5q75 0 120.5 -49t45.5 -126zM465 240q0 81 -49 133t-127 52
q-80 0 -129 -52t-49 -133q0 -80 50 -132t128 -52t127 52t49 132zM202 240q0 -50 27.5 -78t60 -28t60 28t27.5 78t-27.5 78.5t-60 28.5t-60 -28.5t-27.5 -78.5zM439 586h-48l-99 94l-100 -94h-48v4l125 119h45l125 -120v-3z" />
    <glyph glyph-name="otilde" unicode="&#xf5;" horiz-adv-x="577" 
d="M545 240q0 -81 -38 -140.5t-95 -86.5t-123.5 -26.5t-123.5 27t-95 86t-38 140.5t38 141t95 87t123.5 27t123.5 -27t95 -87t38 -141zM455 240q0 -76 -46 -125t-120 -49t-121 49t-47 125t47 125.5t121 49.5q75 0 120.5 -49t45.5 -126zM465 240q0 81 -49 133t-127 52
q-80 0 -129 -52t-49 -133q0 -80 50 -132t128 -52t127 52t49 132zM202 240q0 -50 27.5 -78t60 -28t60 28t27.5 78t-27.5 78.5t-60 28.5t-60 -28.5t-27.5 -78.5zM184 619q-4 2 -15 8t-15 8q25 44 65 54t89 -18q29 -20 53 -16.5t44 35.5q3 -2 12 -7.5t14 -7.5
q-22 -44 -58.5 -54.5t-82.5 17.5q-68 42 -106 -19z" />
    <glyph glyph-name="odieresis" unicode="&#xf6;" horiz-adv-x="577" 
d="M545 240q0 -81 -38 -140.5t-95 -86.5t-123.5 -26.5t-123.5 27t-95 86t-38 140.5t38 141t95 87t123.5 27t123.5 -27t95 -87t38 -141zM455 240q0 -76 -46 -125t-120 -49t-121 49t-47 125t47 125.5t121 49.5q75 0 120.5 -49t45.5 -126zM465 240q0 81 -49 133t-127 52
q-80 0 -129 -52t-49 -133q0 -80 50 -132t128 -52t127 52t49 132zM202 240q0 -50 27.5 -78t60 -28t60 28t27.5 78t-27.5 78.5t-60 28.5t-60 -28.5t-27.5 -78.5zM182 618q-14 0 -23 8.5t-9 20.5q0 30 32 30q13 0 22 -8t9 -22q0 -12 -9 -20.5t-22 -8.5zM384 618
q-14 0 -22.5 8.5t-8.5 20.5q0 30 31 30q13 0 22.5 -8t9.5 -22q0 -12 -9.5 -20.5t-22.5 -8.5z" />
    <glyph glyph-name="divide" unicode="&#xf7;" horiz-adv-x="527" 
d="M262 179q-14 0 -23.5 8.5t-9.5 21.5q0 14 9.5 22.5t23.5 8.5t23.5 -8.5t9.5 -22.5q0 -13 -9.5 -21.5t-23.5 -8.5zM262 477q-14 0 -23.5 8.5t-9.5 21.5q0 14 9.5 22.5t23.5 8.5t23.5 -8.5t9.5 -22.5q0 -13 -9.5 -21.5t-23.5 -8.5zM80 337v43h367v-43h-367z" />
    <glyph glyph-name="oslash" unicode="&#xf8;" horiz-adv-x="577" 
d="M545 240q0 -64 -23 -114.5t-61.5 -80.5t-85.5 -45.5t-97.5 -13t-96.5 20.5l-35 -61h-40l44 76q-118 69 -118 218q0 65 24.5 116.5t64.5 82t89 45t101 10.5t97 -26l36 62h41l-46 -79q106 -69 106 -211zM465 240q0 81 -49 133t-127 52q-80 0 -129 -52t-49 -133
q0 -80 50 -132t128 -52t127 52t49 132zM455 240q0 -76 -46 -125t-120 -49t-121 49t-47 125t47 125.5t121 49.5q75 0 120.5 -49t45.5 -126zM202 240q0 -49 28 -80l101 174q-28 14 -57 11t-50.5 -31.5t-21.5 -73.5zM377 240q0 42 -20 70l-98 -169q42 -17 80 10t38 89z" />
    <glyph glyph-name="ugrave" unicode="&#xf9;" horiz-adv-x="609" 
d="M366 210v272h168v-332q0 -19 0.5 -26t4 -16.5t12.5 -12.5t25 -3v-89q-34 -13 -66 -18.5t-68 3.5t-53 40q-52 -43 -138 -43q-95 0 -147.5 63t-50.5 160v274h171v-274q-2 -40 19 -61.5t52 -21.5q30 0 50.5 22.5t20.5 62.5zM518 44v9q-34 -5 -47.5 9.5t-13.5 51.5v302h-11
v-176q0 -75 -50 -125.5t-126 -50.5q-62 0 -95 39t-33 105v209h-10v-209q0 -71 35.5 -111.5t102.5 -40.5q66 0 112.5 33t63.5 92v-67q0 -41 16.5 -58t55.5 -12zM325 592v-3h-41l-80 104v4l40 19z" />
    <glyph glyph-name="uacute" unicode="&#xfa;" horiz-adv-x="609" 
d="M366 210v272h168v-332q0 -19 0.5 -26t4 -16.5t12.5 -12.5t25 -3v-89q-34 -13 -66 -18.5t-68 3.5t-53 40q-52 -43 -138 -43q-95 0 -147.5 63t-50.5 160v274h171v-274q-2 -40 19 -61.5t52 -21.5q30 0 50.5 22.5t20.5 62.5zM518 44v9q-34 -5 -47.5 9.5t-13.5 51.5v302h-11
v-176q0 -75 -50 -125.5t-126 -50.5q-62 0 -95 39t-33 105v209h-10v-209q0 -71 35.5 -111.5t102.5 -40.5q66 0 112.5 33t63.5 92v-67q0 -41 16.5 -58t55.5 -12zM265 585v3l81 123l40 -19v-4l-79 -103h-42z" />
    <glyph glyph-name="ucircumflex" unicode="&#xfb;" horiz-adv-x="609" 
d="M366 210v272h168v-332q0 -19 0.5 -26t4 -16.5t12.5 -12.5t25 -3v-89q-34 -13 -66 -18.5t-68 3.5t-53 40q-52 -43 -138 -43q-95 0 -147.5 63t-50.5 160v274h171v-274q-2 -40 19 -61.5t52 -21.5q30 0 50.5 22.5t20.5 62.5zM518 44v9q-34 -5 -47.5 9.5t-13.5 51.5v302h-11
v-176q0 -75 -50 -125.5t-126 -50.5q-62 0 -95 39t-33 105v209h-10v-209q0 -71 35.5 -111.5t102.5 -40.5q66 0 112.5 33t63.5 92v-67q0 -41 16.5 -58t55.5 -12zM447 596h-50l-103 94l-105 -94h-50v5l131 118h47l130 -119v-4z" />
    <glyph glyph-name="udieresis" unicode="&#xfc;" horiz-adv-x="609" 
d="M366 210v272h168v-332q0 -19 0.5 -26t4 -16.5t12.5 -12.5t25 -3v-89q-34 -13 -66 -18.5t-68 3.5t-53 40q-52 -43 -138 -43q-95 0 -147.5 63t-50.5 160v274h171v-274q-2 -40 19 -61.5t52 -21.5q30 0 50.5 22.5t20.5 62.5zM518 44v9q-34 -5 -47.5 9.5t-13.5 51.5v302h-11
v-176q0 -75 -50 -125.5t-126 -50.5q-62 0 -95 39t-33 105v209h-10v-209q0 -71 35.5 -111.5t102.5 -40.5q66 0 112.5 33t63.5 92v-67q0 -41 16.5 -58t55.5 -12zM191 640q-15 0 -24 9t-9 21q0 32 33 32q15 0 24 -8.5t9 -23.5q0 -12 -9.5 -21t-23.5 -9zM405 640q-15 0 -24 9
t-9 21q0 32 33 32q13 0 23 -9t10 -23q0 -12 -10 -21t-23 -9z" />
    <glyph glyph-name="yacute" unicode="&#xfd;" horiz-adv-x="562" 
d="M552 463l-201 -517q-36 -90 -76.5 -135t-100.5 -55.5t-140 28.5l16 109q57 -23 90 -7.5t52 74.5l14 40l-207 463v19h182l104 -284h6l89 284h172v-19zM453 425h-13l-151 -406l-172 406h-11l178 -420q-3 -7 -10.5 -27.5t-12.5 -31.5q-29 -73 -46 -93q-36 -43 -112 -28
l-2 -9q20 -5 37.5 -6t32 4t25.5 10t21.5 18.5t16.5 20.5t15 26t12 26t11 28q34 88 95 252.5t86 229.5zM255 579v3l86 131l42 -20v-5l-84 -109h-44z" />
    <glyph glyph-name="thorn" unicode="&#xfe;" horiz-adv-x="583" 
d="M60 -248v971h171v-248q61 28 119 19t102.5 -41.5t71.5 -88t27 -120.5t-27 -121t-71.5 -89.5t-102.5 -43t-119 18.5v-257h-171zM149 665h-11v-855h11v296q64 -43 147 -48q80 0 129 52t47 134q2 81 -46.5 131.5t-129.5 50.5q-83 -5 -147 -48v287zM149 119v246q63 50 147 50
q77 0 121.5 -47t44.5 -124t-45 -126t-121 -49q-84 0 -147 50zM225 331v-178q63 -31 109 -4.5t46 95.5t-46 93.5t-109 -6.5z" />
    <glyph glyph-name="ydieresis" unicode="&#xff;" horiz-adv-x="562" 
d="M552 463l-201 -517q-36 -90 -76.5 -135t-100.5 -55.5t-140 28.5l16 109q57 -23 90 -7.5t52 74.5l14 40l-207 463v19h182l104 -284h6l89 284h172v-19zM453 425h-13l-151 -406l-172 406h-11l178 -420q-3 -7 -10.5 -27.5t-12.5 -31.5q-29 -73 -46 -93q-36 -43 -112 -28
l-2 -9q20 -5 37.5 -6t32 4t25.5 10t21.5 18.5t16.5 20.5t15 26t12 26t11 28q34 88 95 252.5t86 229.5zM173 629q-15 0 -24.5 9t-9.5 22q0 15 9.5 24t24.5 9t24.5 -9t9.5 -24q0 -13 -10 -22t-24 -9zM392 629q-15 0 -24.5 9t-9.5 22q0 15 9.5 24t24.5 9t24.5 -9t9.5 -24
q0 -13 -10 -22t-24 -9z" />
    <glyph glyph-name="Amacron" unicode="&#x100;" horiz-adv-x="686" 
d="M154 178l188 407h1l190 -407h-379zM522 0l-41 88h-276l-41 -88h-175v26l315 683h77l316 -683v-26h-175zM596 68l-251 539h-6l-249 -539h13l47 99h387l46 -99h13zM416 249l-74 161l-72 -161h146zM200 779v41h286v-41h-286z" />
    <glyph glyph-name="amacron" unicode="&#x101;" horiz-adv-x="557" 
d="M357 67q-17 -41 -60.5 -59.5t-94.5 -18.5q-68 0 -118 42t-52 111q-4 87 47 134.5t137 47.5q69 0 109 -30v11q0 57 -106 57q-79 0 -131 -24l-22 118q81 36 183 36q241 0 241 -190v-155q0 -18 0.5 -25t4 -16.5t12.5 -12.5t25 -3v-90q-29 -8 -55.5 -10.5t-53.5 2t-44.5 23.5
t-21.5 52zM405 189v-52q0 -50 15 -76t54 -24v7q-35 -2 -47 22.5t-12 70.5v146q0 154 -166 154q-55 0 -114 -18l3 -8q60 17 111 17q78 0 117 -34.5t39 -110.5v-84q-99 69 -169 69q-57 0 -93 -29t-36 -86q0 -51 32.5 -77t85.5 -26q66 0 113 50l-4 6q-46 -48 -109 -48
q-48 0 -78 23.5t-32 71.5q0 52 33.5 79t87.5 27q37 0 85 -21.5t84 -48.5zM323 178v8q-32 22 -77 22q-26 -2 -40.5 -16.5t-9.5 -38.5q5 -30 45 -30q30 0 56 14.5t26 40.5zM128 624v41h286v-41h-286z" />
    <glyph glyph-name="Abreve" unicode="&#x102;" horiz-adv-x="686" 
d="M154 178l188 407h1l190 -407h-379zM522 0l-41 88h-276l-41 -88h-175v26l315 683h77l316 -683v-26h-175zM596 68l-251 539h-6l-249 -539h13l47 99h387l46 -99h13zM416 249l-74 161l-72 -161h146zM187 890h42q7 -32 30.5 -53t54 -26t61 0t54 26t30.5 53h43
q-7 -47 -39.5 -78t-75 -38.5t-85.5 0t-75.5 39t-39.5 77.5z" />
    <glyph glyph-name="abreve" unicode="&#x103;" horiz-adv-x="557" 
d="M357 67q-17 -41 -60.5 -59.5t-94.5 -18.5q-68 0 -118 42t-52 111q-4 87 47 134.5t137 47.5q69 0 109 -30v11q0 57 -106 57q-79 0 -131 -24l-22 118q81 36 183 36q241 0 241 -190v-155q0 -18 0.5 -25t4 -16.5t12.5 -12.5t25 -3v-90q-29 -8 -55.5 -10.5t-53.5 2t-44.5 23.5
t-21.5 52zM405 189v-52q0 -50 15 -76t54 -24v7q-35 -2 -47 22.5t-12 70.5v146q0 154 -166 154q-55 0 -114 -18l3 -8q60 17 111 17q78 0 117 -34.5t39 -110.5v-84q-99 69 -169 69q-57 0 -93 -29t-36 -86q0 -51 32.5 -77t85.5 -26q66 0 113 50l-4 6q-46 -48 -109 -48
q-48 0 -78 23.5t-32 71.5q0 52 33.5 79t87.5 27q37 0 85 -21.5t84 -48.5zM323 178v8q-32 22 -77 22q-26 -2 -40.5 -16.5t-9.5 -38.5q5 -30 45 -30q30 0 56 14.5t26 40.5zM124 696h39q7 -37 38.5 -58t66.5 -21t66.5 21t38.5 58h39q-6 -45 -35 -74.5t-68 -36.5t-78.5 0.5
t-69.5 37t-37 73.5z" />
    <glyph glyph-name="Aogonek" unicode="&#x104;" horiz-adv-x="686" 
d="M154 178l188 407h1l190 -407h-379zM596 68l-251 539h-6l-249 -539h13l47 99h387l46 -99h13zM416 249l-74 161l-72 -161h146zM522 0l-41 88h-276l-41 -88h-175v26l315 683h77l316 -683v-26h-80q-31 -20 -47.5 -53.5t-1.5 -60.5q38 -64 136 -15l5 -35q-32 -16 -66 -21
t-66 8t-47 47q-15 39 -2 71.5t46 58.5h-52z" />
    <glyph glyph-name="aogonek" unicode="&#x105;" horiz-adv-x="557" 
d="M405 189v-52q0 -50 15 -76t54 -24v7q-35 -2 -47 22.5t-12 70.5v146q0 154 -166 154q-55 0 -114 -18l3 -8q60 17 111 17q78 0 117 -34.5t39 -110.5v-84q-99 69 -169 69q-57 0 -93 -29t-36 -86q0 -51 32.5 -77t85.5 -26q66 0 113 50l-4 6q-46 -48 -109 -48q-48 0 -78 23.5
t-32 71.5q0 52 33.5 79t87.5 27q37 0 85 -21.5t84 -48.5zM323 178v8q-32 22 -77 22q-26 -2 -40.5 -16.5t-9.5 -38.5q5 -30 45 -30q30 0 56 14.5t26 40.5zM357 67q-17 -41 -60.5 -59.5t-94.5 -18.5q-68 0 -118 42t-52 111q-4 87 47 134.5t137 47.5q69 0 109 -30v11
q0 57 -106 57q-79 0 -131 -24l-22 118q81 36 183 36q241 0 241 -190v-155q0 -18 0.5 -25t4 -16.5t12.5 -12.5t25 -3v-90q-19 -4 -54 -10q-30 -21 -46 -51t-1 -58q13 -22 36.5 -29t46.5 -2t45 17l5 -33q-30 -16 -62 -20.5t-62.5 8t-44.5 44.5q-14 36 -2.5 68t43.5 55
q-70 9 -79 78z" />
    <glyph glyph-name="Cacute" unicode="&#x106;" horiz-adv-x="760" 
d="M38 350q0 113 53.5 196.5t133.5 122.5t172 39q76 0 143.5 -26.5t120 -88.5t65.5 -151h-176q-36 103 -153 103q-78 0 -126 -54t-48 -141q0 -80 48.5 -137t125.5 -57q59 0 100.5 29t55.5 84h176q-10 -71 -42 -125.5t-78.5 -86.5t-100 -48t-111.5 -16q-68 0 -131 23
t-114.5 66t-82.5 112.5t-31 155.5zM623 206h-12q-65 -126 -214 -126q-104 0 -182.5 73t-78.5 197q0 125 78.5 198.5t182.5 73.5q145 0 210 -116h12q-70 125 -222 125q-109 0 -190 -76t-81 -205t81 -204.5t190 -75.5q73 0 133.5 35.5t92.5 100.5zM364 774v3l86 131l42 -20v-5
l-84 -109h-44z" />
    <glyph glyph-name="cacute" unicode="&#x107;" horiz-adv-x="565" 
d="M537 292h-161q-15 42 -56.5 52t-78 -19t-36.5 -85q0 -44 22.5 -72.5t51.5 -34.5t57.5 10t39.5 52h161q-8 -70 -48.5 -119.5t-96.5 -70.5t-119 -17t-116.5 31.5t-88.5 85.5t-35 135t34.5 135t87 86t115.5 33t118.5 -15t97 -69t51.5 -118zM436 346h10q-21 37 -61.5 57.5
t-89.5 20.5q-80 0 -131.5 -51.5t-51.5 -132.5q0 -80 52 -131t133 -53q49 0 89 21t63 60h-10q-44 -71 -142 -71q-75 0 -125 49.5t-50 124.5t49.5 125t122.5 50q98 0 142 -69zM262 582v3l84 119l40 -18v-4l-81 -100h-43z" />
    <glyph glyph-name="Ccircumflex" unicode="&#x108;" horiz-adv-x="760" 
d="M38 350q0 113 53.5 196.5t133.5 122.5t172 39q76 0 143.5 -26.5t120 -88.5t65.5 -151h-176q-36 103 -153 103q-78 0 -126 -54t-48 -141q0 -80 48.5 -137t125.5 -57q59 0 100.5 29t55.5 84h176q-10 -71 -42 -125.5t-78.5 -86.5t-100 -48t-111.5 -16q-68 0 -131 23
t-114.5 66t-82.5 112.5t-31 155.5zM623 206h-12q-65 -126 -214 -126q-104 0 -182.5 73t-78.5 197q0 125 78.5 198.5t182.5 73.5q145 0 210 -116h12q-70 125 -222 125q-109 0 -190 -76t-81 -205t81 -204.5t190 -75.5q73 0 133.5 35.5t92.5 100.5zM550 769h-52l-108 98
l-110 -98h-52v5l137 124h49l136 -125v-4z" />
    <glyph glyph-name="ccircumflex" unicode="&#x109;" horiz-adv-x="565" 
d="M537 292h-161q-15 42 -56.5 52t-78 -19t-36.5 -85q0 -44 22.5 -72.5t51.5 -34.5t57.5 10t39.5 52h161q-8 -70 -48.5 -119.5t-96.5 -70.5t-119 -17t-116.5 31.5t-88.5 85.5t-35 135t34.5 135t87 86t115.5 33t118.5 -15t97 -69t51.5 -118zM436 346h10q-21 37 -61.5 57.5
t-89.5 20.5q-80 0 -131.5 -51.5t-51.5 -132.5q0 -80 52 -131t133 -53q49 0 89 21t63 60h-10q-44 -71 -142 -71q-75 0 -125 49.5t-50 124.5t49.5 125t122.5 50q98 0 142 -69zM444 581h-48l-99 94l-100 -94h-48v5l125 118h45l125 -119v-4z" />
    <glyph glyph-name="Cdotaccent" unicode="&#x10a;" horiz-adv-x="760" 
d="M38 350q0 113 53.5 196.5t133.5 122.5t172 39q76 0 143.5 -26.5t120 -88.5t65.5 -151h-176q-36 103 -153 103q-78 0 -126 -54t-48 -141q0 -80 48.5 -137t125.5 -57q59 0 100.5 29t55.5 84h176q-10 -71 -42 -125.5t-78.5 -86.5t-100 -48t-111.5 -16q-68 0 -131 23
t-114.5 66t-82.5 112.5t-31 155.5zM623 206h-12q-65 -126 -214 -126q-104 0 -182.5 73t-78.5 197q0 125 78.5 198.5t182.5 73.5q145 0 210 -116h12q-70 125 -222 125q-109 0 -190 -76t-81 -205t81 -204.5t190 -75.5q73 0 133.5 35.5t92.5 100.5zM403 786q-14 0 -23.5 8.5
t-9.5 21.5q0 14 9.5 22.5t23.5 8.5t23.5 -8.5t9.5 -22.5q0 -13 -9.5 -21.5t-23.5 -8.5z" />
    <glyph glyph-name="cdotaccent" unicode="&#x10b;" horiz-adv-x="565" 
d="M537 292h-161q-15 42 -56.5 52t-78 -19t-36.5 -85q0 -44 22.5 -72.5t51.5 -34.5t57.5 10t39.5 52h161q-8 -70 -48.5 -119.5t-96.5 -70.5t-119 -17t-116.5 31.5t-88.5 85.5t-35 135t34.5 135t87 86t115.5 33t118.5 -15t97 -69t51.5 -118zM436 346h10q-21 37 -61.5 57.5
t-89.5 20.5q-80 0 -131.5 -51.5t-51.5 -132.5q0 -80 52 -131t133 -53q49 0 89 21t63 60h-10q-44 -71 -142 -71q-75 0 -125 49.5t-50 124.5t49.5 125t122.5 50q98 0 142 -69zM291 619q-13 0 -21.5 7.5t-8.5 19.5t8.5 19.5t21.5 7.5t22 -7.5t9 -19.5t-9 -19.5t-22 -7.5z" />
    <glyph glyph-name="Ccaron" unicode="&#x10c;" horiz-adv-x="760" 
d="M38 350q0 113 53.5 196.5t133.5 122.5t172 39q76 0 143.5 -26.5t120 -88.5t65.5 -151h-176q-36 103 -153 103q-78 0 -126 -54t-48 -141q0 -80 48.5 -137t125.5 -57q59 0 100.5 29t55.5 84h176q-10 -71 -42 -125.5t-78.5 -86.5t-100 -48t-111.5 -16q-68 0 -131 23
t-114.5 66t-82.5 112.5t-31 155.5zM623 206h-12q-65 -126 -214 -126q-104 0 -182.5 73t-78.5 197q0 125 78.5 198.5t182.5 73.5q145 0 210 -116h12q-70 125 -222 125q-109 0 -190 -76t-81 -205t81 -204.5t190 -75.5q73 0 133.5 35.5t92.5 100.5zM238 904h50l106 -97l109 97
h51v-6l-135 -122h-47l-134 124v4z" />
    <glyph glyph-name="ccaron" unicode="&#x10d;" horiz-adv-x="565" 
d="M537 292h-161q-15 42 -56.5 52t-78 -19t-36.5 -85q0 -44 22.5 -72.5t51.5 -34.5t57.5 10t39.5 52h161q-8 -70 -48.5 -119.5t-96.5 -70.5t-119 -17t-116.5 31.5t-88.5 85.5t-35 135t34.5 135t87 86t115.5 33t118.5 -15t97 -69t51.5 -118zM436 346h10q-21 37 -61.5 57.5
t-89.5 20.5q-80 0 -131.5 -51.5t-51.5 -132.5q0 -80 52 -131t133 -53q49 0 89 21t63 60h-10q-44 -71 -142 -71q-75 0 -125 49.5t-50 124.5t49.5 125t122.5 50q98 0 142 -69zM140 700h50l104 -94l106 94h50v-5l-132 -120h-46l-132 122v3z" />
    <glyph glyph-name="Dcaron" unicode="&#x10e;" horiz-adv-x="719" 
d="M75 700h264q109 0 189 -52t116 -129.5t36 -168.5t-36 -168.5t-116 -129.5t-189 -52h-264v700zM162 625v-550h175q63 0 114 23.5t82 62.5t48 88t17 101t-17 101t-48 88t-82 62.5t-114 23.5h-175zM337 86h-166v529h166q80 0 139 -39t85.5 -98t26.5 -127.5t-26.5 -127.5
t-85.5 -98t-139 -39zM254 537v-374h85q46 0 82 20.5t54.5 53.5t27.5 73t0 80t-27.5 73t-54.5 53.5t-82 20.5h-85zM148 894h49l103 -93l105 93h50v-5l-131 -119h-46l-130 121v3z" />
    <glyph glyph-name="dcaron" unicode="&#x10f;" horiz-adv-x="603" 
d="M390 61v6q-41 -80 -136 -82q-103 -2 -162 70.5t-59 182.5q0 136 99.5 211t221.5 22v257h171v-581q0 -40 7 -48q9 -9 34 -9v-92q-30 -7 -56.5 -9.5t-55.5 1t-46.5 21.5t-17.5 50zM444 131v539h-9v-300q-68 48 -150 52q-74 0 -123 -52.5t-49 -129.5q0 -81 36.5 -132.5
t115.5 -51.5q40 0 82 31l-7 6q-29 -26 -75 -26q-74 0 -108.5 48.5t-34.5 124.5q0 73 46 122t117 49q82 0 150 -52v-228q0 -42 15 -65.5t59 -23.5v9q-39 -2 -52 20t-13 60zM360 221v106q-64 29 -110 3.5t-46 -92.5q0 -44 20 -74t61 -30q34 0 54.5 26.5t20.5 60.5zM668 685
q-1 -11 -5 -21l-21 -68h-34l19 64q-24 6 -24 31q0 14 9 22t24 8q27 0 32 -24q2 -7 0 -12z" />
    <glyph glyph-name="Dcroat" unicode="&#x110;" horiz-adv-x="723" 
d="M79 700h264q109 0 189 -52t116 -129.5t36 -168.5t-36 -168.5t-116 -129.5t-189 -52h-264v326h-67v39h67v335zM166 625v-550h175q63 0 114 23.5t82 62.5t48 88t17 101t-17 101t-48 88t-82 62.5t-114 23.5h-175zM341 86h-166v529h166q80 0 139 -39t85.5 -98t26.5 -127.5
t-26.5 -127.5t-85.5 -98t-139 -39zM258 326v-163h85q46 0 82 20.5t54.5 53.5t27.5 73t0 80t-27.5 73t-54.5 53.5t-82 20.5h-85v-172h94v-39h-94z" />
    <glyph glyph-name="dcroat" unicode="&#x111;" horiz-adv-x="603" 
d="M390 61v6q-41 -80 -136 -82q-103 -2 -162 70.5t-59 182.5q0 136 99.5 211t221.5 22v120h-82v37h82v100h171v-100h61v-37h-61v-444q0 -40 7 -48q9 -9 34 -9v-92q-30 -7 -56.5 -9.5t-55.5 1t-46.5 21.5t-17.5 50zM360 221v106q-64 29 -110 3.5t-46 -92.5q0 -44 20 -74
t61 -30q34 0 54.5 26.5t20.5 60.5zM444 131v539h-9v-300q-68 48 -150 52q-74 0 -123 -52.5t-49 -129.5q0 -81 36.5 -132.5t115.5 -51.5q40 0 82 31l-7 6q-29 -26 -75 -26q-74 0 -108.5 48.5t-34.5 124.5q0 73 46 122t117 49q82 0 150 -52v-228q0 -42 15 -65.5t59 -23.5v9
q-39 -2 -52 20t-13 60z" />
    <glyph glyph-name="Emacron" unicode="&#x112;" horiz-adv-x="571" 
d="M159 626v-552h294v10h-283v273h254v10h-254v249h274v10h-285zM512 700v-160h-259v-99h238v-159h-238v-123h268v-159h-446v700h437zM156 781v41h286v-41h-286z" />
    <glyph glyph-name="emacron" unicode="&#x113;" horiz-adv-x="551" 
d="M288 492q137 -2 192 -83t23 -210h-298q5 -44 36 -60t83 -19q88 0 164 33l18 -122q-96 -45 -193 -45q-126 0 -203.5 67t-77.5 187q0 62 22.5 112t60 79.5t82 45t91.5 15.5zM438 66l-2 9q-63 -17 -117 -17q-92 0 -147 46.5t-53 139.5h322q14 76 -28 128.5t-122 52.5
q-81 0 -130 -48t-53 -129q-2 -99 55.5 -149.5t155.5 -50.5q52 0 119 18zM433 253h-314q4 73 50.5 117.5t121.5 44.5q73 0 113.5 -45t28.5 -117zM205 300h155q3 32 -18.5 47t-53.5 15q-29 0 -53.5 -16.5t-29.5 -45.5zM145 627v41h286v-41h-286z" />
    <glyph glyph-name="Ebreve" unicode="&#x114;" horiz-adv-x="571" 
d="M159 626v-552h294v10h-283v273h254v10h-254v249h274v10h-285zM512 700v-160h-259v-99h238v-159h-238v-123h268v-159h-446v700h437zM137 881h41q9 -39 42.5 -60t71 -21t71 21.5t42.5 59.5h43q-7 -46 -39 -77t-74 -38t-84.5 0.5t-74.5 38.5t-39 76z" />
    <glyph glyph-name="ebreve" unicode="&#x115;" horiz-adv-x="551" 
d="M288 492q137 -2 192 -83t23 -210h-298q5 -44 36 -60t83 -19q88 0 164 33l18 -122q-96 -45 -193 -45q-126 0 -203.5 67t-77.5 187q0 62 22.5 112t60 79.5t82 45t91.5 15.5zM438 66l-2 9q-63 -17 -117 -17q-92 0 -147 46.5t-53 139.5h322q14 76 -28 128.5t-122 52.5
q-81 0 -130 -48t-53 -129q-2 -99 55.5 -149.5t155.5 -50.5q52 0 119 18zM433 253h-314q4 73 50.5 117.5t121.5 44.5q73 0 113.5 -45t28.5 -117zM205 300h155q3 32 -18.5 47t-53.5 15q-29 0 -53.5 -16.5t-29.5 -45.5zM142 693h37q7 -35 38 -55t65.5 -20t65.5 20t38 55h39
q-7 -42 -36.5 -70t-68 -35t-77 0t-67 35t-34.5 70z" />
    <glyph glyph-name="Edotaccent" unicode="&#x116;" horiz-adv-x="571" 
d="M159 626v-552h294v10h-283v273h254v10h-254v249h274v10h-285zM512 700v-160h-259v-99h238v-159h-238v-123h268v-159h-446v700h437zM292 774q-14 0 -23.5 8.5t-9.5 21.5q0 14 9.5 22.5t23.5 8.5t23.5 -8.5t9.5 -22.5q0 -13 -9.5 -21.5t-23.5 -8.5z" />
    <glyph glyph-name="edotaccent" unicode="&#x117;" horiz-adv-x="551" 
d="M288 492q137 -2 192 -83t23 -210h-298q5 -44 36 -60t83 -19q88 0 164 33l18 -122q-96 -45 -193 -45q-126 0 -203.5 67t-77.5 187q0 62 22.5 112t60 79.5t82 45t91.5 15.5zM438 66l-2 9q-63 -17 -117 -17q-92 0 -147 46.5t-53 139.5h322q14 76 -28 128.5t-122 52.5
q-81 0 -130 -48t-53 -129q-2 -99 55.5 -149.5t155.5 -50.5q52 0 119 18zM433 253h-314q4 73 50.5 117.5t121.5 44.5q73 0 113.5 -45t28.5 -117zM205 300h155q3 32 -18.5 47t-53.5 15q-29 0 -53.5 -16.5t-29.5 -45.5zM290 612q-14 0 -23.5 8t-9.5 20q0 13 9.5 20.5t23.5 7.5
t23.5 -7.5t9.5 -20.5q0 -12 -9.5 -20t-23.5 -8z" />
    <glyph glyph-name="Eogonek" unicode="&#x118;" horiz-adv-x="571" 
d="M512 700v-160h-259v-99h238v-159h-238v-123h268v-159h-63q-30 -20 -46.5 -53t-1.5 -60q38 -64 136 -15l5 -35q-32 -16 -66 -21t-66 8t-47 47q-14 37 -1 69.5t44 59.5h-340v700h437zM159 626v-552h294v10h-283v273h254v10h-254v249h274v10h-285z" />
    <glyph glyph-name="eogonek" unicode="&#x119;" horiz-adv-x="553" 
d="M438 66l-2 9q-63 -17 -117 -17q-92 0 -147 46.5t-53 139.5h322q14 76 -28 128.5t-122 52.5q-81 0 -130 -48t-53 -129q-2 -99 55.5 -149.5t155.5 -50.5q52 0 119 18zM433 253h-314q4 73 50.5 117.5t121.5 44.5q73 0 113.5 -45t28.5 -117zM205 300h155q3 32 -18.5 47
t-53.5 15q-29 0 -53.5 -16.5t-29.5 -45.5zM288 492q137 -2 192 -83t23 -210h-298q5 -44 36 -60t83 -19q88 0 164 33l18 -122q-24 -13 -63 -25q-30 -18 -47.5 -50t-2.5 -60q13 -22 37 -29t47 -2t45 17l5 -34q-22 -11 -46.5 -16.5t-48.5 -4t-44.5 15t-30.5 38.5q-26 57 29 112
q-42 -7 -73 -7q-126 0 -203.5 67t-77.5 187q0 62 22.5 112t60 79.5t82 45t91.5 15.5z" />
    <glyph glyph-name="Ecaron" unicode="&#x11a;" horiz-adv-x="571" 
d="M159 626v-552h294v10h-283v273h254v10h-254v249h274v10h-285zM512 700v-160h-259v-99h238v-159h-238v-123h268v-159h-446v700h437zM133 886h50l104 -94l106 94h50v-5l-132 -120h-46l-132 122v3z" />
    <glyph glyph-name="ecaron" unicode="&#x11b;" horiz-adv-x="551" 
d="M288 492q137 -2 192 -83t23 -210h-298q5 -44 36 -60t83 -19q88 0 164 33l18 -122q-96 -45 -193 -45q-126 0 -203.5 67t-77.5 187q0 62 22.5 112t60 79.5t82 45t91.5 15.5zM438 66l-2 9q-63 -17 -117 -17q-92 0 -147 46.5t-53 139.5h322q14 76 -28 128.5t-122 52.5
q-81 0 -130 -48t-53 -129q-2 -99 55.5 -149.5t155.5 -50.5q52 0 119 18zM433 253h-314q4 73 50.5 117.5t121.5 44.5q73 0 113.5 -45t28.5 -117zM205 300h155q3 32 -18.5 47t-53.5 15q-29 0 -53.5 -16.5t-29.5 -45.5zM133 694h47l101 -92l102 92h49v-5l-128 -117h-45
l-126 118v4z" />
    <glyph glyph-name="Gcircumflex" unicode="&#x11c;" horiz-adv-x="766" 
d="M38 350q0 86 31 156t82.5 113.5t114.5 66.5t131 23q115 0 206 -63t116 -185h-176q-22 45 -56.5 64.5t-89.5 19.5q-81 0 -127.5 -55.5t-46.5 -139.5q0 -87 47.5 -139.5t126.5 -52.5q57 0 92 19t58 67h-149v155h331q7 -128 -20 -205q-36 -104 -121 -153t-191 -49
q-68 0 -131 23t-114.5 66t-82.5 113t-31 156zM466 330v-11h174q-2 -107 -69.5 -173t-173.5 -66q-114 0 -187.5 76t-73.5 194q0 117 73.5 194t187.5 77q63 0 118.5 -27.5t86.5 -79.5h12q-33 56 -92.5 86t-124.5 30q-70 0 -131 -31t-101 -96.5t-40 -152.5t40 -152.5t101 -96.5
t131 -31q108 0 181 70t73 179v11h-185zM555 771h-52l-108 98l-110 -98h-52v5l137 124h49l136 -125v-4z" />
    <glyph glyph-name="gcircumflex" unicode="&#x11d;" horiz-adv-x="582" 
d="M361 -3v8q-139 -57 -233 12.5t-94 220.5q2 133 80 194t200 59q104 0 210 -44v-450q0 -96 -42 -159.5t-108 -86.5t-147 -14t-158 50l20 129q43 -22 87 -33t87.5 -9.5t70.5 32.5t27 91zM437 101v-131q0 -78 -50 -121.5t-131 -43.5q-58 0 -119 29l-3 -9q62 -30 122 -30
q86 0 138.5 46.5t52.5 128.5v423q-68 33 -145 33q-87 0 -137 -49t-50 -136q0 -85 41.5 -137.5t121.5 -52.5q86 0 159 50zM278 60q-76 0 -114.5 49.5t-38.5 131.5q0 84 46.5 130t130.5 46q68 0 135 -29v-277q-73 -51 -159 -51zM358 145v199q-37 8 -60 8q-93 0 -93 -111
q-2 -74 44.5 -100t108.5 4zM458 576h-49l-101 98l-103 -98h-49v5l128 124h46l128 -125v-4z" />
    <glyph glyph-name="Gbreve" unicode="&#x11e;" horiz-adv-x="766" 
d="M38 350q0 86 31 156t82.5 113.5t114.5 66.5t131 23q115 0 206 -63t116 -185h-176q-22 45 -56.5 64.5t-89.5 19.5q-81 0 -127.5 -55.5t-46.5 -139.5q0 -87 47.5 -139.5t126.5 -52.5q57 0 92 19t58 67h-149v155h331q7 -128 -20 -205q-36 -104 -121 -153t-191 -49
q-68 0 -131 23t-114.5 66t-82.5 113t-31 156zM466 330v-11h174q-2 -107 -69.5 -173t-173.5 -66q-114 0 -187.5 76t-73.5 194q0 117 73.5 194t187.5 77q63 0 118.5 -27.5t86.5 -79.5h12q-33 56 -92.5 86t-124.5 30q-70 0 -131 -31t-101 -96.5t-40 -152.5t40 -152.5t101 -96.5
t131 -31q108 0 181 70t73 179v11h-185zM226 887h43q9 -40 44 -62.5t74 -22.5t74 22.5t44 62.5h44q-7 -48 -40 -80t-77 -39.5t-88.5 0.5t-77.5 40t-40 79z" />
    <glyph glyph-name="gbreve" unicode="&#x11f;" horiz-adv-x="582" 
d="M361 -3v8q-139 -57 -233 12.5t-94 220.5q2 133 80 194t200 59q104 0 210 -44v-450q0 -96 -42 -159.5t-108 -86.5t-147 -14t-158 50l20 129q43 -22 87 -33t87.5 -9.5t70.5 32.5t27 91zM437 101v-131q0 -78 -50 -121.5t-131 -43.5q-58 0 -119 29l-3 -9q62 -30 122 -30
q86 0 138.5 46.5t52.5 128.5v423q-68 33 -145 33q-87 0 -137 -49t-50 -136q0 -85 41.5 -137.5t121.5 -52.5q86 0 159 50zM278 60q-76 0 -114.5 49.5t-38.5 131.5q0 84 46.5 130t130.5 46q68 0 135 -29v-277q-73 -51 -159 -51zM358 145v199q-37 8 -60 8q-93 0 -93 -111
q-2 -74 44.5 -100t108.5 4zM159 694h40q9 -37 41.5 -58t68.5 -21.5t68.5 20.5t39.5 59h41q-7 -45 -38 -75t-71 -37t-80.5 0t-71.5 37.5t-38 74.5z" />
    <glyph glyph-name="Gdotaccent" unicode="&#x120;" horiz-adv-x="766" 
d="M38 350q0 86 31 156t82.5 113.5t114.5 66.5t131 23q115 0 206 -63t116 -185h-176q-22 45 -56.5 64.5t-89.5 19.5q-81 0 -127.5 -55.5t-46.5 -139.5q0 -87 47.5 -139.5t126.5 -52.5q57 0 92 19t58 67h-149v155h331q7 -128 -20 -205q-36 -104 -121 -153t-191 -49
q-68 0 -131 23t-114.5 66t-82.5 113t-31 156zM466 330v-11h174q-2 -107 -69.5 -173t-173.5 -66q-114 0 -187.5 76t-73.5 194q0 117 73.5 194t187.5 77q63 0 118.5 -27.5t86.5 -79.5h12q-33 56 -92.5 86t-124.5 30q-70 0 -131 -31t-101 -96.5t-40 -152.5t40 -152.5t101 -96.5
t131 -31q108 0 181 70t73 179v11h-185zM397 783q-14 0 -24 8t-10 21q0 14 9.5 22t24.5 8q34 0 34 -30q0 -13 -9.5 -21t-24.5 -8z" />
    <glyph glyph-name="gdotaccent" unicode="&#x121;" horiz-adv-x="582" 
d="M361 -3v8q-139 -57 -233 12.5t-94 220.5q2 133 80 194t200 59q104 0 210 -44v-450q0 -96 -42 -159.5t-108 -86.5t-147 -14t-158 50l20 129q43 -22 87 -33t87.5 -9.5t70.5 32.5t27 91zM437 101v-131q0 -78 -50 -121.5t-131 -43.5q-58 0 -119 29l-3 -9q62 -30 122 -30
q86 0 138.5 46.5t52.5 128.5v423q-68 33 -145 33q-87 0 -137 -49t-50 -136q0 -85 41.5 -137.5t121.5 -52.5q86 0 159 50zM278 60q-76 0 -114.5 49.5t-38.5 131.5q0 84 46.5 130t130.5 46q68 0 135 -29v-277q-73 -51 -159 -51zM358 145v199q-37 8 -60 8q-93 0 -93 -111
q-2 -74 44.5 -100t108.5 4zM319 611q-13 0 -22 8.5t-9 20.5q0 13 9 21t22 8t22 -8t9 -21q0 -12 -9 -20.5t-22 -8.5z" />
    <glyph glyph-name="Gcommaaccent" unicode="&#x122;" horiz-adv-x="766" 
d="M427 -130q-1 -4 -3 -11t-3 -11l-27 -86h-36l24 82q-26 5 -26 32q0 15 10 24t26 9q12 0 22.5 -7t12.5 -19v-13zM38 350q0 86 31 156t82.5 113.5t114.5 66.5t131 23q115 0 206 -63t116 -185h-176q-22 45 -56.5 64.5t-89.5 19.5q-81 0 -127.5 -55.5t-46.5 -139.5
q0 -87 47.5 -139.5t126.5 -52.5q57 0 92 19t58 67h-149v155h331q7 -128 -20 -205q-36 -104 -121 -153t-191 -49q-68 0 -131 23t-114.5 66t-82.5 113t-31 156zM466 330v-11h174q-2 -107 -69.5 -173t-173.5 -66q-114 0 -187.5 76t-73.5 194q0 117 73.5 194t187.5 77
q63 0 118.5 -27.5t86.5 -79.5h12q-33 56 -92.5 86t-124.5 30q-70 0 -131 -31t-101 -96.5t-40 -152.5t40 -152.5t101 -96.5t131 -31q108 0 181 70t73 179v11h-185z" />
    <glyph glyph-name="gcommaaccent" unicode="&#x123;" horiz-adv-x="582" 
d="M361 -3v8q-139 -57 -233 12.5t-94 220.5q2 133 80 194t200 59q104 0 210 -44v-450q0 -96 -42 -159.5t-108 -86.5t-147 -14t-158 50l20 129q43 -22 87 -33t87.5 -9.5t70.5 32.5t27 91zM437 101v-131q0 -78 -50 -121.5t-131 -43.5q-58 0 -119 29l-3 -9q62 -30 122 -30
q86 0 138.5 46.5t52.5 128.5v423q-68 33 -145 33q-87 0 -137 -49t-50 -136q0 -85 41.5 -137.5t121.5 -52.5q86 0 159 50zM278 60q-76 0 -114.5 49.5t-38.5 131.5q0 84 46.5 130t130.5 46q68 0 135 -29v-277q-73 -51 -159 -51zM358 145v199q-37 8 -60 8q-93 0 -93 -111
q-2 -74 44.5 -100t108.5 4zM284 625q2 12 5 20l21 63h32l-18 -60q23 -5 23 -27q0 -12 -9.5 -20.5t-22.5 -8.5q-26 0 -31 23q-1 7 0 10z" />
    <glyph glyph-name="Hcircumflex" unicode="&#x124;" horiz-adv-x="732" 
d="M657 700v-700h-183v281h-216v-281h-183v700h183v-254h216v254h183zM160 68h11v289h390v-289h10v565h-10v-264h-390v264h-11v-565zM524 770h-52l-108 98l-110 -98h-52v5l137 124h49l136 -125v-4z" />
    <glyph glyph-name="hcircumflex" unicode="&#x125;" horiz-adv-x="621" 
d="M60 727h169v-262q47 28 136 28q101 0 144 -57t43 -160v-125q0 -32 7.5 -43.5t36.5 -11.5v-94q-36 -9 -70.5 -10.5t-69.5 5.5t-56.5 33t-21.5 69v177q2 55 -35 74t-75.5 -4.5t-38.5 -72.5v-273h-169v727zM150 293v380h-10v-616h11v178q0 72 50.5 130t122.5 58t105 -37
t33 -110v-125q0 -58 14.5 -84t66.5 -24v9q-26 -1 -41.5 5t-21.5 22.5t-7 29.5t-1 42v125q0 157 -148 157q-61 0 -109.5 -41t-64.5 -99zM440 779h-50l-104 97l-106 -97h-50v5l132 123h47l131 -124v-4z" />
    <glyph glyph-name="Hbar" unicode="&#x126;" horiz-adv-x="741" 
d="M661 700v-103h69v-42h-69v-555h-183v281h-216v-281h-183v555h-63v42h63v103h183v-103h216v103h183zM262 446h216v109h-216v-109zM164 68h11v289h390v-289h10v565h-10v-264h-390v264h-11v-565z" />
    <glyph glyph-name="hbar" unicode="&#x127;" horiz-adv-x="621" 
d="M60 727h169v-106h85v-43h-85v-113q47 28 136 28q101 0 144 -57t43 -160v-125q0 -32 7.5 -43.5t36.5 -11.5v-94q-36 -9 -70.5 -10.5t-69.5 5.5t-56.5 33t-21.5 69v177q2 55 -35 74t-75.5 -4.5t-38.5 -72.5v-273h-169v578h-56v43h56v106zM150 293v380h-10v-616h11v178
q0 72 50.5 130t122.5 58t105 -37t33 -110v-125q0 -58 14.5 -84t66.5 -24v9q-26 -1 -41.5 5t-21.5 22.5t-7 29.5t-1 42v125q0 157 -148 157q-61 0 -109.5 -41t-64.5 -99z" />
    <glyph glyph-name="Itilde" unicode="&#x128;" horiz-adv-x="455" 
d="M223 83h-106v-10h220v10h-104v533h96v10h-203v-10h97v-533zM316 157h89v-157h-355v157h89v387h-82v156h341v-156h-82v-387zM110 781q-4 3 -15.5 8.5t-15.5 8.5q27 46 68.5 57t93.5 -19q31 -22 56.5 -18.5t46.5 38.5q6 -3 16 -9t12 -7q-24 -46 -62.5 -57t-87.5 18
q-71 44 -112 -20z" />
    <glyph glyph-name="itilde" unicode="&#x129;" horiz-adv-x="291" 
d="M231 479v-479h-171v479h171zM149 424h-8v-366h8v366zM44 608q-3 2 -13.5 8t-13.5 9q24 45 60 56t82 -19q27 -20 49 -17t41 37q5 -3 13 -8.5t11 -7.5q-21 -46 -54.5 -56.5t-76.5 18.5q-62 44 -98 -20z" />
    <glyph glyph-name="Imacron" unicode="&#x12a;" horiz-adv-x="455" 
d="M223 83h-106v-10h220v10h-104v533h96v10h-203v-10h97v-533zM316 157h89v-157h-355v157h89v387h-82v156h341v-156h-82v-387zM83 775v41h286v-41h-286z" />
    <glyph glyph-name="imacron" unicode="&#x12b;" horiz-adv-x="291" 
d="M231 479v-479h-171v479h171zM149 424h-8v-366h8v366zM31 622v41h237v-41h-237z" />
    <glyph glyph-name="Ibreve" unicode="&#x12c;" horiz-adv-x="455" 
d="M223 83h-106v-10h220v10h-104v533h96v10h-203v-10h97v-533zM316 157h89v-157h-355v157h89v387h-82v156h341v-156h-82v-387zM74 872h41q7 -32 30 -53t52 -26.5t58.5 0t52.5 26.5t30 53h42q-7 -47 -38.5 -79t-73 -39.5t-83 0t-73 39.5t-38.5 79z" />
    <glyph glyph-name="ibreve" unicode="&#x12d;" horiz-adv-x="291" 
d="M231 479v-479h-171v479h171zM149 424h-8v-366h8v366zM15 692h35q10 -49 53.5 -68.5t87 0t53.5 68.5h36q-6 -44 -33 -73.5t-63 -36.5t-72.5 0t-63.5 36.5t-33 73.5z" />
    <glyph glyph-name="Iogonek" unicode="&#x12e;" horiz-adv-x="455" 
d="M223 83h-106v-10h220v10h-104v533h96v10h-203v-10h97v-533zM316 157h89v-157h-139q-30 -20 -46.5 -53t-1.5 -60q38 -64 136 -15l5 -35q-32 -16 -66 -21t-66 8t-47 47q-14 37 -1 69.5t44 59.5h-173v157h89v387h-82v156h341v-156h-82v-387z" />
    <glyph glyph-name="iogonek" unicode="&#x12f;" horiz-adv-x="291" 
d="M49 612q0 45 30 70.5t66.5 25.5t66.5 -25.5t30 -70.5q0 -47 -30 -74t-66.5 -27t-66.5 27t-30 74zM149 419h-8v-361h8v361zM135 609q0 -10 10 -10t10 10t-10 10t-10 -10zM231 474v-474h-67q-30 -20 -46.5 -53t-1.5 -60q38 -64 136 -15l5 -35q-32 -16 -66 -21t-66 8t-47 47
q-14 37 -1 69.5t44 59.5h-61v474h171z" />
    <glyph glyph-name="Idotaccent" unicode="&#x130;" horiz-adv-x="455" 
d="M223 83h-106v-10h220v10h-104v533h96v10h-203v-10h97v-533zM316 157h89v-157h-355v157h89v387h-82v156h341v-156h-82v-387zM229 769q-16 0 -26 8.5t-10 21.5q0 15 10 23.5t26 8.5q15 0 25 -8.5t10 -23.5q0 -13 -10 -21.5t-25 -8.5z" />
    <glyph glyph-name="dotlessi" unicode="&#x131;" horiz-adv-x="291" 
d="M231 479v-479h-171v479h171zM149 424h-8v-366h8v366z" />
    <glyph glyph-name="IJ" unicode="&#x132;" horiz-adv-x="1074" 
d="M223 83h-106v-10h220v10h-104v533h96v10h-203v-10h97v-533zM316 157h89v-157h-355v157h89v387h-82v156h341v-156h-82v-387zM1005 700v-467q0 -111 -78.5 -176t-191.5 -65q-112 0 -187 65t-75 176v91h169v-88q0 -40 26 -62t67 -22q40 0 63.5 21.5t23.5 62.5v305h-102v159
h285zM561 256h-11v-20q0 -77 52 -123t130 -46q81 0 134.5 45t53.5 124v391h-133v-10h122v-381q0 -76 -49.5 -117.5t-126.5 -41.5q-74 0 -123 42.5t-49 116.5v20z" />
    <glyph glyph-name="ij" unicode="&#x133;" horiz-adv-x="576" 
d="M49 612q0 45 30 70.5t66.5 25.5t66.5 -25.5t30 -70.5q0 -47 -30 -74t-66.5 -27t-66.5 27t-30 74zM231 474v-474h-171v474h171zM149 419h-8v-361h8v361zM135 609q0 -10 10 -10t10 10t-10 10t-10 -10zM351 482h165v-542q0 -131 -67 -174.5t-190 -21.5l5 130q51 -7 69 7
t18 62v539zM336 612q0 45 30.5 70.5t67.5 25.5t67.5 -25.5t30.5 -70.5q0 -47 -30.5 -74t-67.5 -27t-67.5 27t-30.5 74zM438 419h-9v-443q0 -31 -0.5 -44t-3 -38.5t-9 -37t-18 -25.5t-31 -19.5t-45.5 -4.5v-11q29 0 49.5 6t33 21t19.5 27.5t10 39t3.5 40.5t0.5 46v443z
M423 610q0 -10 10 -10t10 10t-10 10t-10 -10z" />
    <glyph glyph-name="Jcircumflex" unicode="&#x134;" horiz-adv-x="624" 
d="M555 700v-467q0 -111 -78.5 -176t-191.5 -65q-112 0 -187 65t-75 176v91h169v-88q0 -40 26 -62t67 -22q40 0 63.5 21.5t23.5 62.5v305h-102v159h285zM111 256h-11v-20q0 -77 52 -123t130 -46q81 0 134.5 45t53.5 124v391h-133v-10h122v-381q0 -76 -49.5 -117.5
t-126.5 -41.5q-74 0 -123 42.5t-49 116.5v20zM565 765h-49l-101 99l-104 -99h-49v5l129 125h46l128 -126v-4z" />
    <glyph glyph-name="jcircumflex" unicode="&#x135;" horiz-adv-x="285" 
d="M60 482h165v-542q0 -131 -67 -174.5t-190 -21.5l5 130q51 -7 69 7t18 62v539zM147 419h-9v-443q0 -31 -0.5 -44t-3 -38.5t-9 -37t-18 -25.5t-31 -19.5t-45.5 -4.5v-11q29 0 49.5 6t33 21t19.5 27.5t10 39t3.5 40.5t0.5 46v443zM276 565h-45l-91 104l-93 -104h-44v5
l116 132h41l116 -133v-4z" />
    <glyph glyph-name="Kcommaaccent" unicode="&#x136;" horiz-adv-x="722" 
d="M423 -130q-1 -4 -3 -11t-3 -11l-27 -86h-36l24 82q-26 5 -26 32q0 15 10 24t26 9q12 0 22.5 -7t12.5 -19v-13zM705 0h-207q-98 175 -153 269q-42 -2 -88 -2v-267h-182v700h182v-271q1 0 23 -0.5t31.5 0t24.5 3t24 7.5q23 12 34 40.5t28 98.5q18 73 79 109t175 10v-122
q-36 2 -56.5 -8t-29.5 -41q-32 -128 -86 -185q157 -248 201 -315v-26zM608 636v10q-16 1 -29 -2.5t-22 -7t-18.5 -16t-13.5 -17.5t-11.5 -25t-9 -25t-9.5 -29q-28 -88 -64.5 -128.5t-119.5 -40.5h-139v277h-11v-564h11v278h139q50 0 76 12l182 -290h12l-184 293q31 14 54 43
t32 52.5t21 63.5q9 30 15.5 47t18.5 35.5t29 26.5t41 7z" />
    <glyph glyph-name="kcommaaccent" unicode="&#x137;" horiz-adv-x="575" 
d="M332 -130q-1 -4 -2.5 -11t-3.5 -11l-27 -86h-36l24 82q-26 5 -26 32q0 15 10 24t26 9q12 0 22.5 -7t12.5 -19v-13zM230 313h21q29 0 50.5 9.5t33 24t18.5 38t9 45.5t2 52h159q9 -177 -103 -242l129 -223v-17h-174l-102 186q-15 -5 -28 -5h-15v-181h-170v698h170v-385z
M151 641h-8v-580h8v182h61q68 0 105 13l111 -195h11l-111 198q108 34 119 160h-8q-17 -168 -227 -168h-61v390z" />
    <glyph glyph-name="kgreenlandic" unicode="&#x138;" horiz-adv-x="572" 
d="M227 313h21q29 0 50.5 9.5t33 24t18.5 38t9 45.5t2 52h159q9 -177 -103 -242l129 -223v-17h-174l-102 186q-15 -5 -28 -5h-15v-181h-170v483h170v-170zM148 426h-8v-365h8v182h61q68 0 105 13l111 -195h11l-111 198q108 34 119 160h-8q-17 -168 -227 -168h-61v175z" />
    <glyph glyph-name="Lacute" unicode="&#x139;" horiz-adv-x="526" 
d="M255 700v-539h254v-161h-434v700h180zM441 76v9h-270v547h-11v-556h281zM128 768v3l86 131l42 -20v-5l-84 -109h-44z" />
    <glyph glyph-name="lacute" unicode="&#x13a;" horiz-adv-x="325" 
d="M55 728h169v-536q0 -48 21.5 -64.5t62.5 -10.5l6 -125q-259 -47 -259 197v539zM146 670h-11v-444q0 -29 1 -45.5t4 -41t10.5 -38t20.5 -27t34 -19.5t49 -5v8q-26 0 -45.5 6t-31 19.5t-18 25.5t-9.5 36t-3.5 38t-0.5 43v444zM112 780v3l80 121l39 -19v-5l-78 -100h-41z
" />
    <glyph glyph-name="Lcommaaccent" unicode="&#x13b;" horiz-adv-x="526" 
d="M325 -130q-1 -4 -3 -11t-3 -11l-27 -86h-36l24 82q-26 5 -26 32q0 15 10 24t26 9q12 0 22.5 -7t12.5 -19v-13zM255 700v-539h254v-161h-434v700h180zM441 76v9h-270v547h-11v-556h281z" />
    <glyph glyph-name="lcommaaccent" unicode="&#x13c;" horiz-adv-x="325" 
d="M228 -130q-2 -4 -3.5 -11t-2.5 -11l-27 -86h-36l24 82q-26 5 -26 32q0 15 10 24t26 9q12 0 22.5 -7t12.5 -19v-13zM55 728h169v-536q0 -48 21.5 -64.5t62.5 -10.5l6 -125q-259 -47 -259 197v539zM146 670h-11v-444q0 -29 1 -45.5t4 -41t10.5 -38t20.5 -27t34 -19.5t49 -5
v8q-26 0 -45.5 6t-31 19.5t-18 25.5t-9.5 36t-3.5 38t-0.5 43v444z" />
    <glyph glyph-name="Lcaron" unicode="&#x13d;" horiz-adv-x="527" 
d="M255 700v-539h254v-161h-434v700h180zM441 76v9h-270v547h-11v-556h281zM454 661q0 -11 -4 -20l-20 -65h-33l18 61q-23 7 -23 29q0 14 9.5 21.5t22.5 7.5q28 0 30 -23q1 -7 0 -11z" />
    <glyph glyph-name="lcaron" unicode="&#x13e;" horiz-adv-x="325" 
d="M55 728h169v-536q0 -48 21.5 -64.5t62.5 -10.5l6 -125q-259 -47 -259 197v539zM146 670h-11v-444q0 -29 1 -45.5t4 -41t10.5 -38t20.5 -27t34 -19.5t49 -5v8q-26 0 -45.5 6t-31 19.5t-18 25.5t-9.5 36t-3.5 38t-0.5 43v444zM364 690q-2 -11 -5 -20l-20 -64h-32l18 61
q-23 5 -23 29q0 12 9 20t22 8q26 0 31 -22q2 -8 0 -12z" />
    <glyph glyph-name="Ldot" unicode="&#x13f;" horiz-adv-x="526" 
d="M255 700v-539h254v-161h-434v700h180zM441 76v9h-270v547h-11v-556h281zM388 345q-13 0 -22.5 9t-9.5 23q0 15 9.5 24.5t22.5 9.5q15 0 24.5 -9.5t9.5 -24.5q0 -14 -10 -23t-24 -9z" />
    <glyph glyph-name="ldot" unicode="&#x140;" horiz-adv-x="383" 
d="M55 728h169v-536q0 -48 21.5 -64.5t62.5 -10.5l6 -125q-259 -47 -259 197v539zM146 670h-11v-444q0 -29 1 -45.5t4 -41t10.5 -38t20.5 -27t34 -19.5t49 -5v8q-26 0 -45.5 6t-31 19.5t-18 25.5t-9.5 36t-3.5 38t-0.5 43v444zM336 343q-13 0 -22.5 9t-9.5 23q0 15 9.5 24.5
t22.5 9.5t22.5 -9.5t9.5 -24.5q0 -14 -9.5 -23t-22.5 -9z" />
    <glyph glyph-name="Lslash" unicode="&#x141;" horiz-adv-x="530" 
d="M259 700v-315l100 39v-36l-100 -39v-188h254v-161h-434v280l-63 -23v36l63 23v384h180zM445 76v9h-270v547h-11v-556h281z" />
    <glyph glyph-name="lslash" unicode="&#x142;" horiz-adv-x="329" 
d="M60 728h169v-326l71 27v-36l-71 -27v-174q0 -48 21.5 -64.5t62.5 -10.5l6 -125q-259 -47 -259 197v112l-57 -21v36l57 21v391zM151 670h-11v-444q0 -29 1 -45.5t4 -41t10.5 -38t20.5 -27t34 -19.5t49 -5v8q-26 0 -45.5 6t-31 19.5t-18 25.5t-9.5 36t-3.5 38t-0.5 43v444z
" />
    <glyph glyph-name="Nacute" unicode="&#x143;" horiz-adv-x="752" 
d="M613 -1l-353 345v-344h-185v703h65l354 -346v343h183v-701h-64zM160 559v-490h12v473q118 -113 208 -203q34 -33 101 -98.5t102 -99.5h8v491h-11v-474q-208 202 -210 204q-91 93 -199 197h-11zM321 762v3l86 131l42 -20v-5l-84 -109h-44z" />
    <glyph glyph-name="nacute" unicode="&#x144;" horiz-adv-x="634" 
d="M244 273v-273h-171v333q0 19 -0.5 25.5t-4 16t-12 12.5t-24.5 3v92q155 36 192 -22q39 36 118 36q103 0 163.5 -59t58.5 -161v-125q0 -32 8 -43.5t38 -11.5v-94q-37 -9 -71.5 -10.5t-69 5.5t-55.5 33t-21 69v177q1 54 -36 74.5t-75 -3t-38 -74.5zM89 441v-7
q37 2 50.5 -10t13.5 -48v-319h8v199q0 72 51.5 119.5t123.5 47.5q68 0 103.5 -39.5t35.5 -107.5v-125q0 -30 2 -46t9 -33t23.5 -23.5t44.5 -5.5v7q-25 -1 -40 5.5t-21.5 22.5t-8 31t-1.5 42v125q0 72 -37.5 114.5t-109.5 40.5q-62 0 -108.5 -31.5t-66.5 -88.5v65
q0 41 -16 54t-56 11zM296 587v3l80 121l39 -19v-5l-78 -100h-41z" />
    <glyph glyph-name="Ncommaaccent" unicode="&#x145;" horiz-adv-x="752" 
d="M448 -130q-1 -4 -2.5 -11t-3.5 -11l-27 -86h-36l24 82q-26 5 -26 32q0 15 10 24t26 9q12 0 22.5 -7t12.5 -19v-13zM613 -1l-353 345v-344h-185v703h65l354 -346v343h183v-701h-64zM160 559v-490h12v473q118 -113 208 -203q34 -33 101 -98.5t102 -99.5h8v491h-11v-474
q-208 202 -210 204q-91 93 -199 197h-11z" />
    <glyph glyph-name="ncommaaccent" unicode="&#x146;" horiz-adv-x="634" 
d="M380 -130q-1 -4 -2.5 -11t-3.5 -11l-27 -86h-36l24 82q-26 5 -26 32q0 15 10 24t26 9q12 0 22.5 -7t12.5 -19v-13zM244 273v-273h-171v333q0 19 -0.5 25.5t-4 16t-12 12.5t-24.5 3v92q155 36 192 -22q39 36 118 36q103 0 163.5 -59t58.5 -161v-125q0 -32 8 -43.5
t38 -11.5v-94q-37 -9 -71.5 -10.5t-69 5.5t-55.5 33t-21 69v177q1 54 -36 74.5t-75 -3t-38 -74.5zM89 441v-7q37 2 50.5 -10t13.5 -48v-319h8v199q0 72 51.5 119.5t123.5 47.5q68 0 103.5 -39.5t35.5 -107.5v-125q0 -30 2 -46t9 -33t23.5 -23.5t44.5 -5.5v7q-25 -1 -40 5.5
t-21.5 22.5t-8 31t-1.5 42v125q0 72 -37.5 114.5t-109.5 40.5q-62 0 -108.5 -31.5t-66.5 -88.5v65q0 41 -16 54t-56 11z" />
    <glyph glyph-name="Ncaron" unicode="&#x147;" horiz-adv-x="752" 
d="M613 -1l-353 345v-344h-185v703h65l354 -346v343h183v-701h-64zM160 559v-490h12v473q118 -113 208 -203q34 -33 101 -98.5t102 -99.5h8v491h-11v-474q-208 202 -210 204q-91 93 -199 197h-11zM200 892h51l108 -98l110 98h52v-6l-137 -124h-48l-136 126v4z" />
    <glyph glyph-name="ncaron" unicode="&#x148;" horiz-adv-x="634" 
d="M244 273v-273h-171v333q0 19 -0.5 25.5t-4 16t-12 12.5t-24.5 3v92q155 36 192 -22q39 36 118 36q103 0 163.5 -59t58.5 -161v-125q0 -32 8 -43.5t38 -11.5v-94q-37 -9 -71.5 -10.5t-69 5.5t-55.5 33t-21 69v177q1 54 -36 74.5t-75 -3t-38 -74.5zM89 441v-7
q37 2 50.5 -10t13.5 -48v-319h8v199q0 72 51.5 119.5t123.5 47.5q68 0 103.5 -39.5t35.5 -107.5v-125q0 -30 2 -46t9 -33t23.5 -23.5t44.5 -5.5v7q-25 -1 -40 5.5t-21.5 22.5t-8 31t-1.5 42v125q0 72 -37.5 114.5t-109.5 40.5q-62 0 -108.5 -31.5t-66.5 -88.5v65
q0 41 -16 54t-56 11zM163 702h51l108 -98l110 98h52v-6l-137 -124h-48l-136 126v4z" />
    <glyph glyph-name="napostrophe" unicode="&#x149;" horiz-adv-x="634" 
d="M244 273v-273h-171v333q0 19 -0.5 25.5t-4 16t-12 12.5t-24.5 3v92q155 36 192 -22q39 36 118 36q103 0 163.5 -59t58.5 -161v-125q0 -32 8 -43.5t38 -11.5v-94q-37 -9 -71.5 -10.5t-69 5.5t-55.5 33t-21 69v177q1 54 -36 74.5t-75 -3t-38 -74.5zM89 441v-7
q37 2 50.5 -10t13.5 -48v-319h8v199q0 72 51.5 119.5t123.5 47.5q68 0 103.5 -39.5t35.5 -107.5v-125q0 -30 2 -46t9 -33t23.5 -23.5t44.5 -5.5v7q-25 -1 -40 5.5t-21.5 22.5t-8 31t-1.5 42v125q0 72 -37.5 114.5t-109.5 40.5q-62 0 -108.5 -31.5t-66.5 -88.5v65
q0 41 -16 54t-56 11z" />
    <glyph glyph-name="Eng" unicode="&#x14a;" horiz-adv-x="752" 
d="M677 700v-740q0 -131 -67 -174.5t-190 -21.5l5 130q51 -7 69 7t18 62v134l-252 247v-344h-185v703h65l354 -346v343h183zM160 559v-490h12v473q118 -113 208 -203q37 -37 108 -103.5t99 -93.5v-146q0 -31 -0.5 -44t-3 -38.5t-9 -37t-18 -25.5t-31 -19.5t-45.5 -4.5v-11
q29 0 49.5 6t33 21t19.5 27.5t10 39t3.5 40.5t0.5 46v636h-11l1 -474q-73 71 -216 204q-91 93 -199 197h-11z" />
    <glyph glyph-name="eng" unicode="&#x14b;" horiz-adv-x="611" 
d="M564 276v-316q0 -131 -68 -174.5t-191 -21.5l5 130q51 -6 67 7.5t16 61.5v313q1 54 -36 74.5t-75 -3t-38 -74.5v-273h-171v333q0 19 -0.5 25.5t-4 16t-12 12.5t-24.5 3v92q155 36 192 -22q39 36 118 36q103 0 163.5 -59t58.5 -161zM483 -4v280q0 72 -37.5 114.5
t-109.5 40.5q-62 0 -108.5 -31.5t-66.5 -88.5v65q0 41 -16 54t-56 11v-7q37 2 50.5 -10t13.5 -48v-319h8v199q0 72 51.5 119.5t123.5 47.5q68 0 103.5 -39.5t35.5 -107.5v-280q0 -31 -0.5 -44t-3 -38.5t-9 -37t-18 -25.5t-31 -19.5t-45.5 -4.5v-11q34 0 57 11t34 24.5t17 43
t6.5 46.5t0.5 55z" />
    <glyph glyph-name="Omacron" unicode="&#x14c;" horiz-adv-x="794" 
d="M126 349q0 -68 23.5 -123t61.5 -89t87 -52t99.5 -18t99.5 18t87 52t61.5 89t23.5 123q0 90 -40 156t-100.5 95.5t-131 29.5t-131 -29.5t-100.5 -95.5t-40 -156zM756 349q0 -88 -31 -159t-81.5 -114.5t-115 -67t-131.5 -23.5t-131.5 23.5t-115 67t-81.5 114.5t-31 159
t31 158.5t81.5 114t115 67t131.5 23.5t131.5 -23.5t115 -67t81.5 -114t31 -158.5zM222 349q0 -61 26 -105.5t65 -64.5t84.5 -20t84.5 20t65 64.5t26 105.5q0 60 -26 104.5t-65 64t-84.5 19.5t-84.5 -19.5t-65 -64t-26 -104.5zM659 349q0 -86 -38.5 -149t-97 -92t-126 -29.5
t-126 27.5t-97 92t-38.5 151q0 66 22.5 119t59 85.5t83.5 50t96.5 17t96.5 -18.5t83.5 -50.5t59 -85t22.5 -117.5zM257 791v41h286v-41h-286z" />
    <glyph glyph-name="omacron" unicode="&#x14d;" horiz-adv-x="577" 
d="M545 240q0 -81 -38 -140.5t-95 -86.5t-123.5 -26.5t-123.5 27t-95 86t-38 140.5t38 141t95 87t123.5 27t123.5 -27t95 -87t38 -141zM455 240q0 -76 -46 -125t-120 -49t-121 49t-47 125t47 125.5t121 49.5q75 0 120.5 -49t45.5 -126zM465 240q0 81 -49 133t-127 52
q-80 0 -129 -52t-49 -133q0 -80 50 -132t128 -52t127 52t49 132zM202 240q0 -50 27.5 -78t60 -28t60 28t27.5 78t-27.5 78.5t-60 28.5t-60 -28.5t-27.5 -78.5zM147 624v41h286v-41h-286z" />
    <glyph glyph-name="Obreve" unicode="&#x14e;" horiz-adv-x="794" 
d="M126 349q0 -68 23.5 -123t61.5 -89t87 -52t99.5 -18t99.5 18t87 52t61.5 89t23.5 123q0 90 -40 156t-100.5 95.5t-131 29.5t-131 -29.5t-100.5 -95.5t-40 -156zM756 349q0 -88 -31 -159t-81.5 -114.5t-115 -67t-131.5 -23.5t-131.5 23.5t-115 67t-81.5 114.5t-31 159
t31 158.5t81.5 114t115 67t131.5 23.5t131.5 -23.5t115 -67t81.5 -114t31 -158.5zM222 349q0 -61 26 -105.5t65 -64.5t84.5 -20t84.5 20t65 64.5t26 105.5q0 60 -26 104.5t-65 64t-84.5 19.5t-84.5 -19.5t-65 -64t-26 -104.5zM659 349q0 -86 -38.5 -149t-97 -92t-126 -29.5
t-126 27.5t-97 92t-38.5 151q0 66 22.5 119t59 85.5t83.5 50t96.5 17t96.5 -18.5t83.5 -50.5t59 -85t22.5 -117.5zM238 890h43q9 -40 44 -62.5t74 -22.5t74 22.5t44 62.5h44q-7 -48 -40 -80t-77 -39.5t-88.5 0.5t-77.5 40t-40 79z" />
    <glyph glyph-name="obreve" unicode="&#x14f;" horiz-adv-x="577" 
d="M545 240q0 -81 -38 -140.5t-95 -86.5t-123.5 -26.5t-123.5 27t-95 86t-38 140.5t38 141t95 87t123.5 27t123.5 -27t95 -87t38 -141zM455 240q0 -76 -46 -125t-120 -49t-121 49t-47 125t47 125.5t121 49.5q75 0 120.5 -49t45.5 -126zM465 240q0 81 -49 133t-127 52
q-80 0 -129 -52t-49 -133q0 -80 50 -132t128 -52t127 52t49 132zM202 240q0 -50 27.5 -78t60 -28t60 28t27.5 78t-27.5 78.5t-60 28.5t-60 -28.5t-27.5 -78.5zM137 687h41q7 -37 40 -58t71 -21t71 21t40 58h42q-9 -56 -54.5 -87t-98 -31t-98 31t-54.5 87z" />
    <glyph glyph-name="Ohungarumlaut" unicode="&#x150;" horiz-adv-x="794" 
d="M339 762h-41v5l55 110l46 -12v-5zM507 762h-42v5l57 107l44 -15v-5zM126 349q0 -68 23.5 -123t61.5 -89t87 -52t99.5 -18t99.5 18t87 52t61.5 89t23.5 123q0 90 -40 156t-100.5 95.5t-131 29.5t-131 -29.5t-100.5 -95.5t-40 -156zM756 349q0 -88 -31 -159t-81.5 -114.5
t-115 -67t-131.5 -23.5t-131.5 23.5t-115 67t-81.5 114.5t-31 159t31 158.5t81.5 114t115 67t131.5 23.5t131.5 -23.5t115 -67t81.5 -114t31 -158.5zM222 349q0 -61 26 -105.5t65 -64.5t84.5 -20t84.5 20t65 64.5t26 105.5q0 60 -26 104.5t-65 64t-84.5 19.5t-84.5 -19.5
t-65 -64t-26 -104.5zM659 349q0 -86 -38.5 -149t-97 -92t-126 -29.5t-126 27.5t-97 92t-38.5 151q0 66 22.5 119t59 85.5t83.5 50t96.5 17t96.5 -18.5t83.5 -50.5t59 -85t22.5 -117.5z" />
    <glyph glyph-name="ohungarumlaut" unicode="&#x151;" horiz-adv-x="577" 
d="M217 572h-41v5l55 110l46 -12v-5zM385 572h-42v5l57 107l44 -15v-5zM545 240q0 -81 -38 -140.5t-95 -86.5t-123.5 -26.5t-123.5 27t-95 86t-38 140.5t38 141t95 87t123.5 27t123.5 -27t95 -87t38 -141zM455 240q0 -76 -46 -125t-120 -49t-121 49t-47 125t47 125.5
t121 49.5q75 0 120.5 -49t45.5 -126zM465 240q0 81 -49 133t-127 52q-80 0 -129 -52t-49 -133q0 -80 50 -132t128 -52t127 52t49 132zM202 240q0 -50 27.5 -78t60 -28t60 28t27.5 78t-27.5 78.5t-60 28.5t-60 -28.5t-27.5 -78.5z" />
    <glyph glyph-name="OE" unicode="&#x152;" horiz-adv-x="936" 
d="M541 626v-31q-76 36 -143 35q-110 0 -190 -74t-80 -206q0 -70 24 -126.5t65 -90.5t93 -50.5t112 -11t119 31.5v-28h277v10h-267v272h237v10h-237v248h258v11h-268zM886 0h-399q-67 -13 -131.5 -10.5t-122 30t-100.5 70t-68.5 110.5t-25.5 150t26 149.5t70.5 110
t102.5 70.5t122.5 30.5t130.5 -10.5h386v-159h-249v-101h228v-159h-228v-122h258v-159zM223 350q0 -45 15.5 -82t40.5 -59t57 -36t65.5 -13.5t64.5 9.5v360q-31 9 -64.5 9.5t-65.5 -13t-57 -35.5t-40.5 -58.5t-15.5 -81.5zM137 350q0 128 77 199t184 71q64 0 143 -35v-472
q-73 -33 -146 -32.5t-130 30t-92.5 92t-35.5 147.5z" />
    <glyph glyph-name="oe" unicode="&#x153;" horiz-adv-x="879" 
d="M615 511q135 0 190.5 -81t24.5 -211h-302q10 -78 121 -78q85 -4 164 32l21 -123q-97 -45 -195 -46q-120 0 -191 75q-62 -73 -171 -75q-99 0 -171.5 67.5t-72.5 187.5q0 122 75 189t176 65q112 -5 168 -72q63 70 163 70zM765 89l-3 9q-55 -17 -101 -17q-93 0 -149 47
t-54 140h312q1 11 1 31q0 71 -39.5 108.5t-110.5 39.5t-113.5 -34.5t-54.5 -101.5q-13 62 -56 98.5t-108 36.5q-78 0 -126.5 -52t-48.5 -133q0 -79 48.5 -131t126.5 -52q65 0 108 37.5t56 99.5q14 -70 70 -106.5t138 -36.5q47 0 104 17zM449 261q0 -77 -43 -125.5
t-117 -48.5t-120 49t-46 125q0 77 46 126.5t120 49.5t117 -49t43 -127zM761 276h-303q4 78 45.5 121t117.5 41q141 -5 141 -139q0 -16 -1 -23zM202 259q0 -50 27 -78.5t60 -28.5t60 28.5t27 78.5q0 49 -27 77t-60 28t-60 -28t-27 -77zM528 319h159q3 31 -20 46.5t-57 15.5
q-29 0 -52.5 -16t-29.5 -46z" />
    <glyph glyph-name="Racute" unicode="&#x154;" horiz-adv-x="694" 
d="M168 615h215q43 0 76.5 -18t51 -46.5t26 -62.5t0.5 -68.5t-25.5 -63t-51.5 -46.5t-77 -18h-215v323zM168 281h215q3 0 10 0.5t10 0.5l130 -216h12l-101 165l-30 53q54 9 90 47t42.5 86.5t-5.5 95.5t-54.5 79t-103.5 32h-225v-557h10v214zM530 248l137 -222v-26h-200
l-120 206h-93v-206h-179v700h307q66 0 118.5 -25t82 -65t42.5 -91t6.5 -100.5t-32.5 -95.5t-69 -75zM254 367h128q34 0 54 27t21 59.5t-19 59.5t-56 27q0 1 -64 0h-64v-173zM272 767v3l86 131l42 -20v-5l-84 -109h-44z" />
    <glyph glyph-name="racute" unicode="&#x155;" horiz-adv-x="472" 
d="M466 465l-34 -135q-42 23 -84 23.5t-73.5 -30.5t-31.5 -82v-241h-166v333q0 22 -2 32t-12.5 17.5t-31.5 7.5v92q41 19 99 14.5t89 -39.5q111 85 247 8zM154 346v-289h11v202q0 66 56 116t122 50q32 0 50 -8l2 11q-26 8 -52 8q-56 0 -108 -36.5t-70 -88.5v35q0 32 -1.5 47
t-8.5 30t-23 20t-44 4v-11q45 5 57 -18.5t9 -71.5zM192 584v3l82 126l40 -20v-4l-80 -105h-42z" />
    <glyph glyph-name="Rcommaaccent" unicode="&#x156;" horiz-adv-x="694" 
d="M402 -130q-2 -4 -3 -11t-3 -11l-27 -86h-36l24 82q-26 5 -26 32q0 15 10 24t26 9q12 0 22.5 -7t12.5 -19v-13zM168 615h215q43 0 76.5 -18t51 -46.5t26 -62.5t0.5 -68.5t-25.5 -63t-51.5 -46.5t-77 -18h-215v323zM168 281h215q3 0 10 0.5t10 0.5l130 -216h12l-101 165
l-30 53q54 9 90 47t42.5 86.5t-5.5 95.5t-54.5 79t-103.5 32h-225v-557h10v214zM530 248l137 -222v-26h-200l-120 206h-93v-206h-179v700h307q66 0 118.5 -25t82 -65t42.5 -91t6.5 -100.5t-32.5 -95.5t-69 -75zM254 367h128q34 0 54 27t21 59.5t-19 59.5t-56 27q0 1 -64 0
h-64v-173z" />
    <glyph glyph-name="rcommaaccent" unicode="&#x157;" horiz-adv-x="472" 
d="M200 -130q-2 -4 -3 -11t-3 -11l-27 -86h-36l24 82q-26 5 -26 32q0 15 10 24t26 9q12 0 22.5 -7t12.5 -19v-13zM466 465l-34 -135q-42 23 -84 23.5t-73.5 -30.5t-31.5 -82v-241h-166v333q0 22 -2 32t-12.5 17.5t-31.5 7.5v92q41 19 99 14.5t89 -39.5q111 85 247 8z
M154 346v-289h11v202q0 66 56 116t122 50q32 0 50 -8l2 11q-26 8 -52 8q-56 0 -108 -36.5t-70 -88.5v35q0 32 -1.5 47t-8.5 30t-23 20t-44 4v-11q45 5 57 -18.5t9 -71.5z" />
    <glyph glyph-name="Rcaron" unicode="&#x158;" horiz-adv-x="694" 
d="M168 615h215q43 0 76.5 -18t51 -46.5t26 -62.5t0.5 -68.5t-25.5 -63t-51.5 -46.5t-77 -18h-215v323zM168 281h215q3 0 10 0.5t10 0.5l130 -216h12l-101 165l-30 53q54 9 90 47t42.5 86.5t-5.5 95.5t-54.5 79t-103.5 32h-225v-557h10v214zM530 248l137 -222v-26h-200
l-120 206h-93v-206h-179v700h307q66 0 118.5 -25t82 -65t42.5 -91t6.5 -100.5t-32.5 -95.5t-69 -75zM254 367h128q34 0 54 27t21 59.5t-19 59.5t-56 27q0 1 -64 0h-64v-173zM148 896h51l108 -98l110 98h52v-6l-137 -124h-48l-136 126v4z" />
    <glyph glyph-name="rcaron" unicode="&#x159;" horiz-adv-x="472" 
d="M466 465l-34 -135q-42 23 -84 23.5t-73.5 -30.5t-31.5 -82v-241h-166v333q0 22 -2 32t-12.5 17.5t-31.5 7.5v92q41 19 99 14.5t89 -39.5q111 85 247 8zM154 346v-289h11v202q0 66 56 116t122 50q32 0 50 -8l2 11q-26 8 -52 8q-56 0 -108 -36.5t-70 -88.5v35q0 32 -1.5 47
t-8.5 30t-23 20t-44 4v-11q45 5 57 -18.5t9 -71.5zM81 703h47l101 -93l104 93h48v-5l-128 -118h-45l-127 119v4z" />
    <glyph glyph-name="Sacute" unicode="&#x15a;" horiz-adv-x="641" 
d="M39 214h173q0 -25 22.5 -42.5t55 -21.5t64.5 -0.5t54.5 20t22.5 39.5q0 18 -9 29.5t-29.5 18t-39 9t-50.5 4.5q-122 9 -187 58t-67 157q-1 86 54 145t134 72.5t158 0t134 -72.5t54 -145h-170q0 43 -47.5 60t-96 -0.5t-50.5 -57.5q-3 -36 25 -50t86 -21q39 -5 59.5 -7.5
t55 -10t53 -16t42.5 -24t36 -35.5t20.5 -49t8.5 -66q0 -60 -31.5 -108t-81.5 -73t-111 -37t-121.5 -0.5t-110.5 37t-80.5 74.5t-29.5 113zM475 549h13q-22 40 -66.5 63.5t-94.5 23.5t-95.5 -14.5t-75 -51t-28.5 -85.5q1 -43 15.5 -72t43.5 -43.5t57.5 -21t72.5 -9.5
q96 -8 126 -20q67 -27 68 -110q0 -55 -45.5 -91.5t-105 -44.5t-121 11.5t-89.5 65.5h-12q21 -41 67.5 -65t99.5 -25t102.5 13.5t82 51t32.5 84.5q0 36 -12.5 61.5t-28.5 39.5t-48 23t-53 11.5t-61 5.5q-44 4 -71 9t-54.5 18.5t-40.5 40t-13 67.5q0 45 27 79t69 47.5t88 14
t87.5 -20t63.5 -56.5zM285 770v3l86 131l42 -20v-5l-84 -109h-44z" />
    <glyph glyph-name="sacute" unicode="&#x15b;" horiz-adv-x="517" 
d="M34 154h167q0 -25 28 -35t56 -1t28 30q0 14 -8.5 21.5t-17.5 9.5t-27 4q-37 4 -61 8t-57.5 15t-53.5 25.5t-34.5 41t-14.5 60.5q0 63 45.5 105t110 51t128.5 -1.5t107 -53.5t40 -104h-147q0 23 -28 32t-56 0t-28 -29q0 -10 4.5 -16.5t15.5 -10t17 -4.5t20 -3
q38 -3 63.5 -6.5t57.5 -13.5t51 -25t32 -42t12 -64q-2 -81 -66.5 -123t-152.5 -42q-46 0 -84.5 8t-73 26t-54 53t-19.5 84zM135 99h-11q34 -59 134 -59q54 0 99.5 30t45.5 83q1 22 -7 38t-18.5 25t-32.5 15t-36.5 8.5t-43.5 5.5q-24 3 -38.5 5.5t-35 9t-31.5 15t-20 23.5
t-10 35q-2 50 39.5 72.5t95.5 22.5q87 0 121 -49h10q-16 30 -53.5 43.5t-77.5 13.5q-58 0 -102 -25t-42 -79q1 -26 12 -44t32.5 -27.5t41.5 -14t50 -9.5q5 -1 8 -1q62 -5 95 -21t33 -61q0 -48 -42.5 -76.5t-92.5 -28.5q-87 0 -123 50zM224 576v3l82 124l40 -19v-4l-80 -104
h-42z" />
    <glyph glyph-name="Scircumflex" unicode="&#x15c;" horiz-adv-x="641" 
d="M39 214h173q0 -25 22.5 -42.5t55 -21.5t64.5 -0.5t54.5 20t22.5 39.5q0 18 -9 29.5t-29.5 18t-39 9t-50.5 4.5q-122 9 -187 58t-67 157q-1 86 54 145t134 72.5t158 0t134 -72.5t54 -145h-170q0 43 -47.5 60t-96 -0.5t-50.5 -57.5q-3 -36 25 -50t86 -21q39 -5 59.5 -7.5
t55 -10t53 -16t42.5 -24t36 -35.5t20.5 -49t8.5 -66q0 -60 -31.5 -108t-81.5 -73t-111 -37t-121.5 -0.5t-110.5 37t-80.5 74.5t-29.5 113zM475 549h13q-22 40 -66.5 63.5t-94.5 23.5t-95.5 -14.5t-75 -51t-28.5 -85.5q1 -43 15.5 -72t43.5 -43.5t57.5 -21t72.5 -9.5
q96 -8 126 -20q67 -27 68 -110q0 -55 -45.5 -91.5t-105 -44.5t-121 11.5t-89.5 65.5h-12q21 -41 67.5 -65t99.5 -25t102.5 13.5t82 51t32.5 84.5q0 36 -12.5 61.5t-28.5 39.5t-48 23t-53 11.5t-61 5.5q-44 4 -71 9t-54.5 18.5t-40.5 40t-13 67.5q0 45 27 79t69 47.5t88 14
t87.5 -20t63.5 -56.5zM478 764h-52l-108 98l-110 -98h-52v5l137 124h49l136 -125v-4z" />
    <glyph glyph-name="scircumflex" unicode="&#x15d;" horiz-adv-x="517" 
d="M34 154h167q0 -25 28 -35t56 -1t28 30q0 14 -8.5 21.5t-17.5 9.5t-27 4q-37 4 -61 8t-57.5 15t-53.5 25.5t-34.5 41t-14.5 60.5q0 63 45.5 105t110 51t128.5 -1.5t107 -53.5t40 -104h-147q0 23 -28 32t-56 0t-28 -29q0 -10 4.5 -16.5t15.5 -10t17 -4.5t20 -3
q38 -3 63.5 -6.5t57.5 -13.5t51 -25t32 -42t12 -64q-2 -81 -66.5 -123t-152.5 -42q-46 0 -84.5 8t-73 26t-54 53t-19.5 84zM135 99h-11q34 -59 134 -59q54 0 99.5 30t45.5 83q1 22 -7 38t-18.5 25t-32.5 15t-36.5 8.5t-43.5 5.5q-24 3 -38.5 5.5t-35 9t-31.5 15t-20 23.5
t-10 35q-2 50 39.5 72.5t95.5 22.5q87 0 121 -49h10q-16 30 -53.5 43.5t-77.5 13.5q-58 0 -102 -25t-42 -79q1 -26 12 -44t32.5 -27.5t41.5 -14t50 -9.5q5 -1 8 -1q62 -5 95 -21t33 -61q0 -48 -42.5 -76.5t-92.5 -28.5q-87 0 -123 50zM405 577h-47l-97 92l-99 -92h-46v5
l123 116h44l122 -117v-4z" />
    <glyph glyph-name="Scedilla" unicode="&#x15e;" horiz-adv-x="643" 
d="M476 549h13q-22 40 -66.5 63.5t-94.5 23.5t-95.5 -14.5t-75 -51t-28.5 -85.5q1 -43 15.5 -72t43.5 -43.5t57.5 -21t72.5 -9.5q96 -8 126 -20q68 -26 68 -110q0 -55 -45.5 -91.5t-105 -44.5t-121 11.5t-89.5 65.5h-12q21 -41 67.5 -65t99.5 -25t102.5 13.5t82 51
t32.5 84.5q0 36 -12.5 61.5t-28.5 39.5t-48 23t-53 11.5t-61 5.5q-44 4 -71 9t-54.5 18.5t-40.5 40t-13 67.5q0 45 27 79t69 47.5t88 14t87.5 -20t63.5 -56.5zM40 214h173q0 -25 22.5 -42.5t54.5 -21.5t64.5 -0.5t55 20t22.5 39.5q0 18 -9 29.5t-29.5 18t-39 9t-50.5 4.5
q-122 9 -187 58t-67 157q-1 86 54 145t134 72.5t158 0t134 -72.5t54 -145h-170q0 43 -47.5 60t-96 -0.5t-50.5 -57.5q-3 -36 25 -50t86 -21q39 -5 59.5 -7.5t55 -10t53 -16t42.5 -24t36 -35.5t20.5 -49t8.5 -66q0 -97 -74 -154.5t-181 -66.5l-12 -45q47 0 73.5 -30t12.5 -75
q-11 -37 -47.5 -54.5t-77.5 -12t-69 28.5l2 39q19 -19 53 -27t65.5 1.5t40.5 35.5q13 38 -22 57t-74 14l17 67q-53 1 -101.5 16t-88 42t-62 71t-21.5 99z" />
    <glyph glyph-name="scedilla" unicode="&#x15f;" horiz-adv-x="520" 
d="M36 154h167q0 -25 28 -35t56 -1t28 30q0 14 -8.5 21.5t-17.5 9.5t-27 4q-37 4 -61 8t-57.5 15t-53.5 25.5t-34.5 41t-14.5 60.5q0 63 45.5 105t110 51t128.5 -1.5t107 -53.5t40 -104h-147q0 23 -28 32t-56 0t-28 -29q0 -10 4.5 -16.5t15.5 -10t17 -4.5t20 -3
q38 -3 63.5 -6.5t57.5 -13.5t51 -25t32 -42t12 -64q-2 -77 -61 -119.5t-142 -44.5l-11 -41q43 0 66 -24.5t12 -64.5q-10 -32 -41 -44.5t-65.5 -5.5t-58.5 27l2 31q27 -27 73 -30t61 32q11 33 -17.5 47.5t-62.5 11.5l15 60q-44 1 -80.5 10t-69.5 27.5t-51.5 52.5t-18.5 81z
M137 99h-11q34 -59 134 -59q54 0 99.5 30t45.5 83q1 22 -7 38t-18.5 25t-32.5 15t-36.5 8.5t-43.5 5.5q-24 3 -38.5 5.5t-35 9t-31.5 15t-20 23.5t-10 35q-2 50 39.5 72.5t95.5 22.5q87 0 121 -49h10q-16 30 -53.5 43.5t-77.5 13.5q-58 0 -102 -25t-42 -79q1 -26 12 -44
t32.5 -27.5t41.5 -14t50 -9.5q5 -1 8 -1q62 -5 95 -21t33 -61q0 -48 -42.5 -76.5t-92.5 -28.5q-87 0 -123 50z" />
    <glyph glyph-name="Scaron" unicode="&#x160;" horiz-adv-x="641" 
d="M39 214h173q0 -25 22.5 -42.5t55 -21.5t64.5 -0.5t54.5 20t22.5 39.5q0 18 -9 29.5t-29.5 18t-39 9t-50.5 4.5q-122 9 -187 58t-67 157q-1 86 54 145t134 72.5t158 0t134 -72.5t54 -145h-170q0 43 -47.5 60t-96 -0.5t-50.5 -57.5q-3 -36 25 -50t86 -21q39 -5 59.5 -7.5
t55 -10t53 -16t42.5 -24t36 -35.5t20.5 -49t8.5 -66q0 -60 -31.5 -108t-81.5 -73t-111 -37t-121.5 -0.5t-110.5 37t-80.5 74.5t-29.5 113zM475 549h13q-22 40 -66.5 63.5t-94.5 23.5t-95.5 -14.5t-75 -51t-28.5 -85.5q1 -43 15.5 -72t43.5 -43.5t57.5 -21t72.5 -9.5
q96 -8 126 -20q67 -27 68 -110q0 -55 -45.5 -91.5t-105 -44.5t-121 11.5t-89.5 65.5h-12q21 -41 67.5 -65t99.5 -25t102.5 13.5t82 51t32.5 84.5q0 36 -12.5 61.5t-28.5 39.5t-48 23t-53 11.5t-61 5.5q-44 4 -71 9t-54.5 18.5t-40.5 40t-13 67.5q0 45 27 79t69 47.5t88 14
t87.5 -20t63.5 -56.5zM152 892h51l108 -98l110 98h52v-6l-137 -124h-48l-136 126v4z" />
    <glyph glyph-name="scaron" unicode="&#x161;" horiz-adv-x="517" 
d="M34 154h167q0 -25 28 -35t56 -1t28 30q0 14 -8.5 21.5t-17.5 9.5t-27 4q-37 4 -61 8t-57.5 15t-53.5 25.5t-34.5 41t-14.5 60.5q0 63 45.5 105t110 51t128.5 -1.5t107 -53.5t40 -104h-147q0 23 -28 32t-56 0t-28 -29q0 -10 4.5 -16.5t15.5 -10t17 -4.5t20 -3
q38 -3 63.5 -6.5t57.5 -13.5t51 -25t32 -42t12 -64q-2 -81 -66.5 -123t-152.5 -42q-46 0 -84.5 8t-73 26t-54 53t-19.5 84zM135 99h-11q34 -59 134 -59q54 0 99.5 30t45.5 83q1 22 -7 38t-18.5 25t-32.5 15t-36.5 8.5t-43.5 5.5q-24 3 -38.5 5.5t-35 9t-31.5 15t-20 23.5
t-10 35q-2 50 39.5 72.5t95.5 22.5q87 0 121 -49h10q-16 30 -53.5 43.5t-77.5 13.5q-58 0 -102 -25t-42 -79q1 -26 12 -44t32.5 -27.5t41.5 -14t50 -9.5q5 -1 8 -1q62 -5 95 -21t33 -61q0 -48 -42.5 -76.5t-92.5 -28.5q-87 0 -123 50zM117 687h47l98 -89l99 89h47v-6
l-124 -112h-43l-124 114v4z" />
    <glyph glyph-name="Tcommaaccent" unicode="&#x162;" horiz-adv-x="558" 
d="M246 -70l17 70h-72v540h-172v160h520v-160h-171v-540h-77l-12 -49q44 0 69 -26t13 -67q-10 -34 -43 -47t-69 -6t-62 28l2 33q28 -28 77 -31.5t64 33.5q11 34 -18.5 49.5t-65.5 12.5zM275 67h10q0 181 -2 549h188v9h-385v-9h189v-549z" />
    <glyph glyph-name="tcommaaccent" unicode="&#x163;" horiz-adv-x="462" 
d="M76 425v-11h107v-219q0 -90 52.5 -123.5t139.5 -18.5v10q-82 -17 -131.5 15.5t-49.5 116.5v219h167v11h-167v148h-11v-148h-107zM233 -77l17 70q-148 28 -148 196v170l-83 14v109h83l20 148h150v-148h145v-123h-145v-164q0 -33 15 -52t39.5 -23t49 -1t49.5 12l17 -125
q-94 -24 -166 -17l-12 -46q43 0 66 -24.5t12 -64.5q-10 -32 -41 -44.5t-65.5 -5.5t-58.5 27l2 31q27 -27 73 -30t61 32q11 33 -17.5 47.5t-62.5 11.5z" />
    <glyph glyph-name="Tcaron" unicode="&#x164;" horiz-adv-x="558" 
d="M191 540h-172v160h520v-160h-171v-540h-177v540zM275 67h10q0 181 -2 549h188v9h-385v-9h189v-549zM141 924h51l108 -98l110 98h52v-6l-137 -124h-48l-136 126v4z" />
    <glyph glyph-name="tcaron" unicode="&#x165;" horiz-adv-x="446" 
d="M270 630v-148h96v-123h-96v-164q0 -33 15 -52t39.5 -23t49 -1t49.5 12l17 -125q-67 -18 -125.5 -18.5t-108 17t-78 64.5t-28.5 120v170l-83 14v109h83l20 148h150zM74 425v-11h107v-219q0 -90 52.5 -123.5t139.5 -18.5v10q-82 -17 -131.5 15.5t-49.5 116.5v219h118v11
h-118v148h-11v-148h-107zM417 615q-2 -12 -4 -19l-20 -64h-32l18 60q-23 7 -23 29q0 12 9 20t22 8q26 0 30 -22q1 -7 0 -12z" />
    <glyph glyph-name="Tbar" unicode="&#x166;" horiz-adv-x="558" 
d="M191 540h-172v160h520v-160h-171v-223h107v-42h-107v-275h-177v275h-105v42h105v223zM275 67h10q0 181 -2 549h188v9h-385v-9h189v-549z" />
    <glyph glyph-name="tbar" unicode="&#x167;" horiz-adv-x="461" 
d="M271 630v-148h145v-123h-145v-84h82v-37h-82v-43q0 -33 15 -52t39.5 -23t49 -1t49.5 12l17 -125q-67 -18 -125.5 -18.5t-108 17t-78 64.5t-28.5 120v49h-56v37h56v84l-83 14v109h83l20 148h150zM75 425v-11h107v-219q0 -90 52.5 -123.5t139.5 -18.5v10
q-82 -17 -131.5 15.5t-49.5 116.5v219h167v11h-167v148h-11v-148h-107z" />
    <glyph glyph-name="Utilde" unicode="&#x168;" 
d="M345 151q42 0 74 22.5t32 62.5v464h170v-467q0 -111 -81 -177t-195 -66q-113 0 -194.5 66t-81.5 177v467h169v-464q0 -40 32.5 -62.5t74.5 -22.5zM345 65q80 0 139 46.5t59 124.5v397h-11v-397q0 -74 -55.5 -117t-131.5 -43t-131.5 43t-55.5 117v397h-11v-397
q0 -78 59 -124.5t139 -46.5zM236 782q-4 2 -15.5 8t-15.5 9q27 46 68.5 57t93.5 -19q31 -22 56.5 -18.5t46.5 38.5q6 -3 16 -9t12 -7q-24 -46 -62.5 -57t-87.5 18q-71 44 -112 -20z" />
    <glyph glyph-name="utilde" unicode="&#x169;" horiz-adv-x="609" 
d="M366 210v272h168v-332q0 -19 0.5 -26t4 -16.5t12.5 -12.5t25 -3v-89q-34 -13 -66 -18.5t-68 3.5t-53 40q-52 -43 -138 -43q-95 0 -147.5 63t-50.5 160v274h171v-274q-2 -40 19 -61.5t52 -21.5q30 0 50.5 22.5t20.5 62.5zM518 44v9q-34 -5 -47.5 9.5t-13.5 51.5v302h-11
v-176q0 -75 -50 -125.5t-126 -50.5q-62 0 -95 39t-33 105v209h-10v-209q0 -71 35.5 -111.5t102.5 -40.5q66 0 112.5 33t63.5 92v-67q0 -41 16.5 -58t55.5 -12zM188 611l-30 17q26 44 66.5 54.5t90.5 -18.5q30 -20 55 -17t45 37q6 -3 15 -8.5t12 -7.5q-23 -44 -60 -55t-85 18
q-70 43 -109 -20z" />
    <glyph glyph-name="Umacron" unicode="&#x16a;" 
d="M345 151q42 0 74 22.5t32 62.5v464h170v-467q0 -111 -81 -177t-195 -66q-113 0 -194.5 66t-81.5 177v467h169v-464q0 -40 32.5 -62.5t74.5 -22.5zM345 65q80 0 139 46.5t59 124.5v397h-11v-397q0 -74 -55.5 -117t-131.5 -43t-131.5 43t-55.5 117v397h-11v-397
q0 -78 59 -124.5t139 -46.5zM206 777v41h286v-41h-286z" />
    <glyph glyph-name="umacron" unicode="&#x16b;" horiz-adv-x="609" 
d="M366 210v272h168v-332q0 -19 0.5 -26t4 -16.5t12.5 -12.5t25 -3v-89q-34 -13 -66 -18.5t-68 3.5t-53 40q-52 -43 -138 -43q-95 0 -147.5 63t-50.5 160v274h171v-274q-2 -40 19 -61.5t52 -21.5q30 0 50.5 22.5t20.5 62.5zM518 44v9q-34 -5 -47.5 9.5t-13.5 51.5v302h-11
v-176q0 -75 -50 -125.5t-126 -50.5q-62 0 -95 39t-33 105v209h-10v-209q0 -71 35.5 -111.5t102.5 -40.5q66 0 112.5 33t63.5 92v-67q0 -41 16.5 -58t55.5 -12zM152 631v41h286v-41h-286z" />
    <glyph glyph-name="Ubreve" unicode="&#x16c;" 
d="M345 151q42 0 74 22.5t32 62.5v464h170v-467q0 -111 -81 -177t-195 -66q-113 0 -194.5 66t-81.5 177v467h169v-464q0 -40 32.5 -62.5t74.5 -22.5zM345 65q80 0 139 46.5t59 124.5v397h-11v-397q0 -74 -55.5 -117t-131.5 -43t-131.5 43t-55.5 117v397h-11v-397
q0 -78 59 -124.5t139 -46.5zM180 890h43q9 -40 44 -62.5t74 -22.5t74 22.5t44 62.5h44q-7 -48 -40 -80t-77 -39.5t-88.5 0.5t-77.5 40t-40 79z" />
    <glyph glyph-name="ubreve" unicode="&#x16d;" horiz-adv-x="609" 
d="M366 210v272h168v-332q0 -19 0.5 -26t4 -16.5t12.5 -12.5t25 -3v-89q-34 -13 -66 -18.5t-68 3.5t-53 40q-52 -43 -138 -43q-95 0 -147.5 63t-50.5 160v274h171v-274q-2 -40 19 -61.5t52 -21.5q30 0 50.5 22.5t20.5 62.5zM518 44v9q-34 -5 -47.5 9.5t-13.5 51.5v302h-11
v-176q0 -75 -50 -125.5t-126 -50.5q-62 0 -95 39t-33 105v209h-10v-209q0 -71 35.5 -111.5t102.5 -40.5q66 0 112.5 33t63.5 92v-67q0 -41 16.5 -58t55.5 -12zM143 689h40q9 -38 41.5 -58.5t68.5 -20.5t68.5 20.5t41.5 58.5h41q-7 -45 -38 -75t-71.5 -37t-81.5 0t-72 37.5
t-38 74.5z" />
    <glyph glyph-name="Uring" unicode="&#x16e;" 
d="M345 151q42 0 74 22.5t32 62.5v464h170v-467q0 -111 -81 -177t-195 -66q-113 0 -194.5 66t-81.5 177v467h169v-464q0 -40 32.5 -62.5t74.5 -22.5zM345 65q80 0 139 46.5t59 124.5v397h-11v-397q0 -74 -55.5 -117t-131.5 -43t-131.5 43t-55.5 117v397h-11v-397
q0 -78 59 -124.5t139 -46.5zM450 844q0 -46 -33 -72t-72 -26.5t-72 26t-33 72.5q0 37 21.5 62.5t52.5 31t62 0t52.5 -31t21.5 -62.5zM276 844q0 -40 34 -56.5t68.5 0t34.5 56.5q0 39 -34.5 55t-68.5 0t-34 -55z" />
    <glyph glyph-name="uring" unicode="&#x16f;" horiz-adv-x="609" 
d="M366 210v272h168v-332q0 -19 0.5 -26t4 -16.5t12.5 -12.5t25 -3v-89q-34 -13 -66 -18.5t-68 3.5t-53 40q-52 -43 -138 -43q-95 0 -147.5 63t-50.5 160v274h171v-274q-2 -40 19 -61.5t52 -21.5q30 0 50.5 22.5t20.5 62.5zM518 44v9q-34 -5 -47.5 9.5t-13.5 51.5v302h-11
v-176q0 -75 -50 -125.5t-126 -50.5q-62 0 -95 39t-33 105v209h-10v-209q0 -71 35.5 -111.5t102.5 -40.5q66 0 112.5 33t63.5 92v-67q0 -41 16.5 -58t55.5 -12zM398 643q0 -43 -32 -67t-70 -24t-70 24t-32 67t32 67.5t70 24.5t70 -24.5t32 -67.5zM229 643q0 -37 33 -52.5
t66.5 0t33.5 52.5q0 36 -33 51t-66.5 0t-33.5 -51z" />
    <glyph glyph-name="Uhungarumlaut" unicode="&#x170;" 
d="M345 151q42 0 74 22.5t32 62.5v464h170v-467q0 -111 -81 -177t-195 -66q-113 0 -194.5 66t-81.5 177v467h169v-464q0 -40 32.5 -62.5t74.5 -22.5zM345 65q80 0 139 46.5t59 124.5v397h-11v-397q0 -74 -55.5 -117t-131.5 -43t-131.5 43t-55.5 117v397h-11v-397
q0 -78 59 -124.5t139 -46.5zM277 774h-41v5l55 110l46 -12v-5zM445 774h-42v5l57 107l44 -15v-5z" />
    <glyph glyph-name="uhungarumlaut" unicode="&#x171;" horiz-adv-x="609" 
d="M366 210v272h168v-332q0 -19 0.5 -26t4 -16.5t12.5 -12.5t25 -3v-89q-34 -13 -66 -18.5t-68 3.5t-53 40q-52 -43 -138 -43q-95 0 -147.5 63t-50.5 160v274h171v-274q-2 -40 19 -61.5t52 -21.5q30 0 50.5 22.5t20.5 62.5zM518 44v9q-34 -5 -47.5 9.5t-13.5 51.5v302h-11
v-176q0 -75 -50 -125.5t-126 -50.5q-62 0 -95 39t-33 105v209h-10v-209q0 -71 35.5 -111.5t102.5 -40.5q66 0 112.5 33t63.5 92v-67q0 -41 16.5 -58t55.5 -12zM217 589h-39v4l52 104l43 -11v-5zM375 589h-39v4l53 102l42 -15v-4z" />
    <glyph glyph-name="Uogonek" unicode="&#x172;" 
d="M345 151q42 0 74 22.5t32 62.5v464h170v-467q0 -79 -43.5 -136.5t-113.5 -84.5q-28 -24 -41.5 -53.5t0.5 -54.5q38 -64 136 -15l5 -35q-32 -16 -66 -21t-66 8t-47 47q-24 51 22 108q-30 -6 -62 -6q-113 0 -194.5 66t-81.5 177v467h169v-464q0 -40 32.5 -62.5t74.5 -22.5z
M345 65q80 0 139 46.5t59 124.5v397h-11v-397q0 -74 -55.5 -117t-131.5 -43t-131.5 43t-55.5 117v397h-11v-397q0 -78 59 -124.5t139 -46.5z" />
    <glyph glyph-name="uogonek" unicode="&#x173;" horiz-adv-x="610" 
d="M366 210v272h168v-332q0 -19 0.5 -26t4 -16.5t12.5 -12.5t25 -3v-89q-37 -14 -73 -18q-28 -21 -42 -50t-1 -55q13 -22 37 -29t46.5 -2t44.5 17l5 -33q-22 -11 -46 -16.5t-47.5 -4t-44 14.5t-30.5 38q-12 34 -1 64.5t38 54.5q-51 5 -73 44q-52 -43 -138 -43
q-95 0 -147.5 63t-50.5 160v274h171v-274q-2 -40 19 -61.5t52 -21.5q30 0 50.5 22.5t20.5 62.5zM518 44v9q-34 -5 -47.5 9.5t-13.5 51.5v302h-11v-176q0 -75 -50 -125.5t-126 -50.5q-62 0 -95 39t-33 105v209h-10v-209q0 -71 35.5 -111.5t102.5 -40.5q66 0 112.5 33t63.5 92
v-67q0 -41 16.5 -58t55.5 -12z" />
    <glyph glyph-name="Wcircumflex" unicode="&#x174;" horiz-adv-x="951" 
d="M439 689h72l126 -384h3l46 204l66 191h193v-28l-250 -678h-94l-126 319h-2l-117 -319h-101l-249 678v28h192l66 -191l52 -204h3zM307 98l-179 516h-14l191 -537h5l165 443l170 -443h9l182 537h-13l-172 -516h-3l-168 436h-10zM636 769h-52l-108 98l-110 -98h-52v5
l137 124h49l136 -125v-4z" />
    <glyph glyph-name="wcircumflex" unicode="&#x175;" horiz-adv-x="753" 
d="M259 -12h-58l-203 475v19h181l43 -117l28 -86h3l87 192h65l84 -192h3l28 86l44 117h185v-19l-208 -475h-57l-110 205zM112 425h-11l130 -324h8l134 238l130 -238h9l129 324h-10l-125 -312l-128 239h-10l-132 -239zM529 579h-49l-103 93l-104 -93h-49v5l130 117h46
l129 -118v-4z" />
    <glyph glyph-name="Ycircumflex" unicode="&#x176;" horiz-adv-x="637" 
d="M117 633l196 -316v-250h11v250l196 316h-13l-188 -304l-189 304h-13zM407 294v-294h-177v294l-235 379v27h193l127 -233h7l127 233h194v-27zM481 763h-52l-108 98l-110 -98h-52v5l137 124h49l136 -125v-4z" />
    <glyph glyph-name="ycircumflex" unicode="&#x177;" horiz-adv-x="562" 
d="M552 463l-201 -517q-36 -90 -76.5 -135t-100.5 -55.5t-140 28.5l16 109q57 -23 90 -7.5t52 74.5l14 40l-207 463v19h182l104 -284h6l89 284h172v-19zM453 425h-13l-151 -406l-172 406h-11l178 -420q-3 -7 -10.5 -27.5t-12.5 -31.5q-29 -73 -46 -93q-36 -43 -112 -28
l-2 -9q20 -5 37.5 -6t32 4t25.5 10t21.5 18.5t16.5 20.5t15 26t12 26t11 28q34 88 95 252.5t86 229.5zM450 570h-52l-108 98l-110 -98h-52v5l137 124h49l136 -125v-4z" />
    <glyph glyph-name="Ydieresis" unicode="&#x178;" horiz-adv-x="637" 
d="M117 633l196 -316v-250h11v250l196 316h-13l-188 -304l-189 304h-13zM407 294v-294h-177v294l-235 379v27h193l127 -233h7l127 233h194v-27zM208 782q-15 0 -24.5 9t-9.5 22q0 15 9.5 24t24.5 9t24.5 -9t9.5 -24q0 -13 -10 -22t-24 -9zM427 782q-15 0 -24.5 9t-9.5 22
q0 15 9.5 24t24.5 9t24.5 -9t9.5 -24q0 -13 -10 -22t-24 -9z" />
    <glyph glyph-name="Zacute" unicode="&#x179;" horiz-adv-x="619" 
d="M579 700v-27l-284 -513h287v-160h-559v27l283 513h-257v160h530zM109 615h330l-287 -540h355v9h-340l287 541h-345v-10zM283 776v3l86 131l42 -20v-5l-84 -109h-44z" />
    <glyph glyph-name="zacute" unicode="&#x17a;" horiz-adv-x="486" 
d="M448 482v-19l-170 -312h170v-151h-420v17l172 324h-156v141h404zM101 417v-10h226l-192 -333v-5h256v10h-241l192 332v6h-241zM210 582v3l81 123l40 -19v-4l-79 -103h-42z" />
    <glyph glyph-name="Zdotaccent" unicode="&#x17b;" horiz-adv-x="619" 
d="M579 700v-27l-284 -513h287v-160h-559v27l283 513h-257v160h530zM109 615h330l-287 -540h355v9h-340l287 541h-345v-10zM309 798q-14 0 -23.5 8.5t-9.5 21.5q0 14 9.5 22.5t23.5 8.5t23.5 -8.5t9.5 -22.5q0 -13 -9.5 -21.5t-23.5 -8.5z" />
    <glyph glyph-name="zdotaccent" unicode="&#x17c;" horiz-adv-x="486" 
d="M448 482v-19l-170 -312h170v-151h-420v17l172 324h-156v141h404zM101 417v-10h226l-192 -333v-5h256v10h-241l192 332v6h-241zM249 619q-13 0 -22 8t-9 21t9 21t22 8q14 0 23 -8t9 -21t-9 -21t-23 -8z" />
    <glyph glyph-name="Zcaron" unicode="&#x17d;" horiz-adv-x="619" 
d="M579 700v-27l-284 -513h287v-160h-559v27l283 513h-257v160h530zM109 615h330l-287 -540h355v9h-340l287 541h-345v-10zM155 896h51l108 -98l110 98h52v-6l-137 -124h-48l-136 126v4z" />
    <glyph glyph-name="zcaron" unicode="&#x17e;" horiz-adv-x="486" 
d="M448 482v-19l-170 -312h170v-151h-420v17l172 324h-156v141h404zM101 417v-10h226l-192 -333v-5h256v10h-241l192 332v6h-241zM118 670h43l92 -84l93 84h44v-5l-116 -106h-41l-115 108v3z" />
    <glyph glyph-name="longs" unicode="&#x17f;" horiz-adv-x="364" 
d="M108 0v359h-81v123h84v49q1 61 20 103.5t50 64t74.5 29.5t89 4t98.5 -18l-17 -125q-146 43 -146 -61v-528h-172zM84 425v-9h105v-360h11v472q0 166 178 132v7q-88 19 -138.5 -15t-50.5 -124v-103h-105z" />
    <glyph glyph-name="florin" unicode="&#x192;" horiz-adv-x="694" 
d="M280 363h-135l19 119h137l8 50q12 74 47 121.5t86 64.5t107.5 16t118.5 -19l-36 -126q-143 44 -158 -61l-7 -46h141l-19 -119h-141q-61 -388 -63 -398q-12 -74 -47 -121.5t-86 -64.5t-107 -16t-118 19l34 126q27 -8 48 -10.5t46 0t41.5 20.5t21.5 51q14 90 62 394z
M297 -31q-27 -168 -196 -131l-3 -9q84 -19 139.5 15t69.5 125q27 173 71 448h164l1 9h-164l16 102q14 85 66 117t133 14l2 10q-85 18 -140.5 -16.5t-70.5 -124.5l-16 -102h-157l-1 -9h157q-44 -275 -71 -448z" />
    <glyph glyph-name="Aringacute" unicode="&#x1fa;" horiz-adv-x="686" 
d="M154 178l188 407h1l190 -407h-379zM596 68l-251 539h-6l-249 -539h13l47 99h387l46 -99h13zM416 249l-74 161l-72 -161h146zM274 778q0 -40 34 -56.5t68.5 0t34.5 56.5q0 39 -34.5 55t-68.5 0t-34 -55zM448 778q0 -62 -58 -88l307 -664v-26h-175l-41 88h-276l-41 -88
h-175v26l306 664q-57 27 -57 88q0 37 21.5 62.5t52.5 31t62 0t52.5 -31t21.5 -62.5zM318 898v3l72 88l38 -20v-5l-66 -66h-44z" />
    <glyph glyph-name="aringacute" unicode="&#x1fb;" horiz-adv-x="557" 
d="M357 67q-17 -41 -60.5 -59.5t-94.5 -18.5q-68 0 -118 42t-52 111q-4 87 47 134.5t137 47.5q69 0 109 -30v11q0 57 -106 57q-79 0 -131 -24l-22 118q81 36 183 36q241 0 241 -190v-155q0 -18 0.5 -25t4 -16.5t12.5 -12.5t25 -3v-90q-29 -8 -55.5 -10.5t-53.5 2t-44.5 23.5
t-21.5 52zM405 189v-52q0 -50 15 -76t54 -24v7q-35 -2 -47 22.5t-12 70.5v146q0 154 -166 154q-55 0 -114 -18l3 -8q60 17 111 17q78 0 117 -34.5t39 -110.5v-84q-99 69 -169 69q-57 0 -93 -29t-36 -86q0 -51 32.5 -77t85.5 -26q66 0 113 50l-4 6q-46 -48 -109 -48
q-48 0 -78 23.5t-32 71.5q0 52 33.5 79t87.5 27q37 0 85 -21.5t84 -48.5zM323 178v8q-32 22 -77 22q-26 -2 -40.5 -16.5t-9.5 -38.5q5 -30 45 -30q30 0 56 14.5t26 40.5zM382 639q0 -33 -22 -56t-53 -28.5t-62.5 -0.5t-53.5 28t-22 57q0 41 33.5 64.5t73 23.5t73 -23.5
t33.5 -64.5zM206 639q0 -36 35 -51t69.5 0t34.5 51q0 26 -21.5 41t-48 15t-48 -15t-21.5 -41zM253 768v2l91 91l44 -14v-3l-88 -76h-47z" />
    <glyph glyph-name="AEacute" unicode="&#x1fc;" horiz-adv-x="839" 
d="M385 153h-153q-9 -20 -31.5 -72.5t-35.5 -80.5h-176v27l313 673h478v-159h-228v-101h208v-159h-208v-122h237v-159h-404v153zM387 522l-86 -207h84l3 207h-1zM363 615h101v-372h-276q68 148 175 372zM183 234h281v-159h257v10h-248v272h219v10h-219v248h239v11h-355
l-263 -558h9zM460 767v3l86 131l42 -20v-5l-84 -109h-44z" />
    <glyph glyph-name="aeacute" unicode="&#x1fd;" horiz-adv-x="814" 
d="M381 85q-68 -77 -176 -77q-69 0 -120 42t-53 109q-4 90 47 136.5t139 46.5q66 0 110 -27v10q0 56 -107 56q-81 0 -132 -26l-21 120q81 36 183 36q58 0 97 -11.5t72 -47.5q61 61 145 61q131 0 181 -81.5t19 -212.5h-278q6 -45 31 -61.5t71 -16.5q41 0 87 9.5t72 22.5
l21 -123q-100 -45 -190 -45q-132 0 -198 80zM565 382q-27 0 -49 -15.5t-28 -46.5h138q4 28 -15.5 45t-45.5 17zM331 202q-39 24 -82 23q-28 -2 -43 -15t-11 -37q5 -30 46 -32q50 0 95 35q-3 10 -5 26zM250 455q-57 0 -114 -16l2 -9q69 16 112 16q78 0 112.5 -34t36.5 -104
q0 -92 10 -125q-45 -48 -88.5 -77t-93.5 -29q-49 0 -79.5 24t-30.5 72q0 52 33 78t87 26q45 0 88 -23v9q-43 23 -88 23q-58 0 -93.5 -29t-35.5 -84q0 -51 33 -78t86 -27q88 0 184 108q36 -107 174 -107q61 0 116 17l-3 9q-55 -17 -113 -17q-138 0 -167 109q-15 49 -7 108
q9 65 47 103.5t109 37.5q129 -4 129 -140q0 -15 -1 -23h-211v-9h218q3 18 3 32q0 144 -137 149q-61 2 -103 -28.5t-58 -90.5q-6 69 -45.5 99t-111.5 30zM389 585v3l82 124l40 -19v-4l-80 -104h-42z" />
    <glyph glyph-name="Oslashacute" unicode="&#x1fe;" horiz-adv-x="793" 
d="M756 349q0 -90 -32.5 -162.5t-86 -116t-119.5 -66t-136.5 -19t-134.5 29.5l-48 -89h-50l59 108q-78 44 -124 124t-46 191q0 91 33.5 164.5t89 116.5t123.5 64.5t140 16.5t135 -35l43 79h51l-55 -100q158 -101 158 -306zM126 349q0 -68 23.5 -123t61.5 -89t87 -52
t99.5 -18t99.5 18t87 52t61.5 89t23.5 123q0 90 -40 156t-100.5 95.5t-131 29.5t-131 -29.5t-100.5 -95.5t-40 -156zM659 349q0 -86 -38.5 -149t-97 -92t-126 -29.5t-126 27.5t-97 92t-38.5 151q0 66 22.5 119t59 85.5t83.5 50t96.5 17t96.5 -18.5t83.5 -50.5t59 -85
t22.5 -117.5zM222 349q0 -106 72 -158l180 330q-31 14 -66 16t-68 -9.5t-59.5 -33.5t-42.5 -60t-16 -85zM573 349q0 95 -62 147l-178 -326q39 -17 81 -11t77.5 26t58.5 63.5t23 100.5zM380 787v3l86 131l42 -20v-5l-84 -109h-44z" />
    <glyph glyph-name="oslashacute" unicode="&#x1ff;" horiz-adv-x="577" 
d="M546 240q0 -64 -23 -114.5t-61.5 -80.5t-85.5 -45.5t-97.5 -13t-96.5 20.5l-35 -61h-40l44 76q-118 69 -118 218q0 65 24.5 116.5t64.5 82t89 45t101 10.5t97 -26l36 62h41l-46 -79q106 -69 106 -211zM466 240q0 81 -49 133t-127 52q-80 0 -129 -52t-49 -133
q0 -80 50 -132t128 -52t127 52t49 132zM456 240q0 -76 -46 -125t-120 -49t-121 49t-47 125t47 125.5t121 49.5q75 0 120.5 -49t45.5 -126zM203 240q0 -49 28 -80l101 174q-28 14 -57 11t-50.5 -31.5t-21.5 -73.5zM378 240q0 42 -20 70l-98 -169q42 -17 80 10t38 89zM270 583
v3l81 124l40 -19v-5l-79 -103h-42z" />
    <glyph glyph-name="Scommaaccent" unicode="&#x218;" horiz-adv-x="641" 
d="M360 -130q-2 -4 -3.5 -11t-2.5 -11l-27 -86h-36l24 82q-26 5 -26 32q0 15 10 24t26 9q12 0 22.5 -7t12.5 -19v-13zM39 214h173q0 -25 22.5 -42.5t55 -21.5t64.5 -0.5t54.5 20t22.5 39.5q0 18 -9 29.5t-29.5 18t-39 9t-50.5 4.5q-122 9 -187 58t-67 157q-1 86 54 145
t134 72.5t158 0t134 -72.5t54 -145h-170q0 43 -47.5 60t-96 -0.5t-50.5 -57.5q-3 -36 25 -50t86 -21q39 -5 59.5 -7.5t55 -10t53 -16t42.5 -24t36 -35.5t20.5 -49t8.5 -66q0 -60 -31.5 -108t-81.5 -73t-111 -37t-121.5 -0.5t-110.5 37t-80.5 74.5t-29.5 113zM475 549h13
q-22 40 -66.5 63.5t-94.5 23.5t-95.5 -14.5t-75 -51t-28.5 -85.5q1 -43 15.5 -72t43.5 -43.5t57.5 -21t72.5 -9.5q96 -8 126 -20q67 -27 68 -110q0 -55 -45.5 -91.5t-105 -44.5t-121 11.5t-89.5 65.5h-12q21 -41 67.5 -65t99.5 -25t102.5 13.5t82 51t32.5 84.5
q0 36 -12.5 61.5t-28.5 39.5t-48 23t-53 11.5t-61 5.5q-44 4 -71 9t-54.5 18.5t-40.5 40t-13 67.5q0 45 27 79t69 47.5t88 14t87.5 -20t63.5 -56.5z" />
    <glyph glyph-name="scommaaccent" unicode="&#x219;" horiz-adv-x="517" 
d="M295 -130q-1 -4 -3 -11t-3 -11l-27 -86h-36l24 82q-26 5 -26 32q0 15 10 24t26 9q12 0 22.5 -7t12.5 -19v-13zM34 154h167q0 -25 28 -35t56 -1t28 30q0 14 -8.5 21.5t-17.5 9.5t-27 4q-37 4 -61 8t-57.5 15t-53.5 25.5t-34.5 41t-14.5 60.5q0 63 45.5 105t110 51
t128.5 -1.5t107 -53.5t40 -104h-147q0 23 -28 32t-56 0t-28 -29q0 -10 4.5 -16.5t15.5 -10t17 -4.5t20 -3q38 -3 63.5 -6.5t57.5 -13.5t51 -25t32 -42t12 -64q-2 -81 -66.5 -123t-152.5 -42q-46 0 -84.5 8t-73 26t-54 53t-19.5 84zM135 99h-11q34 -59 134 -59q54 0 99.5 30
t45.5 83q1 22 -7 38t-18.5 25t-32.5 15t-36.5 8.5t-43.5 5.5q-24 3 -38.5 5.5t-35 9t-31.5 15t-20 23.5t-10 35q-2 50 39.5 72.5t95.5 22.5q87 0 121 -49h10q-16 30 -53.5 43.5t-77.5 13.5q-58 0 -102 -25t-42 -79q1 -26 12 -44t32.5 -27.5t41.5 -14t50 -9.5q5 -1 8 -1
q62 -5 95 -21t33 -61q0 -48 -42.5 -76.5t-92.5 -28.5q-87 0 -123 50z" />
    <glyph glyph-name="uni021A" unicode="&#x21a;" horiz-adv-x="558" 
d="M318 -130q-2 -4 -3.5 -11t-2.5 -11l-27 -86h-36l24 82q-26 5 -26 32q0 15 10 24t26 9q12 0 22.5 -7t12.5 -19v-13zM191 540h-172v160h520v-160h-171v-540h-177v540zM275 67h10q0 181 -2 549h188v9h-385v-9h189v-549z" />
    <glyph glyph-name="uni021B" unicode="&#x21b;" horiz-adv-x="460" 
d="M306 -130q-2 -4 -3.5 -11t-2.5 -11l-27 -86h-36l24 82q-26 5 -26 32q0 15 10 24t26 9q12 0 22.5 -7t12.5 -19v-13zM270 630v-148h145v-123h-145v-164q0 -33 15 -52t39.5 -23t49 -1t49.5 12l17 -125q-67 -18 -125.5 -18.5t-108 17t-78 64.5t-28.5 120v170l-83 14v109h83
l20 148h150zM74 425v-11h107v-219q0 -90 52.5 -123.5t139.5 -18.5v10q-82 -17 -131.5 15.5t-49.5 116.5v219h167v11h-167v148h-11v-148h-107z" />
    <glyph glyph-name="circumflex" unicode="&#x2c6;" horiz-adv-x="494" 
d="M404 574h-52l-108 98l-110 -98h-52v5l137 124h49l136 -125v-4z" />
    <glyph glyph-name="caron" unicode="&#x2c7;" horiz-adv-x="531" 
d="M103 702h51l108 -98l110 98h52v-6l-137 -124h-48l-136 126v4z" />
    <glyph glyph-name="breve" unicode="&#x2d8;" horiz-adv-x="529" 
d="M101 704h43q9 -40 44 -62.5t74 -22.5t74 22.5t44 62.5h44q-7 -48 -40 -80t-77 -39.5t-88.5 0.5t-77.5 40t-40 79z" />
    <glyph glyph-name="dotaccent" unicode="&#x2d9;" horiz-adv-x="321" 
d="M146 642q-14 0 -23.5 8.5t-9.5 21.5q0 14 9.5 22.5t23.5 8.5t23.5 -8.5t9.5 -22.5q0 -13 -9.5 -21.5t-23.5 -8.5z" />
    <glyph glyph-name="ring" unicode="&#x2da;" horiz-adv-x="379" 
d="M293 616q0 -46 -33 -72t-72 -26.5t-72 26t-33 72.5q0 37 21.5 62.5t52.5 31t62 0t52.5 -31t21.5 -62.5zM119 616q0 -40 34.5 -56.5t68.5 0t34 56.5q0 39 -34 55t-68.5 0t-34.5 -55z" />
    <glyph glyph-name="ogonek" unicode="&#x2db;" horiz-adv-x="364" 
d="M155 6h44q-33 -21 -53 -55.5t-4 -63.5q38 -64 136 -15l5 -35q-32 -16 -66 -21t-66 8t-47 47t1.5 72t49.5 63z" />
    <glyph glyph-name="tilde" unicode="&#x2dc;" horiz-adv-x="420" 
d="M95 631q-4 3 -15.5 9t-15.5 8q27 46 68.5 57t93.5 -19q31 -22 56.5 -18.5t46.5 38.5q6 -3 16 -9t12 -7q-24 -46 -62.5 -57t-87.5 18q-71 44 -112 -20z" />
    <glyph glyph-name="hungarumlaut" unicode="&#x2dd;" horiz-adv-x="518" 
d="M168 581h-41v5l55 110l46 -12v-5zM336 581h-42v5l57 107l44 -15v-5z" />
    <glyph glyph-name="Wgrave" unicode="&#x1e80;" horiz-adv-x="951" 
d="M439 689h72l126 -384h3l46 204l66 191h193v-28l-250 -678h-94l-126 319h-2l-117 -319h-101l-249 678v28h192l66 -191l52 -204h3zM307 98l-179 516h-14l191 -537h5l165 443l170 -443h9l182 537h-13l-172 -516h-3l-168 436h-10zM492 766v-3h-44l-84 109v5l42 20z" />
    <glyph glyph-name="wgrave" unicode="&#x1e81;" horiz-adv-x="753" 
d="M259 -12h-58l-203 475v19h181l43 -117l28 -86h3l87 192h65l84 -192h3l28 86l44 117h185v-19l-208 -475h-57l-110 205zM112 425h-11l130 -324h8l134 238l130 -238h9l129 324h-10l-125 -312l-128 239h-10l-132 -239zM395 584v-3h-42l-80 105v5l40 19z" />
    <glyph glyph-name="Wacute" unicode="&#x1e82;" horiz-adv-x="951" 
d="M439 689h72l126 -384h3l46 204l66 191h193v-28l-250 -678h-94l-126 319h-2l-117 -319h-101l-249 678v28h192l66 -191l52 -204h3zM307 98l-179 516h-14l191 -537h5l165 443l170 -443h9l182 537h-13l-172 -516h-3l-168 436h-10zM443 762v3l86 131l42 -20v-5l-84 -109h-44z
" />
    <glyph glyph-name="wacute" unicode="&#x1e83;" horiz-adv-x="753" 
d="M259 -12h-58l-203 475v19h181l43 -117l28 -86h3l87 192h65l84 -192h3l28 86l44 117h185v-19l-208 -475h-57l-110 205zM112 425h-11l130 -324h8l134 238l130 -238h9l129 324h-10l-125 -312l-128 239h-10l-132 -239zM339 575v3l83 127l41 -20v-5l-82 -105h-42z" />
    <glyph glyph-name="Wdieresis" unicode="&#x1e84;" horiz-adv-x="951" 
d="M439 689h72l126 -384h3l46 204l66 191h193v-28l-250 -678h-94l-126 319h-2l-117 -319h-101l-249 678v28h192l66 -191l52 -204h3zM307 98l-179 516h-14l191 -537h5l165 443l170 -443h9l182 537h-13l-172 -516h-3l-168 436h-10zM365 782q-15 0 -24.5 9t-9.5 22q0 15 9.5 24
t24.5 9t24.5 -9t9.5 -24q0 -13 -10 -22t-24 -9zM584 782q-15 0 -24.5 9t-9.5 22q0 15 9.5 24t24.5 9t24.5 -9t9.5 -24q0 -13 -10 -22t-24 -9z" />
    <glyph glyph-name="wdieresis" unicode="&#x1e85;" horiz-adv-x="753" 
d="M259 -12h-58l-203 475v19h181l43 -117l28 -86h3l87 192h65l84 -192h3l28 86l44 117h185v-19l-208 -475h-57l-110 205zM112 425h-11l130 -324h8l134 238l130 -238h9l129 324h-10l-125 -312l-128 239h-10l-132 -239zM264 631q-15 0 -24.5 9t-9.5 22q0 15 9.5 24t24.5 9
t24.5 -9t9.5 -24q0 -13 -10 -22t-24 -9zM483 631q-15 0 -24.5 9t-9.5 22q0 15 9.5 24t24.5 9t24.5 -9t9.5 -24q0 -13 -10 -22t-24 -9z" />
    <glyph glyph-name="Ygrave" unicode="&#x1ef2;" horiz-adv-x="637" 
d="M117 633l196 -316v-250h11v250l196 316h-13l-188 -304l-189 304h-13zM407 294v-294h-177v294l-235 379v27h193l127 -233h7l127 233h194v-27zM340 777v-3h-44l-84 109v5l42 20z" />
    <glyph glyph-name="ygrave" unicode="&#x1ef3;" horiz-adv-x="562" 
d="M552 463l-201 -517q-36 -90 -76.5 -135t-100.5 -55.5t-140 28.5l16 109q57 -23 90 -7.5t52 74.5l14 40l-207 463v19h182l104 -284h6l89 284h172v-19zM453 425h-13l-151 -406l-172 406h-11l178 -420q-3 -7 -10.5 -27.5t-12.5 -31.5q-29 -73 -46 -93q-36 -43 -112 -28
l-2 -9q20 -5 37.5 -6t32 4t25.5 10t21.5 18.5t16.5 20.5t15 26t12 26t11 28q34 88 95 252.5t86 229.5zM312 583v-3h-42l-80 105v5l40 19z" />
    <glyph glyph-name="endash" unicode="&#x2013;" horiz-adv-x="551" 
d="M75 312v43h401v-43h-401z" />
    <glyph glyph-name="emdash" unicode="&#x2014;" horiz-adv-x="639" 
d="M75 312v43h489v-43h-489z" />
    <glyph glyph-name="quoteleft" unicode="&#x2018;" horiz-adv-x="220" 
d="M77 611q2 14 5 21l22 69h33l-19 -65q24 -6 24 -30q0 -14 -9.5 -22.5t-23.5 -8.5q-27 0 -32 25q-1 7 0 11z" />
    <glyph glyph-name="quoteright" unicode="&#x2019;" horiz-adv-x="221" 
d="M146 665q-1 -11 -5 -21l-21 -68h-34l19 64q-24 6 -24 31q0 14 9 22t24 8q27 0 32 -24q2 -7 0 -12z" />
    <glyph glyph-name="quotesinglbase" unicode="&#x201a;" horiz-adv-x="214" 
d="M140 15q-2 -4 -2.5 -11t-2.5 -10q-8 -20 -23 -73h-34l21 70q-24 5 -24 30q0 14 9 22t24 8q27 0 32 -24v-12z" />
    <glyph glyph-name="quotedblleft" unicode="&#x201c;" horiz-adv-x="356" 
d="M78 610q2 3 3.5 9.5t2.5 10.5l21 69h33l-18 -64q23 -7 23 -31q0 -30 -32 -30q-28 0 -33 24v12zM211 610q2 3 3 10t2 10l22 69h33l-19 -64q24 -6 24 -31q0 -14 -9 -22t-24 -8q-27 0 -32 24v12z" />
    <glyph glyph-name="quotedblright" unicode="&#x201d;" horiz-adv-x="355" 
d="M146 665q-1 -11 -5 -21l-21 -68h-34l19 64q-24 6 -24 31q0 14 9 22t24 8q27 0 32 -24q2 -7 0 -12zM280 665q-1 -4 -2.5 -10.5t-2.5 -10.5l-22 -68h-33l19 64q-24 6 -24 31q0 14 9 22t24 8q27 0 32 -24v-12z" />
    <glyph glyph-name="quotedblbase" unicode="&#x201e;" horiz-adv-x="351" 
d="M139 15q-2 -4 -3.5 -10l-2.5 -10q-4 -13 -12 -37t-11 -34h-33l20 67q-23 5 -23 30q0 30 32 30q28 0 33 -24v-12zM277 15q-2 -13 -5 -20q-14 -41 -23 -71h-34l21 67q-24 5 -24 30q0 14 9 22t24 8q27 0 32 -24q1 -7 0 -12z" />
    <glyph glyph-name="dagger" unicode="&#x2020;" horiz-adv-x="467" 
d="M42 399v42h170v257h44v-257h169v-42h-169v-475h-44v475h-170z" />
    <glyph glyph-name="daggerdbl" unicode="&#x2021;" horiz-adv-x="532" 
d="M67 163v40h176v227h-176v41h176v227h44v-227h178v-41h-178v-227h178v-40h-178v-239h-44v239h-176z" />
    <glyph glyph-name="bullet" unicode="&#x2022;" horiz-adv-x="365" 
d="M182 279q-33 0 -57.5 22.5t-24.5 55.5q0 35 24 56t58 21t58.5 -21t24.5 -56q0 -33 -25 -55.5t-58 -22.5z" />
    <glyph glyph-name="ellipsis" unicode="&#x2026;" horiz-adv-x="584" 
d="M110 -6q-14 0 -24.5 9.5t-10.5 23.5q0 15 10 24t25 9t25.5 -9t10.5 -24q0 -14 -10.5 -23.5t-25.5 -9.5zM289 -6q-14 0 -24.5 9.5t-10.5 23.5q0 15 10 24t25 9t25.5 -9t10.5 -24q0 -14 -10.5 -23.5t-25.5 -9.5zM473 -6q-15 0 -25 9.5t-10 23.5q0 15 10 24t25 9t25.5 -9
t10.5 -24q0 -14 -10.5 -23.5t-25.5 -9.5z" />
    <glyph glyph-name="perthousand" unicode="&#x2030;" horiz-adv-x="1174" 
d="M205 -1l342 699h49l-342 -699h-49zM759 148q0 -44 -17.5 -78.5t-45.5 -52t-62 -26t-68 0t-62 26.5t-45.5 52t-17.5 78t17.5 78.5t45.5 52.5t62 26.5t68 0t62 -26.5t45.5 -52.5t17.5 -78.5zM482 148q0 -58 36.5 -90.5t81 -32.5t81 32.5t36.5 90.5t-36.5 91t-81 33t-81 -33
t-36.5 -91zM359 549q0 -44 -17.5 -78.5t-45.5 -52.5t-61.5 -26.5t-67.5 0t-62 26t-45.5 52.5t-17.5 79t17.5 78.5t45.5 52.5t61.5 26.5t67.5 0t62 -26.5t45.5 -52.5t17.5 -78.5zM84 549q0 -58 36.5 -91t81 -33t81 33t36.5 91t-36.5 90.5t-81 32.5t-81 -32.5t-36.5 -90.5z
M1133 148q0 -44 -17.5 -78.5t-45.5 -52t-62 -26t-68 0t-62 26.5t-45.5 52t-17.5 78q0 51 23.5 88.5t59 54.5t76.5 17t76.5 -17t59 -54.5t23.5 -88.5zM856 148q0 -58 36.5 -90.5t81 -32.5t81 32.5t36.5 90.5t-36.5 91t-81 33t-81 -33t-36.5 -91z" />
    <glyph glyph-name="guilsinglleft" unicode="&#x2039;" horiz-adv-x="358" 
d="M289 562l-94 -216l94 -213l-75 -39l-158 252l158 254z" />
    <glyph glyph-name="guilsinglright" unicode="&#x203a;" horiz-adv-x="302" 
d="M179 346l-107 201l39 12l127 -213l-127 -212l-39 13z" />
    <glyph glyph-name="fraction" unicode="&#x2044;" horiz-adv-x="466" 
d="M18 -60l382 789h51l-383 -789h-50z" />
    <glyph glyph-name="Euro" unicode="&#x20ac;" horiz-adv-x="640" 
d="M101 350q0 22 1 34h-68v27h72q21 140 122 217.5t232 77.5q71 0 130 -22q-9 -26 -25 -74t-25 -74q-33 16 -82 16q-63 0 -107 -38.5t-59 -102.5h205l-6 -27h-204q-1 -12 -1 -34q0 -19 1 -30h175l-6 -31h-164q17 -63 63 -102t105 -40q49 0 92 22q31 -84 49 -147
q-66 -28 -141 -28q-130 -2 -232 75.5t-123 219.5h-71v31h68q-1 11 -1 30zM513 74l-4 11q-20 -4 -49 -4q-104 -2 -182.5 71.5t-78.5 197.5t78 197t183 73q11 0 37 -2l3 9q-13 3 -40 3q-109 0 -190.5 -75.5t-81.5 -204.5t81.5 -205t190.5 -76q25 0 53 5z" />
    <glyph glyph-name="trademark" unicode="&#x2122;" horiz-adv-x="767" 
d="M183 669h-107v32h248v-32h-105v-247h-36v247zM400 701l128 -158l127 158h22v-279h-37v202l-110 -136h-5l-109 136v-202h-37v279h21z" />
    <glyph glyph-name="arrowleft" unicode="&#x2190;" horiz-adv-x="764" 
d="M356 106l-267 235v6l267 236l32 -32l-213 -183l504 1v-50l-503 1l211 -183z" />
    <glyph glyph-name="arrowup" unicode="&#x2191;" horiz-adv-x="723" 
d="M362 624l235 -267l-31 -31l-183 211l1 -503h-50l1 504l-183 -213l-32 32l236 267h6z" />
    <glyph glyph-name="arrowright" unicode="&#x2192;" horiz-adv-x="771" 
d="M669 341l-267 -235l-31 31l211 183l-503 -1v50l504 -1l-213 183l32 32l267 -236v-6z" />
    <glyph glyph-name="arrowdown" unicode="&#x2193;" horiz-adv-x="706" 
d="M349 64l-235 267l31 31l183 -211l-1 503h50l-1 -504l183 213l32 -32l-236 -267h-6z" />
    <glyph glyph-name="arrowboth" unicode="&#x2194;" horiz-adv-x="989" 
d="M902 341l-258 -227l-31 30l204 177h-649l204 -177l-31 -30l-258 227v6l258 227l31 -30l-205 -177h651l-205 177l31 30l258 -227v-6z" />
    <glyph glyph-name="arrowupdn" unicode="&#x2195;" horiz-adv-x="694" 
d="M348 -12l-226 247l30 30l176 -197v593l-176 -197l-30 30l226 247h6l226 -247l-30 -30l-176 197v-593l176 197l30 -30l-226 -247h-6z" />
    <glyph glyph-name="uni2196" unicode="&#x2196;" horiz-adv-x="735" 
d="M163 196l-23 356l4 4l356 -23l-1 -44l-279 21l357 -355l-36 -36l-354 357l20 -279z" />
    <glyph glyph-name="uni2197" unicode="&#x2197;" horiz-adv-x="708" 
d="M558 552l-23 -356l-44 1l20 279l-354 -357l-36 36l357 355l-279 -21l-1 44l356 23z" />
    <glyph glyph-name="uni2198" unicode="&#x2198;" horiz-adv-x="735" 
d="M545 505l23 -356l-4 -4l-356 23l1 44l279 -21l-357 355l36 36l354 -357l-20 279z" />
    <glyph glyph-name="uni2199" unicode="&#x2199;" horiz-adv-x="735" 
d="M167 149l23 356l44 -1l-20 -279l354 357l36 -36l-357 -355l279 21l1 -44l-356 -23z" />
    <glyph glyph-name="minus" unicode="&#x2212;" horiz-adv-x="529" 
d="M80 332v43h369v-43h-369z" />
    <glyph glyph-name="CR" horiz-adv-x="219" 
 />
    </font>
</defs>
</svg>
